<svg width="298" height="220" viewBox="0 0 298 220" fill="none" xmlns="http://www.w3.org/2000/svg">
<path d="M87.6398 110.13C94.0491 106.481 91.3217 97.3071 86.5148 92.4646C77.5486 83.4616 62.7186 88.9179 52.7297 92.8056C41.5134 97.2048 31.5586 104.196 23.547 113.131C18.706 118.519 14.3081 124.521 10.1489 130.455C6.26243 135.945 4.11464 142.39 0.0577065 147.676C-0.112753 147.915 0.12589 148.154 0.364534 148.085C2.10322 147.642 3.33053 146.449 4.2851 144.948C16.7286 140.31 31.3541 144.436 43.6612 147.676C55.4229 150.745 68.4801 155.281 80.1055 149.484C89.4467 144.812 99.8447 135.058 101.277 124.146C102.367 116.097 94.5604 111.63 87.6398 110.13Z" fill="#52672E"/>
<path d="M48.0932 123.839C45.3318 122.748 42.1271 123.259 40.4225 125.885C40.3543 125.953 40.3543 126.055 40.3202 126.124C40.2521 126.192 40.1839 126.226 40.1498 126.294C40.0475 126.397 39.9793 126.499 39.9111 126.635C39.9111 126.635 39.9111 126.669 39.8771 126.669C39.127 127.59 39.7066 128.92 40.968 128.715C41.1385 128.681 41.2748 128.647 41.4453 128.613C44.3431 129.363 47.0364 128.545 48.6387 125.714C49.0478 125.032 48.9114 124.146 48.0932 123.839Z" fill="#3C4B20"/>
<path d="M51.9456 135.127C51.741 134.82 51.2638 134.718 50.9569 134.888C50.7865 134.99 50.6501 135.161 50.5819 135.331C50.5819 135.331 50.5819 135.4 50.5819 135.434C50.5819 135.434 50.5478 135.434 50.5478 135.468C50.5478 135.434 50.5478 135.434 50.5137 135.4C50.4796 135.468 50.4115 135.502 50.3433 135.57C50.3092 135.604 50.241 135.638 50.2069 135.707C50.1046 135.809 50.0364 135.911 49.9342 136.013C49.6614 136.184 49.3887 136.354 49.1841 136.593C48.9796 136.866 48.9114 137.139 48.9455 137.446C48.8091 137.753 48.6387 138.06 48.4682 138.435C48.2296 138.878 48.4341 139.492 48.8091 139.765C49.3546 140.174 49.9683 140.003 50.3774 139.56C50.9228 139.014 51.4342 138.503 51.9797 137.957C52.3888 137.548 52.7297 137.309 53.0706 136.9C53.7525 136.15 52.832 134.956 51.9456 135.127Z" fill="#3C4B20"/>
<path d="M52.8322 106.719C51.5708 106.549 50.2753 106.412 49.048 106.822C48.8094 106.924 48.5707 107.026 48.3662 107.163C47.4798 107.367 46.6616 107.674 46.082 108.527C45.9115 108.766 45.8434 109.038 45.8775 109.311C45.4684 109.959 45.7411 110.846 46.5252 111.153C47.6843 111.596 48.8775 111.835 49.9685 111.187C50.6162 110.812 51.1617 110.13 51.5367 109.413C52.1163 109.243 52.6958 109.004 53.2754 108.731C54.2641 108.288 53.855 106.856 52.8322 106.719Z" fill="#3C4B20"/>
<path d="M87.6398 110.13C94.0491 106.481 91.3217 97.3071 86.5148 92.4646C77.5486 83.4616 62.7186 88.9179 52.7297 92.8056C41.5134 97.2048 31.5586 104.196 23.547 113.131C18.706 118.519 14.3081 124.521 10.1489 130.455C6.26243 135.945 4.11464 142.39 0.0577065 147.676C-0.112753 147.915 0.12589 148.154 0.364534 148.085C2.10322 147.642 3.33053 146.449 4.2851 144.948C16.7286 140.31 31.3541 144.436 43.6612 147.676C55.4229 150.745 68.4801 155.281 80.1055 149.484C89.4467 144.812 99.8447 135.058 101.277 124.146C102.367 116.097 94.5604 111.63 87.6398 110.13ZM95.9923 130.898C90.5035 140.924 79.5259 149.586 67.8324 149.756C47.275 150.029 24.9789 134.99 4.79648 144.232C5.64878 142.731 6.33062 141.094 7.01245 139.73C9.84208 134.24 13.7286 129.261 17.5128 124.384C24.5698 115.279 31.7291 107.129 41.5816 100.956C50.4114 95.4315 61.5936 90.6913 72.0598 90.1115C77.719 89.8046 82.901 91.8508 86.4807 96.2499C88.0489 98.1597 89.1057 100.581 89.1398 103.036C89.1739 105.287 87.9466 106.719 86.3443 107.879C85.6284 107.47 84.8443 107.129 84.0942 106.856C83.8556 106.788 83.651 106.788 83.4806 106.856C74.8553 106.31 66.2642 109.345 58.048 111.63C51.4683 113.472 44.9908 115.654 38.6156 118.212C32.445 120.701 26.4448 123.668 20.8879 127.317C16.1491 130.42 10.2853 134.751 8.27385 140.276C8.17158 140.515 8.5125 140.685 8.68296 140.515C12.6035 136.286 15.9104 132.16 20.7174 128.818C26.6153 124.657 33.3996 121.758 40.1839 119.303C46.3204 117.086 52.5933 115.313 58.8662 113.608C66.8437 111.425 74.9917 110.164 83.0033 108.22C83.1056 108.424 83.276 108.595 83.5147 108.697C83.8556 108.834 84.1624 108.97 84.5033 109.107C84.2306 109.243 83.992 109.413 83.7533 109.55C82.7306 110.164 83.5829 111.425 84.5374 111.323C84.6397 111.562 84.8102 111.766 85.117 111.869C89.208 113.165 93.7422 114.426 96.6741 117.734C100.186 121.622 98.1742 126.874 95.9923 130.898Z" fill="#3C4B20"/>
<g opacity="0.3">
<path opacity="0.3" d="M87.6397 110.13C94.049 106.481 91.3216 97.3071 86.5147 92.4646C77.5485 83.4616 62.7185 88.9179 52.7296 92.8056C44.6157 95.9771 37.1837 100.547 30.6381 106.208C37.9678 106.378 45.2294 107.367 52.2523 109.925C52.9001 110.164 52.7296 111.084 52.1841 111.289C36.911 116.575 22.1492 124.009 11.4443 136.252C17.3763 131.921 23.1037 127.215 29.9903 124.521C39.4338 120.872 49.2522 118.689 59.173 116.916C59.9571 116.78 60.1275 117.837 59.6162 118.246C56.1047 121.008 53.2751 124.487 51.1614 128.442C49.5591 131.478 48.5363 134.786 46.9681 137.821C44.4112 142.868 39.6042 142.663 34.5245 141.981C26.8539 140.958 19.49 140.447 11.9898 142.868C11.4784 143.038 11.0011 143.209 10.4897 143.379C21.3992 141.674 33.3313 144.982 43.6271 147.676C55.3888 150.745 68.446 155.281 80.0713 149.484C89.4125 144.812 99.8105 135.058 101.242 124.146C102.367 116.097 94.5604 111.63 87.6397 110.13Z" fill="#52672E"/>
</g>
<path d="M207.473 36.6394C207.609 36.503 207.507 36.3324 207.337 36.3324C207.166 35.9232 206.859 35.5481 206.382 35.2071C205.018 34.184 202.734 34.3886 201.336 35.173C200.586 35.6163 199.836 36.1619 199.155 36.7076C198.745 37.0486 198.336 37.4237 197.961 37.833C197.586 38.2081 197.518 38.6173 197.211 39.0606C197.109 39.2311 197.314 39.3676 197.45 39.3335C186.166 48.1318 179.245 60.7497 174.642 74.186C171.472 83.4277 168.949 92.8058 167.517 102.457C166.801 107.129 166.358 111.835 166.085 116.507C165.813 120.838 165.404 125.408 165.881 129.739C163.869 132.842 169.563 134.308 171.54 134.342C173.517 134.377 175.938 133.524 177.063 131.887C177.302 131.717 177.506 131.478 177.54 131.103C177.54 131.035 177.54 130.966 177.54 130.864C177.677 130.421 177.745 129.943 177.677 129.398C177.677 129.295 177.643 129.227 177.608 129.159C177.711 125.544 177.404 121.861 177.472 118.246C177.54 113.676 177.711 109.073 178.052 104.537C178.665 95.841 180.745 87.2813 183.131 78.9262C185.586 70.2983 188.484 62.1138 193.12 54.4067C196.086 49.4618 199.734 44.9944 203.621 40.7657C205.871 40.868 208.121 38.6514 207.473 36.6394Z" fill="#52672E"/>
<path d="M149.96 77.8006C143.619 68.1838 133.084 57.2369 120.811 58.3623C120.709 57.7485 119.754 57.4415 119.516 58.1577C119.141 58.2941 118.766 58.4646 118.425 58.601C118.254 58.6351 118.118 58.7033 118.016 58.8398C117.47 58.9762 116.89 59.1126 116.345 59.3172C115.902 59.4536 116.14 60.1356 116.584 60.0674C116.959 59.9992 117.3 59.9992 117.675 59.931C117.743 60.2038 117.879 60.4426 118.152 60.579C125.959 64.3643 132.641 69.0363 138.266 75.6522C143.789 82.1316 147.675 89.8046 150.676 97.7164C152.073 101.365 153.164 105.117 154.119 108.868C155.005 112.312 154.801 116.302 156.403 119.508C157.528 121.724 160.392 122.509 162.199 121.895C162.233 122.065 162.233 122.27 162.267 122.441C162.403 123.361 163.665 123.191 163.801 122.338C165.983 107.163 158.142 90.1798 149.96 77.8006Z" fill="#52672E"/>
<path d="M207.473 36.6394C207.609 36.503 207.507 36.3324 207.337 36.3324C207.166 35.9232 206.859 35.5481 206.382 35.2071C205.018 34.184 202.734 34.3886 201.336 35.173C200.586 35.6163 199.836 36.1619 199.155 36.7076C198.745 37.0486 198.336 37.4237 197.961 37.833C197.586 38.2081 197.518 38.6173 197.211 39.0606C197.109 39.2311 197.314 39.3676 197.45 39.3335C186.166 48.1318 179.245 60.7497 174.642 74.186C171.472 83.4277 168.949 92.8058 167.517 102.457C166.801 107.129 166.358 111.835 166.085 116.507C165.813 120.838 165.404 125.408 165.881 129.739C163.869 132.842 169.563 134.308 171.54 134.342C173.517 134.377 175.938 133.524 177.063 131.887C177.302 131.717 177.506 131.478 177.54 131.103C177.54 131.035 177.54 130.966 177.54 130.864C177.677 130.421 177.745 129.943 177.677 129.398C177.677 129.295 177.643 129.227 177.608 129.159C177.711 125.544 177.404 121.861 177.472 118.246C177.54 113.676 177.711 109.073 178.052 104.537C178.665 95.841 180.745 87.2813 183.131 78.9262C185.586 70.2983 188.484 62.1138 193.12 54.4067C196.086 49.4618 199.734 44.9944 203.621 40.7657C205.871 40.868 208.121 38.6514 207.473 36.6394ZM182.245 74.4929C179.381 83.8369 177.131 93.2833 175.972 102.968C175.427 107.64 175.12 112.381 174.983 117.053C174.847 121.111 174.608 125.374 175.086 129.466C174.37 130.728 173.688 131.307 171.983 131.512C171.199 131.614 170.449 131.546 169.699 131.376C168.881 131.171 168.54 130.83 168.165 130.352C168.574 126.226 168.301 121.997 168.472 117.837C168.676 113.267 168.983 108.698 169.461 104.162C170.347 95.4999 172.733 87.0085 175.358 78.7216C178.086 70.196 181.222 62.0797 186.097 54.509C190.257 48.0636 195.541 42.4709 201.064 37.1509C201.098 37.1168 201.132 37.0486 201.098 37.0145C202.121 36.503 203.246 36.3324 204.371 36.6394C206.996 37.3555 203.28 38.7196 202.7 39.2653C202.461 39.504 202.393 39.8791 202.461 40.186C192.37 49.2572 186.268 61.534 182.245 74.4929Z" fill="#3C4B20"/>
<path d="M149.96 77.8006C143.619 68.1838 133.084 57.2369 120.811 58.3623C120.709 57.7485 119.754 57.4415 119.516 58.1577C119.141 58.2941 118.766 58.4646 118.425 58.601C118.254 58.6351 118.118 58.7033 118.016 58.8398C117.47 58.9762 116.89 59.1126 116.345 59.3172C115.902 59.4536 116.14 60.1356 116.584 60.0674C116.959 59.9992 117.3 59.9992 117.675 59.931C117.743 60.2038 117.879 60.4426 118.152 60.579C125.959 64.3643 132.641 69.0363 138.266 75.6522C143.789 82.1316 147.675 89.8046 150.676 97.7164C152.073 101.365 153.164 105.117 154.119 108.868C155.005 112.312 154.801 116.302 156.403 119.508C157.528 121.724 160.392 122.509 162.199 121.895C162.233 122.065 162.233 122.27 162.267 122.441C162.403 123.361 163.665 123.191 163.801 122.338C165.983 107.163 158.142 90.1798 149.96 77.8006ZM158.278 118.007C157.528 116.541 157.528 114.597 157.323 112.994C156.948 109.959 156.028 106.992 155.21 104.093C153.369 97.7505 150.778 91.6462 147.607 85.8488C141.743 75.1065 132.845 65.0464 121.595 59.7605C133.732 60.272 142.834 70.3663 149.244 80.3583C152.516 85.4395 155.278 90.93 157.392 96.591C158.926 100.649 160.051 104.878 160.869 109.141C161.449 112.176 161.585 115.245 161.824 118.28C161.074 119.985 159.13 119.712 158.278 118.007Z" fill="#3C4B20"/>
<path d="M264.781 142.288C263.452 135.127 259.395 128.75 254.86 123.191C250.701 118.076 245.621 113.54 239.894 110.266C235.564 107.811 230.757 107.743 225.95 108.527C217.393 109.925 205.666 116.132 206.484 126.09C203.143 124.248 198.745 125.101 195.131 126.158C189.029 127.931 183.608 131.648 179.722 136.627C171.369 147.369 175.051 160.567 182.142 170.764C189.847 181.813 202.052 188.088 214.155 193.169C220.462 195.829 226.837 198.352 233.144 201.081C239.894 204.013 244.156 208.106 247.906 214.381C248.008 214.585 248.212 214.653 248.349 214.619C248.485 214.994 248.622 215.369 248.792 215.745C248.928 216.052 249.337 215.881 249.303 215.574C248.928 210.459 249.269 206.298 250.974 201.422C252.372 197.398 253.94 193.476 255.44 189.486C258.338 181.711 261.201 173.833 263.145 165.751C264.952 158.214 266.213 149.995 264.781 142.288Z" fill="#52672E"/>
<path d="M231.201 185.53C232.121 183.961 233.008 181.915 232.053 180.312C231.167 178.88 229.326 178.982 227.962 179.562C226.53 180.176 225.439 181.54 225.132 183.041C224.689 185.36 226.428 187.337 228.167 188.565C228.917 189.111 229.803 188.736 230.178 187.985C230.519 187.269 230.86 186.553 231.03 185.803C231.099 185.701 231.167 185.598 231.201 185.53Z" fill="#3C4B20"/>
<path d="M238.36 188.054C238.292 187.917 238.155 187.849 238.087 187.747C238.121 187.713 238.189 187.644 238.224 187.576C238.735 186.86 237.542 186.076 237.098 186.86C237.098 186.894 236.928 186.928 236.792 186.962C236.348 186.86 235.871 186.826 235.428 186.928C234.405 187.201 234.439 188.361 235.053 188.906C235.019 189.35 235.087 189.793 235.155 190.202C235.326 191.157 236.485 191.532 237.133 190.782C237.542 190.27 237.951 189.725 238.326 189.213C238.564 188.906 238.564 188.395 238.36 188.054Z" fill="#3C4B20"/>
<path d="M230.178 163.704C230.11 163.193 229.53 162.852 229.053 162.954C228.507 163.022 228.2 163.5 228.064 163.977C227.894 163.943 227.723 163.875 227.519 163.909C227.246 163.909 227.178 164.284 227.45 164.352C227.723 164.455 227.928 165.103 228.03 165.341C228.269 165.819 228.303 165.989 228.814 166.228C229.155 166.364 229.598 166.194 229.803 165.887C230.212 165.137 230.246 164.557 230.178 163.704Z" fill="#3C4B20"/>
<path d="M250.735 146.653C248.588 144.778 243.099 144.198 242.894 148.12C242.724 151.189 245.69 153.406 248.519 153.747C249.747 154.633 251.076 154.906 252.133 153.372C253.667 151.257 252.542 148.222 250.735 146.653Z" fill="#3C4B20"/>
<path d="M254.929 161.965C253.872 161.999 252.508 161.897 251.724 162.681C251.281 163.125 251.417 163.977 251.997 164.216C252.133 164.284 252.27 164.318 252.406 164.352C252.338 164.421 252.27 164.489 252.236 164.523C252.133 164.727 252.099 164.966 252.099 165.239C252.133 165.716 252.474 166.092 252.849 166.399C253.258 166.74 253.94 166.603 254.281 166.16C254.963 165.205 256.258 164.08 256.156 162.852C256.122 162.238 255.474 161.931 254.929 161.965Z" fill="#3C4B20"/>
<path d="M264.781 142.288C263.452 135.127 259.395 128.75 254.86 123.191C250.701 118.076 245.621 113.54 239.894 110.266C235.564 107.811 230.757 107.743 225.95 108.527C217.393 109.925 205.666 116.132 206.484 126.09C203.143 124.248 198.745 125.101 195.131 126.158C189.029 127.931 183.608 131.648 179.722 136.627C171.369 147.369 175.051 160.567 182.142 170.764C189.847 181.813 202.052 188.088 214.155 193.169C220.462 195.829 226.837 198.352 233.144 201.081C239.894 204.013 244.156 208.106 247.906 214.381C248.008 214.585 248.212 214.653 248.349 214.619C248.485 214.994 248.622 215.369 248.792 215.745C248.928 216.052 249.337 215.881 249.303 215.574C248.928 210.459 249.269 206.298 250.974 201.422C252.372 197.398 253.94 193.476 255.44 189.486C258.338 181.711 261.201 173.833 263.145 165.751C264.952 158.214 266.213 149.995 264.781 142.288ZM258.61 173.765C256.565 180.722 253.906 187.508 251.349 194.294C249.406 199.512 247.053 205.343 247.565 211.004C246.167 207.867 244.156 205.036 241.394 202.888C237.03 199.478 231.542 197.5 226.462 195.386C215.757 190.918 204.745 187.065 195.234 180.244C185.211 173.049 175.835 160.635 177.676 147.711C178.563 141.402 182.722 136.116 187.768 132.535C192.881 128.886 202.018 125.135 207.745 129.057C208.223 129.363 208.802 128.92 208.836 128.409C235.905 145.323 236.758 175.572 246.099 204.798C246.303 205.412 247.121 205.139 247.053 204.525C245.758 195.522 243.269 186.519 240.951 177.755C239.178 170.934 237.133 164.182 234.473 157.6C229.36 145.016 220.939 133.49 208.529 127.624C208.564 127.556 208.564 127.488 208.564 127.42C207.541 116.098 221.587 110.744 230.826 110.505C236.314 110.369 240.644 113.301 244.803 116.643C250.19 120.974 254.792 126.465 258.27 132.467C265.702 145.119 262.531 160.431 258.61 173.765Z" fill="#3C4B20"/>
<g opacity="0.3">
<path opacity="0.3" d="M225.712 149.859C225.473 149.177 226.36 148.597 226.905 149.075C234.712 156.031 236.826 166.467 240.03 175.947C243.951 187.61 245.758 199.819 248.963 211.652C248.792 207.492 247.974 203.297 247.428 199.171C246.61 193.101 246.065 186.996 245.247 180.926C243.542 168.479 238.633 157.634 234.508 145.937C234.337 145.46 234.678 145.051 235.155 144.982C240.235 144.13 246.133 146.415 250.599 148.631C255.065 150.848 258.883 154.19 261.372 158.521C262.292 160.09 263.042 161.727 263.724 163.398C265.224 156.509 266.111 149.211 264.815 142.288C263.486 135.127 259.429 128.75 254.895 123.191C250.735 118.076 245.656 113.54 239.928 110.266C235.599 107.811 230.792 107.743 225.985 108.527C217.428 109.925 205.7 116.132 206.518 126.09C203.177 124.248 198.779 125.101 195.166 126.158C189.063 127.931 183.642 131.648 179.756 136.627C171.403 147.369 175.085 160.567 182.177 170.764C189.779 181.711 201.813 187.951 213.78 192.998C224.723 182.222 230.655 164.114 225.712 149.859Z" fill="#52672E"/>
</g>
<path d="M297.646 27.6363C296.759 27.0566 295.873 26.5451 294.953 26.0676C295.668 25.8289 295.566 24.7035 294.748 24.4989C294.203 24.3625 293.657 24.2943 293.112 24.2943C286.395 19.1108 278.554 15.2913 271.122 11.2331C262.633 6.59522 253.701 2.84397 244.053 1.47987C226.326 -1.00959 205.768 -0.941389 189.063 6.2883C177.438 11.3013 164.108 23.51 173.517 36.5029C177.063 41.4137 188.415 47.6203 195.643 45.8129C195.609 46.2221 195.575 46.6313 195.609 47.0746C195.643 47.4838 196.086 47.6544 196.427 47.518C196.086 50.4508 196.188 53.3836 197.109 56.2823C198.984 62.1479 204.643 65.4558 210.132 67.3314C220.871 70.9803 234.269 69.6503 244.906 66.3424C254.963 63.2391 263.418 56.6915 270.577 49.189C274.532 45.0626 278.213 40.6975 281.793 36.2642C284.964 32.3083 288.646 26.852 294.1 26.1699C295.259 26.6815 296.419 27.2271 297.509 27.8409C297.612 27.9433 297.782 27.7045 297.646 27.6363Z" fill="#668439"/>
<path d="M231.371 41.1748C231.167 40.902 230.86 40.6974 230.485 40.7315C229.803 40.7656 229.121 40.8679 228.473 41.0384C227.451 40.8679 226.428 40.8338 225.473 41.3112C224.144 41.9592 223.598 43.4938 223.36 44.8579C223.257 45.4376 223.7 45.8809 224.178 46.0856C227.485 47.6543 230.826 46.3584 232.223 42.9481C232.53 42.1638 232.155 41.3112 231.371 41.1748Z" fill="#485C2A"/>
<path d="M240.269 50.6892C240.235 50.6892 240.201 50.6892 240.167 50.6892C240.303 50.1095 239.587 49.4274 239.008 49.7344C238.053 50.28 237.303 51.0302 236.315 51.5077C235.735 51.8828 235.667 52.4966 235.871 52.9741C235.599 54.0312 236.894 54.8838 237.747 54.1336C237.917 53.9972 237.746 54.0995 238.019 53.963C238.292 53.7925 238.599 53.6561 238.872 53.5197C239.144 53.3833 239.417 53.281 239.724 53.1787C239.86 53.1105 239.997 53.0764 240.133 53.0423C240.167 53.0423 240.542 53.0082 240.269 53.0082C241.769 52.94 241.769 50.6892 240.269 50.6892Z" fill="#485C2A"/>
<path d="M268.088 24.3964C268.054 24.0212 267.747 23.6802 267.338 23.6461C266.963 23.612 266.588 23.7484 266.281 23.9189C266.11 23.7484 265.872 23.6802 265.633 23.7825C265.224 23.9189 264.849 24.1236 264.474 24.2941C263.997 24.2941 263.485 24.2941 263.008 24.26C262.156 24.2259 261.679 24.8738 261.713 25.5558C261.133 25.8969 261.031 26.4425 261.031 27.1246C261.031 27.6361 261.542 28.1135 262.019 28.1817C263.076 28.3181 264.201 28.5228 265.258 28.284C266.451 28.0112 267.474 27.1928 268.429 26.4766C269.145 25.9651 268.94 24.6351 268.088 24.3964Z" fill="#485C2A"/>
<path d="M252.133 24.9763C251.996 24.9763 251.86 24.9763 251.724 24.9763C251.655 24.9422 251.587 24.9422 251.519 24.9763C250.905 25.0104 250.292 25.1809 249.815 25.6242C249.678 25.7606 249.576 25.9311 249.542 26.1357C249.44 26.2722 249.337 26.4086 249.269 26.5791C248.758 27.4316 250.019 28.4206 250.769 27.8068C251.076 27.5339 251.655 27.2611 252.03 27.1929C252.576 27.1247 252.917 26.7837 252.917 26.238C252.917 26.1016 252.917 25.9311 252.917 25.7947C252.917 25.4196 252.508 25.0104 252.133 24.9763Z" fill="#485C2A"/>
<path d="M256.258 29.6823C256.258 29.6482 256.258 29.58 256.258 29.5459C256.19 28.8979 255.202 28.6592 255.065 29.4095C254.895 30.1938 254.383 30.8759 254.315 31.6602C254.281 32.4446 254.997 32.8197 255.679 32.6151C256.497 32.3423 258.372 32.0354 258.474 30.91C258.611 29.58 257.077 29.921 256.258 29.6823Z" fill="#485C2A"/>
<path d="M197.859 10.4145C197.518 10.4145 197.177 10.4486 196.836 10.4486C196.802 10.2098 196.597 10.0393 196.325 10.0734C195.711 10.1416 195.336 10.0734 194.722 10.2098C194.313 10.3121 193.972 10.4486 193.597 10.6532C193.188 10.8578 192.813 11.1306 192.472 11.4716C192.37 11.5398 192.268 11.5398 192.165 11.608C191.62 11.9149 191.415 12.4947 191.552 13.0062C191.518 13.6883 192.063 14.3021 192.779 14.3021C193.802 14.3021 194.824 14.4044 195.813 14.1998C196.802 13.9952 197.722 13.2108 198.506 12.6652C199.461 12.0173 199.154 10.4145 197.859 10.4145Z" fill="#485C2A"/>
<path d="M206.177 10.7897C205.666 10.5169 205.154 10.3464 204.643 10.21C204.643 10.0736 204.677 9.93717 204.677 9.83486C204.711 9.56205 204.37 9.52795 204.234 9.69846C204.132 9.86898 203.961 9.97128 203.757 10.0395C203.075 9.93717 202.12 9.76666 201.677 10.4487C201.438 10.8238 201.472 11.1649 201.677 11.4718C201.643 11.5059 201.643 11.5059 201.609 11.54C201.234 12.0856 201.711 13.0746 202.393 13.1087C203.654 13.1769 204.813 13.0746 205.973 12.6313C206.723 12.3584 206.859 11.1649 206.177 10.7897Z" fill="#485C2A"/>
<path d="M201.848 17.0986C201.711 16.928 201.541 16.7916 201.302 16.7575C200.859 16.6552 200.552 16.8939 200.279 17.235C199.973 17.6101 199.495 18.6332 199.734 19.1788C200.007 19.8267 200.995 20.2701 201.507 19.5539C201.814 19.1447 201.95 18.6673 202.12 18.1898C202.325 17.7124 202.155 17.3373 201.848 17.0986Z" fill="#485C2A"/>
<path d="M191.654 29.8527C190.12 30.2279 188.722 30.8758 187.665 32.1035C187.325 32.5127 187.086 32.9901 186.881 33.5017C186.54 33.945 186.199 34.4224 185.927 34.8999C185.62 35.3773 185.893 36.0593 186.37 36.3663C186.37 36.4345 186.37 36.5027 186.37 36.5709C186.336 37.3893 187.325 37.9691 188.075 37.7304C189.745 37.1506 191.211 35.8206 191.62 34.1496C192.268 33.3994 192.745 32.5127 193.154 31.5578C193.563 30.5689 192.711 29.614 191.654 29.8527Z" fill="#7E9C3D"/>
<path d="M201.03 29.5801C200.518 29.8188 199.973 30.0575 199.427 30.2962C197.791 30.569 196.154 32.1719 195.37 33.3995C194.893 34.1498 195.609 35.1729 196.461 35.1047C199.189 34.9 200.859 33.3313 202.53 31.3193C203.314 30.3985 202.052 29.0685 201.03 29.5801Z" fill="#7E9C3D"/>
<path d="M193.734 25.7946C193.597 25.9992 193.393 26.3743 193.188 26.5107C193.018 26.6131 192.677 26.6472 192.472 26.7836C192.199 26.92 192.097 27.2269 192.165 27.5338C192.199 27.6702 192.268 27.7384 192.336 27.8407C192.302 27.8748 192.268 27.943 192.234 27.9771C191.688 29.0684 193.154 30.0233 193.938 29.1366C194.62 28.3864 195.029 27.5679 195.472 26.7154C196.052 25.59 194.415 24.8056 193.734 25.7946Z" fill="#7E9C3D"/>
<path d="M183.779 24.7716C183.54 24.8057 183.302 24.8739 183.029 24.9762C182.824 24.9421 182.654 24.9421 182.449 25.1126C182.347 25.2149 182.245 25.3172 182.142 25.4195C181.767 25.6583 181.461 25.9311 181.29 26.238C181.222 26.3403 181.188 26.4767 181.154 26.6131C181.12 26.6472 181.086 26.6813 181.086 26.7154C180.711 27.227 180.608 27.9431 180.745 28.5229C180.915 29.3413 182.074 29.5459 182.756 29.58C183.404 29.58 183.915 29.2049 183.983 28.557C183.949 28.898 184.052 28.3865 184.12 28.2841C184.256 27.9772 184.393 27.7044 184.529 27.3975C184.768 26.9541 185.006 26.4767 185.074 25.9652C185.211 25.1808 184.461 24.7034 183.779 24.7716Z" fill="#7E9C3D"/>
<path d="M229.428 57.2713C229.428 57.1349 229.428 56.9643 229.394 56.8279C229.326 56.1459 228.678 55.7708 228.064 55.8049C226.462 55.839 225.098 56.3846 224.041 57.2713C223.701 57.4759 223.326 57.6805 222.985 57.9192C222.644 58.192 222.541 58.5672 222.61 58.9764C222.61 58.9764 222.61 58.9764 222.61 59.0105C222.269 59.2833 221.996 59.5902 221.689 59.9994C221.382 60.4769 221.485 61.0907 221.894 61.4999C222.098 61.9774 222.61 62.3866 223.121 62.3184C223.155 62.3184 223.155 62.3184 223.189 62.3184C224.553 62.9322 226.121 63.0687 227.451 62.2161C228.814 61.3635 229.292 59.7607 229.394 58.2261C229.53 57.8851 229.53 57.5782 229.428 57.2713Z" fill="#7E9C3D"/>
<path d="M218.757 54.884C218.007 55.1227 217.223 55.3274 216.541 55.7366C215.62 56.2822 214.939 57.203 214.223 57.9874C213.95 58.2943 213.882 58.7376 213.95 59.1127C213.95 59.1468 213.95 59.1468 213.95 59.1809C213.916 59.8289 214.7 60.4768 215.348 60.2381C215.416 60.204 215.484 60.1699 215.552 60.1358C215.995 60.1699 216.439 60.0676 216.848 59.7266C217.018 59.5902 217.155 59.4197 217.257 59.215C217.359 59.1468 217.461 59.1127 217.53 59.0445C218.45 58.3625 219.098 57.4417 219.814 56.5891C220.53 55.7707 219.78 54.5771 218.757 54.884Z" fill="#7E9C3D"/>
<path d="M239.11 12.563C238.905 12.1879 238.496 11.9492 238.087 11.9151C238.019 11.881 237.985 11.881 237.917 11.8469C236.894 11.574 235.905 11.9492 235.053 12.5971C234.678 12.6312 234.303 12.6653 233.962 12.7335C232.564 13.0745 231.61 14.3022 231.166 15.5981C231.03 16.0756 231.098 16.6553 231.541 16.9281C233.314 18.0876 235.701 19.213 237.848 18.3263C239.246 17.7466 240.03 16.3143 239.996 14.8138C239.962 13.9612 239.689 13.1428 239.11 12.563Z" fill="#7E9C3D"/>
<path d="M229.53 17.6102C228.473 17.883 227.417 17.9853 226.394 18.2922C225.337 18.5992 224.382 19.2471 223.496 19.8268C222.61 20.4066 223.019 21.6002 223.871 21.9071C223.905 22.5891 224.587 23.1348 225.337 22.862C227.348 22.1799 229.053 20.7476 230.451 19.213C231.064 18.5651 230.348 17.3715 229.53 17.6102Z" fill="#7E9C3D"/>
<path d="M227.314 9.28912C226.769 9.45963 226.155 9.66425 225.848 10.2099C225.644 10.244 225.473 10.3122 225.303 10.5168C224.621 11.4376 224.996 12.6312 226.189 12.8017C227.485 13.0063 228.132 11.4035 228.337 10.4145C228.473 9.86886 227.996 9.08451 227.314 9.28912Z" fill="#7E9C3D"/>
<path d="M263.417 14.7456C262.667 14.4046 261.781 14.0977 260.963 14.4046C260.622 14.541 260.349 14.7797 260.11 15.0526C260.042 15.1549 259.94 15.3254 259.906 15.4618C259.804 15.4959 259.633 15.53 259.497 15.5982C259.019 15.7346 258.644 16.0415 258.61 16.5531C258.576 16.86 258.576 17.1328 258.576 17.4397C258.576 18.0877 259.258 18.7356 259.94 18.531C261.269 18.0536 262.394 17.3374 263.52 16.519C264.099 16.1097 264.201 15.0867 263.417 14.7456Z" fill="#7E9C3D"/>
<path d="M276.884 29.8869C276.543 29.8869 276.202 29.8869 275.861 29.8528C275.759 29.6823 275.656 29.5118 275.52 29.4095C275.179 29.1026 274.565 29.1708 274.361 29.58C274.327 29.6823 274.293 29.7505 274.259 29.8528C273.85 29.8869 273.44 29.9892 273.065 30.1938C272.384 30.569 271.94 31.251 271.599 31.9672C271.19 32.3764 270.849 32.8538 270.577 33.5359C270.304 34.2179 270.849 35.1387 271.599 35.1387C271.668 35.1387 271.702 35.1387 271.77 35.1387C271.906 35.1728 272.077 35.2069 272.213 35.1728C272.554 35.1387 272.895 35.1046 273.202 35.0364C273.884 34.9341 274.565 34.7977 275.213 34.4225C276.338 33.8087 277.088 32.6833 277.77 31.6261C278.247 30.9441 277.77 29.8528 276.884 29.8869Z" fill="#7E9C3D"/>
<path d="M266.145 32.581C265.872 32.5128 265.565 32.5128 265.293 32.4787C265.327 32.3764 265.395 32.24 265.395 32.1377C265.531 31.0464 263.656 30.7736 263.486 31.8649C263.486 31.9672 263.281 32.3082 263.145 32.5128C263.043 32.6492 262.94 32.8197 262.804 32.9562C262.736 33.0244 262.668 33.0584 262.599 33.1608C262.565 33.1949 262.565 33.229 262.531 33.2631C262.463 33.3654 262.361 33.4677 262.293 33.5359C261.713 34.1156 261.952 35.3774 262.906 35.3092C264.065 35.241 265.293 34.9341 266.384 34.4567C267.202 34.1156 266.997 32.7515 266.145 32.581Z" fill="#7E9C3D"/>
<path d="M278.555 26.6132C278.214 26.4086 277.839 26.2722 277.464 26.1698C276.679 25.897 276.168 26.6814 275.759 27.1929C274.634 28.557 276.952 29.7506 277.464 28.216C277.566 27.875 277.464 27.7385 277.77 27.4998C277.804 27.4657 278.248 27.4998 278.248 27.4998C278.759 27.4998 278.964 26.8178 278.555 26.6132Z" fill="#7E9C3D"/>
<path d="M291.884 85.6443C289.157 79.8469 283.771 75.2431 278.827 71.3554C273.679 67.2631 267.713 64.5349 261.065 64.9783C254.827 65.3875 243.167 69.0024 242.144 76.3684C232.224 70.1277 219.269 69.7867 208.393 73.5721C199.632 76.6072 194.484 83.0866 190.836 90.6573C188.927 93.4878 187.12 96.3524 185.961 99.5921C184.665 103.241 185.006 107.231 186.131 110.88C189.234 121.213 198.814 127.556 208.257 131.375C219.848 136.116 232.258 138.435 244.326 141.47C250.326 143.004 256.292 144.675 262.088 146.96C266.895 148.87 270.611 151.052 273.134 155.69C273.236 155.861 273.475 155.861 273.645 155.793C273.748 156.168 274.293 156.066 274.259 155.69C274.02 148.904 279.509 142.527 283.123 137.309C286.634 132.228 289.328 126.703 291.441 120.906C295.43 109.755 297.066 96.6593 291.884 85.6443Z" fill="#668439"/>
<path d="M254.928 116.473C254.315 116.302 253.769 116.575 253.497 117.052C253.428 117.052 253.326 117.018 253.258 117.018C252.815 116.984 252.269 117.155 252.133 117.632C250.837 121.827 252.542 125.578 257.11 126.124C257.622 126.192 257.997 125.748 258.167 125.339C259.531 121.827 258.951 117.666 254.928 116.473Z" fill="#485C2A"/>
<path d="M220.121 103.855C219.234 103.889 218.723 104.571 218.416 105.424C218.075 105.424 217.768 105.731 217.7 106.072C217.496 106.856 217.666 107.47 218.007 107.981C218.007 108.22 218.007 108.459 218.007 108.629C218.007 109.652 219.268 109.755 219.848 109.175C220.155 109.277 220.462 109.345 220.768 109.414C221.246 109.482 221.689 109.141 221.757 108.663C221.962 107.333 222.303 103.787 220.121 103.855Z" fill="#485C2A"/>
<path d="M227.007 101.365C226.632 101.229 226.291 101.058 225.916 100.922C225.235 100.683 224.689 101.4 224.655 102.013C224.621 102.627 224.45 103.173 224.484 103.787C224.519 104.06 224.689 104.298 224.928 104.435C225.098 104.673 225.371 104.878 225.746 105.048C226.189 105.253 226.837 104.912 226.973 104.435C227.007 104.23 227.075 103.991 227.144 103.787C227.212 103.582 227.246 103.412 227.314 103.241C227.348 103.207 227.348 103.173 227.348 103.139C227.996 102.73 227.757 101.638 227.007 101.365Z" fill="#485C2A"/>
<path d="M205.018 86.7013C204.711 86.8036 204.438 86.9059 204.166 87.0423C203.825 86.9741 203.484 87.0764 203.245 87.4856C202.495 88.7815 202.359 90.7935 204.37 90.8959C204.916 90.93 205.461 90.5548 205.461 89.9751C205.495 89.3953 205.598 88.7474 206.007 88.3041C206.552 87.6561 205.87 86.4625 205.018 86.7013Z" fill="#485C2A"/>
<path d="M283.736 95.329C283.327 94.1355 282.27 93.2488 280.975 93.3852C280.327 93.4534 279.85 93.7944 279.509 94.2378C279.338 94.2037 279.168 94.2037 279.032 94.2037C278.316 94.1355 278.009 95.1244 278.486 95.5678C278.623 95.6701 278.725 95.8065 278.827 95.9429C278.793 96.2839 278.827 96.659 278.929 97.0001C278.861 97.4434 278.793 97.8867 278.861 98.3301C279.134 99.967 280.839 100.41 282.27 100.581C282.782 100.649 283.327 100.24 283.464 99.7282C283.907 98.3642 284.214 96.7613 283.736 95.329Z" fill="#485C2A"/>
<path d="M276.952 83.8369C276.441 83.5981 275.657 83.4958 274.941 83.5982C274.497 83.4276 273.952 83.7005 273.816 84.1779C273.713 84.2802 273.645 84.4507 273.577 84.5871C273.441 84.9622 273.509 85.2691 273.679 85.5079C273.679 85.5079 273.679 85.5079 273.679 85.542C273.679 85.7807 273.679 85.9853 273.747 86.224C273.816 86.5991 274.191 86.9061 274.463 87.1107C274.838 87.3494 275.384 87.2812 275.725 86.9743C276.236 86.4627 276.747 85.9853 277.225 85.4738C277.668 85.0304 277.566 84.1097 276.952 83.8369Z" fill="#485C2A"/>
<path d="M284.247 88.4748C284.213 88.3384 284.179 88.202 284.145 88.0997C284.077 87.8951 284.043 87.7245 283.975 87.5199C283.668 86.3263 281.759 86.7015 282.1 87.895C282.168 88.202 282.27 88.4748 282.372 88.7817C282.372 88.8158 282.372 88.8499 282.372 88.8499C282.407 88.9181 282.407 88.9863 282.441 89.0886C282.85 90.1117 284.52 89.4979 284.247 88.4748Z" fill="#485C2A"/>
<path d="M234.2 79.3354C234.064 79.4036 233.859 79.5059 233.689 79.6082C233.28 79.4377 232.871 79.4036 232.428 79.4036C232.325 79.3695 232.223 79.3695 232.121 79.4036C230.893 79.6423 229.803 79.9834 228.746 80.6313C228.234 80.9382 228.166 81.6203 228.439 82.0977C228.473 82.1318 228.507 82.2 228.507 82.2341C228.575 82.4728 228.678 82.6774 228.882 82.848C228.916 82.848 228.916 82.882 228.95 82.9161C229.803 84.1438 230.928 85.201 232.496 85.201C233.655 85.2351 234.61 84.2461 234.985 83.2572C235.019 83.2231 235.019 83.189 235.019 83.1549C235.053 83.0526 235.087 82.9503 235.121 82.848C235.223 82.4728 235.325 82.0636 235.462 81.6885C235.564 81.3474 235.53 81.4156 235.632 81.3133C236.791 80.3926 235.36 78.7557 234.2 79.3354Z" fill="#7E9C3D"/>
<path d="M211.052 86.7012C210.916 86.9058 210.711 87.1786 211.052 86.7012V86.7012Z" fill="#7E9C3D"/>
<path d="M211.393 82.6773C210.643 82.8819 210.098 83.3593 209.723 84.0073C209.518 84.3483 209.45 84.7575 209.28 85.0985C209.246 84.928 209.212 84.7575 209.109 84.6211C209.041 84.5188 208.837 84.4506 208.734 84.5188C208.155 84.7916 207.95 85.6101 207.712 86.1557C207.405 86.8037 207.984 87.8267 208.768 87.4857C209.041 87.3834 209.348 87.2811 209.655 87.1788C210.2 87.3834 210.746 87.1788 211.087 86.7014C211.121 86.6672 211.121 86.6332 211.155 86.599C211.223 86.5308 211.257 86.4285 211.291 86.3262C211.905 85.7124 212.348 84.7916 212.757 84.1096C213.269 83.2229 212.178 82.4727 211.393 82.6773Z" fill="#7E9C3D"/>
<path d="M237.065 117.666C236.86 117.291 236.417 117.052 236.008 117.189C235.735 117.052 235.36 116.984 235.087 116.916C235.019 116.916 234.917 116.882 234.849 116.882C234.644 116.711 234.371 116.677 234.167 116.814C234.064 116.814 233.962 116.814 233.86 116.848C233.519 116.814 233.11 116.916 232.974 117.325C232.939 117.393 232.905 117.462 232.871 117.53C232.871 117.53 232.871 117.53 232.871 117.564V117.598C232.258 119.064 231.439 120.906 232.394 122.406C233.008 123.327 234.269 123.293 235.189 122.986C236.11 122.645 236.928 122.065 237.678 121.452C238.394 120.838 239.212 120.122 239.451 119.201C239.792 117.666 238.258 117.564 237.065 117.666Z" fill="#7E9C3D"/>
<path d="M252.849 96.5571C252.747 95.8409 252.474 95.0907 252.201 94.4086C252.031 94.0335 251.86 93.7266 251.451 93.4879C250.906 93.1809 250.326 93.4197 250.019 93.8971C249.712 93.9312 249.44 94.1358 249.371 94.4427C249.303 94.4769 249.235 94.5109 249.167 94.5451C248.792 95.1589 248.656 95.8068 248.724 96.4207C248.587 96.6253 248.485 96.864 248.349 97.0686C247.803 98.1258 249.201 99.217 250.121 98.5009C250.292 98.3645 250.428 98.2622 250.565 98.0917C250.803 98.1599 251.076 98.194 251.349 98.2281C251.758 98.3986 252.201 98.3304 252.508 98.0235C252.951 97.6483 252.917 97.1027 252.849 96.5571Z" fill="#7E9C3D"/>
<path d="M228.235 114.938C228.167 114.768 227.928 114.665 227.723 114.699C227.348 114.768 227.007 114.938 226.803 115.279C226.769 115.313 226.769 115.347 226.769 115.416C226.632 115.484 226.462 115.586 226.36 115.688C226.121 115.927 226.087 116.302 226.155 116.609C226.155 116.575 226.121 116.541 226.121 116.609C226.121 116.643 226.121 116.643 226.121 116.643C226.121 116.643 226.121 116.677 226.121 116.78C226.121 116.814 226.121 116.814 226.121 116.848C225.882 117.325 225.746 117.803 225.848 118.382C226.019 119.371 226.769 119.644 227.689 119.712C228.098 119.747 228.542 119.576 228.712 119.167C229.053 118.178 229.292 117.121 229.564 116.098C229.735 115.347 228.917 114.665 228.235 114.938Z" fill="#7E9C3D"/>
<path d="M233.553 110.164C232.564 110.402 231.883 110.846 231.576 111.869C231.508 112.107 231.508 112.346 231.508 112.585C231.508 112.585 231.508 112.619 231.508 112.653C231.473 112.687 231.439 112.755 231.405 112.824C231.337 112.994 231.303 113.165 231.303 113.335C231.303 113.369 231.303 113.369 231.303 113.369C231.303 113.437 231.269 113.471 231.269 113.54C231.235 114.017 231.576 114.597 232.121 114.597C232.496 114.597 232.871 114.631 233.178 114.392C233.485 114.154 233.689 113.744 233.86 113.369C234.201 112.721 234.576 111.903 234.644 111.187C234.678 110.641 234.167 110.027 233.553 110.164Z" fill="#7E9C3D"/>
<path d="M211.632 94.5788C210.643 93.7945 208.564 94.2037 208.189 95.4655C208.052 95.8406 208.223 96.1816 208.495 96.3863C208.359 96.7614 208.291 97.1706 208.257 97.5798C208.189 98.4665 209.314 98.8416 209.893 98.296C210.268 97.955 210.541 97.5798 210.814 97.1365C210.984 96.8978 211.189 96.4886 211.461 96.318C212.075 95.9088 212.314 95.0562 211.632 94.5788Z" fill="#7E9C3D"/>
<path d="M264.747 138.571C264.713 138.366 264.713 138.196 264.679 137.991C264.645 137.718 264.781 137.48 264.508 137.855C264.952 137.241 264.952 136.423 264.236 136.047C263.997 135.911 263.792 135.843 263.588 135.809C263.315 134.718 261.576 134.581 261.508 135.877C261.508 135.979 261.474 136.116 261.44 136.218C261.372 136.252 261.338 136.286 261.27 136.32C260.656 136.764 260.52 137.616 260.826 138.196C260.656 138.571 260.486 138.946 260.349 139.321C260.111 140.003 260.656 140.822 261.406 140.822C262.156 140.822 262.906 140.822 263.656 140.822C264.27 140.822 264.849 140.31 264.815 139.696C264.815 139.287 264.781 138.912 264.747 138.571Z" fill="#7E9C3D"/>
<path d="M282.816 117.632C282.577 117.496 282.27 117.462 281.929 117.598C281.009 118.007 279.85 117.803 278.963 118.382C278.418 118.723 278.35 119.474 278.929 119.849C279.168 120.019 279.509 120.156 279.816 120.224C279.713 120.94 279.884 121.759 279.952 122.441C279.952 122.577 280.02 122.679 280.054 122.816C280.225 123.634 281.316 124.043 282.066 124.248C282.509 124.384 283.088 124.078 283.293 123.634C283.975 121.997 284.145 120.599 284.179 118.826C284.179 118.144 283.532 117.462 282.816 117.632Z" fill="#7E9C3D"/>
<path d="M287.691 112.108C287.589 112.073 287.452 112.073 287.35 112.073C287.077 111.903 286.736 111.835 286.43 111.869C286.396 111.869 286.396 111.903 286.361 111.903C286.191 111.835 286.021 111.835 285.85 111.869C285.645 111.937 285.1 112.38 285.236 112.687C285.1 112.892 284.998 113.131 284.93 113.403C284.861 113.813 285.066 114.427 285.407 114.802C285.339 115.04 285.305 115.245 285.305 115.415C285.27 116.439 286.702 117.052 287.282 116.098C287.623 115.518 288.032 114.836 287.964 114.12C287.93 113.915 287.896 113.744 287.861 113.608C287.896 113.438 287.964 113.267 287.998 113.131C288.202 112.79 288.066 112.244 287.691 112.108Z" fill="#7E9C3D"/>
<path d="M282.304 110.948C281.247 110.607 280.19 110.437 279.1 110.266C278.622 110.198 278.452 110.778 278.759 111.085C279.202 111.46 279.713 111.767 280.225 112.005C280.259 112.21 280.259 112.415 280.122 112.619C279.509 113.472 280.497 114.87 281.418 114.086C282.1 113.506 282.509 112.96 282.85 112.142C283.02 111.699 282.781 111.085 282.304 110.948Z" fill="#7E9C3D"/>
<path d="M266.383 74.3223C266.656 74.0836 266.861 73.7426 266.827 73.3333C266.793 72.7195 266.383 72.3785 265.906 72.0715C265.599 71.8669 265.292 71.7305 264.986 71.56C264.713 71.1849 264.44 70.8097 264.167 70.4687C263.486 69.6162 262.326 70.23 262.156 71.1508C262.224 70.7416 262.156 71.0485 262.122 71.1849C262.054 71.3895 261.951 71.56 261.883 71.7646C261.849 71.8328 261.815 71.901 261.815 71.9692C261.44 72.1397 261.099 72.3444 260.826 72.7195C260.11 73.6061 260.008 74.7997 259.974 75.891C259.974 76.3684 260.179 76.9141 260.69 77.0846C262.19 77.5279 263.724 77.9371 265.258 77.4938C266.418 77.1528 266.724 75.8228 266.52 74.7656C266.52 74.5951 266.452 74.4587 266.383 74.3223Z" fill="#7E9C3D"/>
<path d="M256.701 74.1519C256.531 74.1519 256.361 74.1178 256.19 74.1178C256.156 73.9473 256.054 73.7768 255.917 73.7086C255.849 73.4698 255.781 73.2311 255.645 73.0606C255.236 72.3786 254.213 72.7537 254.076 73.4357C253.633 73.3334 253.054 73.538 252.849 73.9473C252.61 74.4247 252.406 74.9362 252.508 75.4137C252.474 75.4137 252.474 75.4478 252.44 75.4478C251.622 76.0616 252.031 77.6644 253.19 77.4598C254.69 77.2211 255.986 76.8801 257.349 76.198C258.372 75.6524 257.69 74.1519 256.701 74.1519Z" fill="#7E9C3D"/>
<path d="M259.701 82.0974C259.565 81.62 259.054 81.4153 258.644 81.5517C258.269 81.4494 257.86 81.5518 257.588 81.9951C257.11 82.7794 256.838 83.4274 257.11 84.3481C257.315 84.9279 257.826 85.303 258.44 85.1325C259.054 84.9961 259.735 84.7574 260.042 84.1776C260.485 83.291 259.94 82.8476 259.701 82.0974Z" fill="#7E9C3D"/>
<path d="M143.482 53.4861C147.369 48.132 145.459 40.5954 142.937 35.139C137.652 23.7148 125.72 18.4289 113.788 17.2694C100.867 16.0077 87.4692 19.0087 75.6393 24.124C60.2297 30.8081 47.3771 43.6987 37.7632 57.2373C32.9562 63.9896 28.9334 71.3216 25.6605 78.9605C24.2969 82.132 23.4105 85.474 22.3536 88.7478C21.365 91.7147 20.1036 94.5793 18.1262 97.0006C17.4444 97.8532 15.5693 98.6034 14.6829 99.3878C14.4102 99.6265 14.6489 100.138 15.0239 99.9675C16.183 99.456 17.3421 99.4219 18.4331 99.0126C18.5353 99.0808 18.6376 99.1149 18.7399 99.1149C19.149 99.1149 19.524 99.149 19.9331 99.149C20.1717 99.4219 20.6149 99.5242 20.9559 99.2513C20.9899 99.2513 21.024 99.2173 21.024 99.1832C43.3542 99.6947 64.7299 105.526 86.7191 108.766C100.629 110.812 116.277 111.051 128.754 103.685C134.823 100.104 139.971 93.795 141.437 86.8381C143.107 78.8923 140.073 71.5603 134.686 65.7629C132.777 63.6827 130.664 61.9093 128.448 60.4429C134.209 60.1019 140.005 58.2945 143.482 53.4861Z" fill="#668439"/>
<path d="M85.8331 68.6272C85.7308 68.5931 85.5944 68.5931 85.4921 68.559C85.3217 68.3544 85.083 68.218 84.7421 68.1839C83.8216 68.1157 83.1057 68.1498 82.2534 68.4908C81.2988 68.8318 80.4124 69.6844 79.6965 70.2641C79.6965 70.2641 79.6965 70.2982 79.6624 70.2982C78.4692 70.5711 77.5146 71.3895 76.901 72.89C76.5941 73.6403 76.9351 74.3223 77.6851 74.561C81.5716 75.7546 84.9126 73.6061 86.7194 70.23C87.1285 69.5821 86.5831 68.6954 85.8331 68.6272Z" fill="#485C2A"/>
<path d="M90.8784 76.3342C90.0943 76.9139 88.9693 77.2891 88.8329 78.3803C88.8329 78.4485 88.8329 78.5509 88.867 78.6191C88.7647 78.6873 88.6965 78.7555 88.6624 78.7896C88.492 78.9601 88.3556 79.2329 88.3556 79.4716C88.3215 80.0514 88.6283 80.4947 89.0715 80.8016C89.4806 81.1086 90.1625 81.1427 90.4693 80.6652C91.1852 79.6422 92.208 78.585 92.4466 77.3232C92.583 76.5047 91.5943 75.7886 90.8784 76.3342Z" fill="#485C2A"/>
<path d="M62.071 86.7357C61.7642 86.5993 61.3891 86.5651 61.0141 86.5651C60.8778 86.4969 60.7414 86.4628 60.605 86.4287C60.5369 86.3946 60.0596 86.497 59.9573 86.6334C59.5823 86.6675 59.1732 86.7015 58.8323 86.8039C58.2868 86.9403 57.98 87.3154 57.8777 87.7587C57.7072 87.7928 57.5027 87.8951 57.4004 88.0315C57.0595 88.5772 56.9231 88.9523 56.8549 89.5662C56.8208 90.3846 57.7413 90.7938 58.3891 90.4869C58.5254 90.4187 58.6277 90.3505 58.73 90.3164C58.8323 90.3505 58.9345 90.3505 59.0709 90.3505C60.23 90.1459 61.7301 89.839 62.2074 88.6113C62.2074 88.5772 62.2074 88.509 62.2414 88.4749C62.3778 88.3726 62.4801 88.2703 62.5824 88.1338C62.821 87.5882 62.5483 86.9403 62.071 86.7357Z" fill="#485C2A"/>
<path d="M115.323 23.1007C114.368 22.7938 113.55 22.7597 112.732 22.862C112.595 22.7256 112.425 22.6574 112.186 22.7597C112.152 22.7938 112.118 22.7938 112.084 22.7938C111.607 22.7256 111.129 22.7938 110.652 23.0325C109.663 23.51 109.118 24.9422 108.675 25.863C108.606 26.0335 108.572 26.1699 108.572 26.3745C108.47 26.6474 108.436 26.9543 108.368 27.2271C108.231 27.9774 108.845 28.4548 109.527 28.4548C110.618 28.4548 111.709 28.4889 112.732 28.1138C113.925 27.6704 114.675 26.4428 115.357 25.4538C115.391 25.3856 115.425 25.3174 115.425 25.2492C115.595 25.0105 115.732 24.7717 115.868 24.533C116.141 24.0215 115.834 23.2712 115.323 23.1007Z" fill="#485C2A"/>
<path d="M81.4695 32.6835C81.1627 32.854 80.8559 33.1268 80.5831 33.3655C80.3445 33.2973 80.1059 33.3314 79.8672 33.5361C79.2195 34.1158 78.5717 34.7637 78.3672 35.6163C78.1967 36.3324 78.8104 36.9122 79.4922 36.9804C80.0377 37.0145 80.5831 36.6052 80.9922 36.2642C81.6741 35.7186 82.2536 35.0024 82.765 34.2863C83.4469 33.3996 82.5605 32.0356 81.4695 32.6835Z" fill="#485C2A"/>
<path d="M116.107 65.6944C115.698 65.5921 115.289 65.4898 114.879 65.4216C114.641 65.2511 114.368 65.1488 114.061 65.1488C113.652 65.1488 113.209 65.1829 112.766 65.1829C112.698 65.1829 112.663 65.1829 112.595 65.1829C111.436 64.91 110.175 64.5349 109.05 64.9441C107.754 65.4557 107.175 66.6493 106.834 67.9451C106.663 68.559 106.902 69.2751 107.584 69.4798C110.754 70.3323 113.788 69.8208 116.414 67.8428C117.129 67.2972 117.027 65.9672 116.107 65.6944Z" fill="#7E9C3D"/>
<path d="M103.902 60.136C103.084 60.2724 102.3 60.4429 101.55 60.6134C101.277 60.2042 100.8 59.9654 100.22 60.2724C98.5836 61.0567 97.1517 61.7388 96.5722 63.6144C96.3335 64.3647 96.9472 65.149 97.7313 65.149C100.595 65.149 102.947 64.4329 104.891 62.1821C105.47 61.4659 105.027 59.9654 103.902 60.136Z" fill="#7E9C3D"/>
<path d="M96.5721 66.9904C95.788 67.3314 94.9016 67.536 94.0493 67.536C93.538 67.536 93.0607 67.9453 92.9584 68.4568C92.8902 68.7637 92.9584 69.0365 93.0948 69.2411C92.822 70.1278 93.6402 70.9804 94.4584 71.2532C94.8334 71.3555 95.3107 71.3214 95.5835 71.0145C96.2994 70.2983 96.9471 69.514 97.6972 68.7978C98.5495 67.9794 97.6972 66.4448 96.5721 66.9904Z" fill="#7E9C3D"/>
<path d="M130.05 82.8137C129.437 82.916 128.857 82.9842 128.244 83.0524C128.209 83.0183 128.209 82.9842 128.175 82.9501C127.903 82.7796 127.596 82.7796 127.323 82.916C127.289 82.916 127.118 83.1206 127.016 83.2911C126.232 83.5298 125.516 83.9732 124.834 84.4165C124.391 84.6893 124.221 85.1667 124.289 85.6442C124.118 85.8488 123.948 86.0534 123.812 86.3262C123.437 86.9401 123.675 87.9631 124.459 88.1336C125.857 88.4065 127.664 88.577 128.959 87.8608C130.153 87.1788 130.766 85.917 131.38 84.7575C131.789 83.8026 131.21 82.6091 130.05 82.8137Z" fill="#7E9C3D"/>
<path d="M48.2639 85.6784C47.582 85.5079 46.9002 85.4056 46.2865 85.4056C46.2183 84.9281 45.707 84.5189 45.0592 84.7576C43.8319 85.2351 42.741 85.8489 41.7182 86.5991C41.3091 86.8379 40.9 87.1107 40.525 87.4517C40.3545 87.5881 40.2523 87.7586 40.1841 87.895C39.9454 88.1337 39.7068 88.3384 39.4681 88.5771C38.7181 89.3273 39.1613 90.7937 40.3204 90.7596C43.3887 90.6914 46.1843 89.6683 48.7411 87.9973C49.7639 87.3835 49.3207 85.9512 48.2639 85.6784Z" fill="#7E9C3D"/>
<path d="M57.1961 81.4154C57.0256 81.4154 56.8551 81.4495 56.6847 81.4836C56.6847 81.3813 56.7188 81.279 56.7188 81.1767C56.7188 80.9721 56.6165 80.7675 56.3779 80.8016C55.9688 80.8698 55.696 80.9039 55.3551 81.1767C55.1505 81.3131 54.9801 81.4836 54.8096 81.6542C54.6392 81.6883 54.5028 81.7223 54.3323 81.8247C54.0255 81.9952 53.8551 82.3703 53.8551 82.7113C53.6846 82.8818 53.5482 83.0864 53.3778 83.2569C52.6277 84.0754 53.446 85.5418 54.571 85.1667C55.696 84.7916 56.7188 84.2459 57.7074 83.598C58.5256 83.0182 58.4575 81.3472 57.1961 81.4154Z" fill="#7E9C3D"/>
<path d="M57.9121 51.0985C55.3211 50.2801 52.7301 50.8257 50.7187 52.2921C48.7072 53.0765 47.2754 54.7134 46.8322 57.2028C46.7299 57.8167 47.2072 58.4987 47.8549 58.5328C52.4574 58.8397 55.7643 56.3503 58.5257 52.906C59.003 52.2921 58.5939 51.3031 57.9121 51.0985Z" fill="#7E9C3D"/>
<path d="M52.491 62.7956C52.4229 62.8297 52.3547 62.8639 52.2865 62.898C52.1501 62.8298 51.9456 62.7957 51.7751 62.8639C50.9228 63.1026 49.9341 63.0344 49.15 63.4777C47.9568 64.1598 47.4795 65.0464 47.2068 66.4105C47.0363 67.3654 48.1614 67.7746 48.8773 67.5018C49.2182 67.3654 49.5591 67.2289 49.866 67.0925C50.1387 67.1266 50.4114 67.1266 50.7183 67.0584C51.4342 66.8879 52.0137 66.1036 52.5592 65.592C52.9001 65.3533 53.2411 65.0805 53.5479 64.7736C54.332 64.0233 53.6161 62.3864 52.491 62.7956Z" fill="#7E9C3D"/>
<path d="M60.1957 58.1579C60.0935 57.6805 59.8207 57.4418 59.4798 57.2713C59.4798 57.2372 59.4798 57.203 59.5139 57.203C59.548 57.1007 59.548 56.9643 59.4798 56.862C59.3775 56.7256 59.2071 56.7256 59.0707 56.7938C58.6275 56.9984 58.3889 57.1007 58.048 57.4759C57.5366 57.9874 56.9229 58.4648 56.6843 59.1469C56.3434 60.0335 57.0252 60.852 57.9798 60.6133C58.6957 60.4087 59.5821 60.1359 60.0253 59.4879C60.1957 59.0446 60.298 58.6012 60.1957 58.1579Z" fill="#7E9C3D"/>
<path d="M100.697 36.537C98.7196 36.0596 96.8104 36.196 95.1399 36.844C93.1967 37.0486 91.3216 38.7196 90.5716 40.3565C90.2648 41.0385 90.5716 41.7206 91.2875 41.9593C95.2422 43.187 99.5037 41.7888 101.379 38.0034C101.617 37.4919 101.242 36.6734 100.697 36.537Z" fill="#7E9C3D"/>
<path d="M93.5378 31.4559C91.4241 30.9444 89.7536 31.3195 88.424 32.4449C87.299 32.8882 86.3103 33.6044 85.5262 34.798C85.083 35.48 85.458 36.4008 86.2762 36.5031C86.5489 36.5372 86.7876 36.5372 87.0262 36.5372C87.0603 36.5372 87.0944 36.5713 87.1285 36.5713C88.3899 36.9123 89.5149 36.9805 90.7422 36.4349C91.6286 36.0256 92.5832 35.1731 93.0946 34.2523C93.4696 33.9454 93.8105 33.5703 94.1514 33.1951C94.6628 32.5813 94.3219 31.6605 93.5378 31.4559Z" fill="#7E9C3D"/>
<path d="M105.266 31.4898C104.516 31.5239 103.118 31.3534 102.504 32.0013C101.959 32.206 101.481 32.6152 101.175 33.2631C100.834 33.9793 101.618 34.7296 102.334 34.5931C103.527 34.3544 104.686 33.8429 105.811 33.4337C106.936 32.9903 106.356 31.4557 105.266 31.4898Z" fill="#7E9C3D"/>
<path d="M132.334 46.2903C132.232 46.2562 132.13 46.2221 132.028 46.2221C132.403 45.7106 132.062 44.6875 131.278 44.8239C130.255 44.9944 129.232 45.2332 128.209 45.6083C127.562 45.6083 126.914 45.7106 126.198 45.9152C125.618 46.0857 125.311 46.5972 125.311 47.0747C124.664 47.8249 125.141 48.9162 126.164 49.0867C128.312 49.3936 130.323 49.0867 132.403 48.6775C133.766 48.4047 133.425 46.5972 132.334 46.2903Z" fill="#7E9C3D"/>
<path d="M121.561 50.1098C121.323 49.9734 121.084 49.837 120.811 49.7347C120.538 49.3937 120.095 49.2232 119.652 49.3937C119.311 49.3255 118.97 49.2914 118.663 49.2573C118.288 49.2232 117.947 49.5983 117.845 49.9393C117.845 50.0075 117.845 50.0757 117.845 50.1439C117.607 50.2121 117.402 50.2804 117.197 50.3486C116.55 50.6214 116.243 51.4398 116.686 52.0537C117.129 52.7016 117.879 52.5993 118.561 52.7016C119.447 52.838 120.266 52.9403 121.152 52.9403C121.766 52.9403 122.209 52.3606 122.209 51.7808C122.209 51.1329 122.209 50.5191 121.561 50.1098Z" fill="#7E9C3D"/>
<path d="M125.789 38.2422C125.653 38.3105 125.482 38.3446 125.278 38.3446C125.175 38.3104 125.073 38.3104 124.937 38.3446C124.869 38.3787 124.8 38.4128 124.732 38.4128C124.664 38.4128 124.596 38.4469 124.528 38.4469C123.812 38.6174 123.369 38.9584 122.857 39.4699C122.175 40.152 122.891 41.2433 123.744 41.2092C124.119 41.1751 124.391 41.0727 124.698 40.9022C125.244 40.5953 125.209 39.9815 125.619 39.6063C125.721 39.504 125.755 39.4017 125.789 39.2653C125.959 39.1971 126.062 39.1289 126.13 39.0607C126.539 38.822 126.232 38.0717 125.789 38.2422Z" fill="#7E9C3D"/>
<path d="M162.199 108.97C158.994 106.003 154.426 105.014 150.232 106.071C141.607 108.186 133.187 117.325 133.8 126.567C133.834 126.976 134.141 127.181 134.482 127.181C134.687 127.795 135.164 128.238 136.084 128.34C138.3 128.545 140.55 124.691 141.607 123.225C145.153 118.28 148.357 113.472 155.21 113.813C157.562 113.949 160.29 114.699 161.994 116.439C163.528 118.041 163.631 120.667 164.449 122.679C164.687 123.293 165.369 123.361 165.812 123.054C166.222 123.395 167.006 123.225 166.972 122.611C166.767 118.041 165.676 112.21 162.199 108.97Z" fill="#668439"/>
<path opacity="0.7" d="M162.199 108.97C158.994 106.003 154.426 105.014 150.232 106.071C141.607 108.186 133.187 117.325 133.8 126.567C133.834 126.976 134.141 127.181 134.482 127.181C134.687 127.795 135.164 128.238 136.084 128.34C138.3 128.545 140.55 124.691 141.607 123.225C145.153 118.28 148.357 113.472 155.21 113.813C157.562 113.949 160.29 114.699 161.994 116.439C163.528 118.041 163.631 120.667 164.449 122.679C164.687 123.293 165.369 123.361 165.812 123.054C166.222 123.395 167.006 123.225 166.972 122.611C166.767 118.041 165.676 112.21 162.199 108.97ZM151.017 111.46C146.687 112.278 143.482 115.927 141.198 119.405C140.039 121.145 139.084 122.952 137.789 124.623C137.312 125.237 136.8 125.749 136.221 126.226C136.323 126.124 135.948 125.851 135.539 125.612C135.607 125.544 135.641 125.442 135.539 125.373C135.505 125.339 135.471 125.305 135.437 125.271C136.596 117.666 142.119 111.391 149.346 108.766C153.403 107.299 158.21 108.084 161.108 111.391C161.721 112.108 162.199 112.892 162.608 113.744C159.608 111.426 155.108 110.641 151.017 111.46Z" fill="#3C4B20"/>
<path d="M297.646 27.6363C296.759 27.0566 295.873 26.5451 294.953 26.0676C295.668 25.8289 295.566 24.7035 294.748 24.4989C294.203 24.3625 293.657 24.2943 293.112 24.2943C286.395 19.1108 278.554 15.2913 271.122 11.2331C262.633 6.59522 253.701 2.84397 244.053 1.47987C226.326 -1.00959 205.768 -0.941389 189.063 6.2883C177.438 11.3013 164.108 23.51 173.517 36.5029C177.063 41.4137 188.415 47.6203 195.643 45.8129C195.609 46.2221 195.575 46.6313 195.609 47.0746C195.643 47.4838 196.086 47.6544 196.427 47.518C196.086 50.4508 196.188 53.3836 197.109 56.2823C198.984 62.1479 204.643 65.4558 210.132 67.3314C220.871 70.9803 234.269 69.6503 244.906 66.3424C254.963 63.2391 263.418 56.6915 270.577 49.189C274.532 45.0626 278.213 40.6975 281.793 36.2642C284.964 32.3083 288.646 26.852 294.1 26.1699C295.259 26.6815 296.419 27.2271 297.509 27.8409C297.612 27.9433 297.782 27.7045 297.646 27.6363ZM283.361 30.3304C280.088 33.877 277.157 37.7306 274.02 41.3795C267.202 49.2572 259.702 56.7256 250.224 61.3294C240.542 66.0696 229.189 67.195 218.553 66.3083C212.382 65.7968 205.768 63.8871 201.473 59.1128C198.029 55.2933 197.757 49.7346 198.268 44.6193C199.598 43.6985 200.654 42.3003 201.268 40.3224C204.404 37.4578 208.496 35.3093 211.905 33.2291C220.7 27.8409 230.212 24.4648 240.337 22.6915C250.156 20.9523 260.213 20.6454 270.134 21.3615C276.713 21.8389 283.907 22.6574 290.418 24.8058C287.657 25.7948 285.305 28.2161 283.361 30.3304ZM237.508 21.5661C228.03 23.3053 218.791 26.5451 210.507 31.4899C207.2 33.4678 202.018 36.2301 198.711 39.8108C198.438 39.6062 197.961 39.6403 197.859 40.0154C197.757 40.3906 197.654 40.7998 197.586 41.209C197.313 41.5842 197.041 41.9934 196.836 42.4026C188.279 46.3585 174.642 37.4919 172.972 29.0004C171.779 22.9984 176.722 17.6785 180.949 14.2C185.893 10.1078 191.859 7.34546 197.995 5.53804C206.143 3.15088 214.871 2.53704 223.291 2.43473C232.053 2.33243 241.224 2.84396 249.747 4.85599C257.69 6.73162 265.088 10.4488 272.213 14.4046C275.861 16.4167 279.373 18.6333 283.259 20.202C286.225 21.3956 289.293 22.7256 292.055 24.4307C291.918 24.4648 291.782 24.4648 291.646 24.4989C275.247 16.9282 254.758 18.3946 237.508 21.5661Z" fill="#435627"/>
<g opacity="0.4">
<path opacity="0.4" d="M272.725 41.9935C266.622 47.8932 259.702 52.9404 251.724 55.9414C244.122 58.806 235.803 60.2723 227.655 60.3746C221.553 60.477 212.893 60.17 208.666 54.9183C203.859 48.9163 209.007 42.3686 213.746 38.2423C220.291 32.4449 229.258 28.7277 237.644 26.6134C255.27 22.1801 273.475 23.4419 291.475 23.9875C285.407 22.146 278.623 21.2252 272.554 20.6796C264.27 19.8952 256.02 20.1681 247.735 20.7137C233.042 21.6345 218.553 23.2032 204.677 28.3867C196.529 31.4218 183.438 37.0828 176.313 28.9323C172.767 24.9083 173.21 20.2363 175.324 16.0076C170.244 21.7709 168.063 29.0346 173.517 36.5712C177.063 41.482 188.415 47.6886 195.643 45.8812C195.609 46.2904 195.575 46.6996 195.609 47.143C195.643 47.5522 196.086 47.7227 196.427 47.5863C196.086 50.5191 196.188 53.4519 197.109 56.3506C198.984 62.2162 204.643 65.5241 210.132 67.3997C220.871 71.0487 234.269 69.7187 244.906 66.4108C254.963 63.3075 263.418 56.7598 270.577 49.2573C274.532 45.1309 278.214 40.7658 281.793 36.3325C283.191 34.5933 284.691 32.5813 286.361 30.7739C281.18 33.3997 276.679 38.1741 272.725 41.9935Z" fill="#668439"/>
</g>
<path d="M291.884 85.6443C289.157 79.8469 283.771 75.2431 278.827 71.3554C273.679 67.2631 267.713 64.5349 261.065 64.9783C254.827 65.3875 243.167 69.0024 242.144 76.3684C232.224 70.1277 219.269 69.7867 208.393 73.5721C199.632 76.6072 194.484 83.0866 190.836 90.6573C188.927 93.4878 187.12 96.3524 185.961 99.5921C184.665 103.241 185.006 107.231 186.131 110.88C189.234 121.213 198.814 127.556 208.257 131.375C219.848 136.116 232.258 138.435 244.326 141.47C250.326 143.004 256.292 144.675 262.088 146.96C266.895 148.87 270.611 151.052 273.134 155.69C273.236 155.861 273.475 155.861 273.645 155.793C273.748 156.168 274.293 156.066 274.259 155.69C274.02 148.904 279.509 142.527 283.123 137.309C286.634 132.228 289.328 126.703 291.441 120.906C295.43 109.755 297.066 96.6593 291.884 85.6443ZM286.089 127.283C283.839 132.023 280.77 136.15 277.839 140.481C276.407 142.561 274.907 144.709 274.054 147.097C273.338 149.075 273.202 150.78 273.27 152.587C270.952 147.301 261.611 144.437 257.247 142.834C245.963 138.707 234.133 136.491 222.576 133.285C211.939 130.386 200.791 126.772 193.393 118.212C188.006 111.971 186.234 104.435 189.779 96.4206C191.45 92.6011 193.7 89.2591 195.2 85.4056C198.132 81.4838 201.848 78.21 206.825 76.0615C219.473 70.6392 234.78 72.9241 245.213 81.7566C253.974 89.1909 259.872 100.479 263.588 111.153C267.85 123.498 267.679 136.798 271.634 149.177C271.736 149.484 272.247 149.45 272.247 149.075C270.236 124.657 265.327 94.0334 244.565 78.0054C244.326 77.8349 244.088 77.6643 243.849 77.4938C244.122 73.0264 249.27 70.5711 252.883 69.1047C257.315 67.3313 262.156 66.4106 266.861 67.5359C273.679 69.1728 279.373 74.6292 284.18 79.4035C288.475 83.6663 291.032 88.543 292.157 94.5109C294.237 105.526 290.759 117.428 286.089 127.283Z" fill="#435627"/>
<g opacity="0.4">
<path opacity="0.4" d="M291.373 118.076C289.123 123.089 286.464 127.897 283.396 132.467C280.771 136.32 278.555 141.265 274.77 144.13C274.395 144.403 273.816 144.198 273.679 143.755C272.52 139.935 272.657 135.979 272.929 132.023C273.236 126.874 273.373 121.69 272.725 116.575C271.327 105.696 266.997 95.534 260.281 86.872C257.588 83.3936 253.667 80.2221 251.622 76.3344C250.565 74.2883 251.827 71.6283 253.258 70.1278C255.474 67.8088 258.236 66.2742 261.134 65.0125C261.099 65.0125 261.1 65.0125 261.065 65.0125C254.827 65.4217 243.167 69.0365 242.144 76.4026C238.837 74.3224 235.224 72.9242 231.44 72.0716C234.235 73.1629 236.928 74.527 239.451 76.2662C242.929 78.7216 246.065 81.6544 248.895 84.8259C251.622 87.861 254.793 90.5892 257.111 93.9994C261.577 100.615 264.202 108.902 265.838 116.643C267.441 124.18 268.259 131.853 267.338 139.492C267.27 140.003 266.52 140.31 266.145 139.901C261.85 135.229 255.952 133.183 250.054 131.239C243.985 129.261 237.849 127.761 231.576 126.499C220.939 124.35 209.416 122.475 200.075 116.609C192.745 112.005 188.279 105.662 189.268 96.7958C189.438 95.2612 189.677 93.6243 189.984 91.9874C188.416 94.3745 186.984 96.864 185.995 99.5922C184.7 103.241 185.04 107.231 186.166 110.88C189.268 121.213 198.848 127.556 208.291 131.376C219.882 136.116 232.292 138.435 244.36 141.47C250.361 143.004 256.327 144.675 262.122 146.96C266.929 148.87 270.645 151.053 273.168 155.69C273.27 155.861 273.509 155.861 273.679 155.793C273.782 156.168 274.327 156.066 274.293 155.69C274.054 148.904 279.543 142.527 283.157 137.309C286.668 132.228 289.362 126.703 291.475 120.906C292.634 117.7 293.589 114.358 294.237 110.948C293.35 113.335 292.43 115.723 291.373 118.076Z" fill="#668439"/>
</g>
<path d="M143.482 53.4861C147.369 48.132 145.459 40.5954 142.937 35.139C137.652 23.7148 125.72 18.4289 113.788 17.2694C100.867 16.0077 87.4692 19.0087 75.6393 24.124C60.2297 30.8081 47.3771 43.6987 37.7632 57.2373C32.9562 63.9896 28.9334 71.3216 25.6605 78.9605C24.2969 82.132 23.4105 85.474 22.3536 88.7478C21.365 91.7147 20.1036 94.5793 18.1262 97.0006C17.4444 97.8532 15.5693 98.6034 14.6829 99.3878C14.4102 99.6265 14.6489 100.138 15.0239 99.9675C16.183 99.456 17.3421 99.4219 18.4331 99.0126C18.5353 99.0808 18.6376 99.1149 18.7399 99.1149C19.149 99.1149 19.524 99.149 19.9331 99.149C20.1717 99.4219 20.6149 99.5242 20.9559 99.2513C20.9899 99.2513 21.024 99.2173 21.024 99.1832C43.3542 99.6947 64.7299 105.526 86.7191 108.766C100.629 110.812 116.277 111.051 128.754 103.685C134.823 100.104 139.971 93.795 141.437 86.8381C143.107 78.8923 140.073 71.5603 134.686 65.7629C132.777 63.6827 130.664 61.9093 128.448 60.4429C134.209 60.1019 140.005 58.2945 143.482 53.4861ZM134.311 69.0367C141.198 77.0508 140.482 87.452 134.107 95.466C129.198 101.639 121.493 104.742 113.959 106.14C96.4353 109.448 78.4348 104.469 61.2866 101.4C48.468 99.1149 35.6836 97.4098 22.6945 97.6485C30.0584 91.2032 37.32 84.9284 45.5702 79.5743C54.775 73.5723 64.6617 68.4911 74.6847 64.0237C93.7421 55.5663 119.072 51.2353 134.311 69.0367ZM126.3 57.9535C125.857 57.9535 125.516 58.1922 125.311 58.465C112.356 51.781 95.8217 53.5884 82.219 58.2604C70.8323 62.1822 59.9229 68.0136 49.559 74.1521C38.9905 80.4269 27.9447 87.9294 20.274 97.6826C20.2399 97.6826 20.2399 97.6826 20.2399 97.6826C21.1604 96.7619 21.8763 95.5683 22.5241 94.4429C24.6719 90.6917 25.6264 86.2584 27.0242 82.2002C30.1266 73.129 35.5131 64.5011 41.1042 56.7599C51.2976 42.778 64.9685 30.3306 81.4349 24.3627C93.9466 19.793 108.504 17.6787 121.561 21.123C127.8 22.7599 133.459 26.0678 137.55 31.115C142.255 36.9465 146.073 47.3136 140.278 53.5543C136.8 57.3396 131.107 57.8853 126.3 57.9535Z" fill="#435627"/>
<g opacity="0.4">
<path opacity="0.4" d="M142.937 35.139C137.823 24.0899 126.539 18.8381 115.016 17.4399C117.232 18.1561 119.379 19.0086 121.425 20.0999C126.982 23.1009 131.857 27.7729 134.005 33.8772C136.289 40.459 134.243 47.9274 127.186 50.3827C119.857 52.9404 112.015 51.1671 104.447 51.2353C94.7309 51.3376 84.6056 53.6225 75.469 56.8622C65.1391 60.5111 55.7639 65.7288 47.8886 73.4359C44.309 76.9143 40.9339 80.5974 37.1497 83.8712C36.2974 84.6214 35.4451 85.3376 34.5928 86.0537C40.1157 82.3707 45.8431 78.9605 51.5024 75.4138C60.4685 69.7528 69.5029 63.6826 79.4577 59.9314C92.2763 55.0889 109.868 52.3948 122.311 59.795C128.38 63.4098 132.027 68.7298 133.187 75.7207C134.312 82.5412 132.914 88.7478 127.152 93.0447C112.663 103.855 93.7763 100.138 77.1395 98.808C65.0028 97.8531 52.7979 96.9323 40.593 97.3757C35.1042 97.5462 28.8654 97.0688 23.6493 98.9785C23.4447 99.0467 23.2402 99.149 23.0356 99.2172C44.6499 100.036 65.3778 105.594 86.7193 108.698C100.629 110.744 116.277 110.982 128.755 103.616C134.823 100.036 139.971 93.7268 141.437 86.7699C143.107 78.8241 140.073 71.4921 134.687 65.6947C132.777 63.6144 130.664 61.8411 128.448 60.3747C134.141 60.136 139.937 58.2945 143.414 53.5202C147.369 48.132 145.46 40.5954 142.937 35.139Z" fill="#668439"/>
</g>
<path d="M207.677 126.772C199.222 118.383 187.256 114.836 175.699 113.404C168.88 112.551 161.926 112.994 155.21 114.324C150.471 115.245 146.175 116.677 142.05 118.621C141.88 118.178 141.437 117.871 140.823 118.076C140.686 118.11 140.55 118.178 140.414 118.246C140.039 102.627 129.811 86.838 113.686 84.6895C97.0489 82.507 81.1961 92.192 71.889 105.321C62.0706 119.167 56.4113 137.923 55.2522 154.77C54.5704 164.557 56.2409 174.379 59.2069 183.723C62.7183 194.874 70.3208 205.378 71.2072 217.177C71.2072 217.347 71.3095 217.484 71.3777 217.586C71.3777 217.62 71.3436 217.62 71.3436 217.654C71.2072 217.893 71.3095 218.132 71.4799 218.302C71.4799 218.507 71.4458 218.677 71.4799 218.882C71.4799 219.053 71.7186 219.053 71.7527 218.916C71.8209 218.746 71.8549 218.609 71.9231 218.439C72.0595 218.439 72.1959 218.37 72.3322 218.234C77.3096 211.448 86.2758 208.344 94.0829 206.298C101.072 204.457 108.231 203.536 115.39 202.683C137.993 200.023 161.108 204.184 183.233 197.534C197.586 193.237 211.393 183.961 216.984 169.57C222.609 155.179 218.484 137.514 207.677 126.772Z" fill="#7E9C3D"/>
<path d="M207.677 126.772C199.222 118.383 187.256 114.836 175.699 113.404C168.88 112.551 161.926 112.994 155.21 114.324C150.471 115.245 146.175 116.677 142.05 118.621C141.88 118.178 141.437 117.871 140.823 118.076C140.686 118.11 140.55 118.178 140.414 118.246C140.039 102.627 129.811 86.838 113.686 84.6895C97.0489 82.507 81.1961 92.192 71.889 105.321C62.0706 119.167 56.4113 137.923 55.2522 154.77C54.5704 164.557 56.2409 174.379 59.2069 183.723C62.7183 194.874 70.3208 205.378 71.2072 217.177C71.2072 217.347 71.3095 217.484 71.3777 217.586C71.3777 217.62 71.3436 217.62 71.3436 217.654C71.2072 217.893 71.3095 218.132 71.4799 218.302C71.4799 218.507 71.4458 218.677 71.4799 218.882C71.4799 219.053 71.7186 219.053 71.7527 218.916C71.8209 218.746 71.8549 218.609 71.9231 218.439C72.0595 218.439 72.1959 218.37 72.3322 218.234C77.3096 211.448 86.2758 208.344 94.0829 206.298C101.072 204.457 108.231 203.536 115.39 202.683C137.993 200.023 161.108 204.184 183.233 197.534C197.586 193.237 211.393 183.961 216.984 169.57C222.609 155.179 218.484 137.514 207.677 126.772ZM65.6502 193.953C61.6956 184.712 58.9 174.788 57.9795 164.796C56.4795 148.222 61.6274 130.216 68.9571 115.416C76.2869 100.547 88.5941 89.6685 105.367 87.3836C114.47 86.1559 123.197 88.7818 129.198 95.9092C134.652 102.389 137.482 110.948 137.823 119.337C134.243 121.213 131.073 124.044 128.107 126.635C124.322 129.943 120.64 133.388 116.959 136.832C109.288 144.028 102.06 151.632 96.1966 160.431C90.5032 168.956 85.969 178.607 81.4348 187.781C79.0483 192.589 76.9346 197.534 75.0937 202.615C73.9346 205.787 72.7754 209.299 72.0936 212.778C71.0367 206.23 68.3094 200.092 65.6502 193.953ZM214.973 166.637C209.62 184.609 190.29 193.817 173.244 197.022C162.062 199.137 150.607 198.864 139.289 198.898C129.573 198.898 119.993 199.341 110.345 200.603C98.1739 202.206 81.2984 204.491 73.1163 214.994C74.0709 211.891 74.8209 208.685 75.9119 205.582C77.6506 200.569 79.7984 195.727 82.1848 190.952C86.7531 181.711 91.7646 172.469 97.1511 163.705C102.538 154.94 109.663 147.472 117.061 140.413C120.64 137.002 124.288 133.66 127.97 130.352C131.175 127.488 134.584 125.169 137.993 122.748C142.289 121.315 146.482 119.644 150.812 118.383C156.369 116.746 162.13 115.961 167.926 115.859C177.983 115.723 188.688 117.973 197.552 122.816C212.927 131.273 219.916 149.961 214.973 166.637Z" fill="#51662E"/>
<path d="M166.563 185.053C165.983 184.985 165.404 184.95 164.858 184.95C163.733 184.371 162.608 184.268 161.585 184.746C160.29 184.746 159.097 185.871 158.312 187.269C157.937 187.917 158.244 188.736 158.858 189.111C162.165 191.123 166.12 190.782 167.756 186.928C168.097 186.042 167.415 185.121 166.563 185.053Z" fill="#607C37"/>
<path d="M147.539 186.144C146.926 185.871 146.176 185.666 145.494 185.905C145.187 186.007 144.914 186.212 144.71 186.485C144.607 186.519 144.505 186.553 144.437 186.621C144.062 186.962 143.789 187.235 143.551 187.712C143.176 188.428 143.687 189.417 144.539 189.349C145.562 189.247 146.585 188.633 147.471 188.19C148.323 187.781 148.494 186.553 147.539 186.144Z" fill="#607C37"/>
<path d="M183.711 130.694C181.256 129.67 178.836 129.705 176.961 130.966C175.29 131.035 173.654 131.648 173.654 133.626C173.654 135.366 175.154 136.866 176.586 137.65C178.12 138.503 179.859 138.639 181.427 137.889C183.54 136.866 184.256 134.138 184.529 132.023C184.665 131.444 184.222 130.932 183.711 130.694Z" fill="#607C37"/>
<path d="M160.562 131.989C159.539 132.023 158.653 132.262 158.108 133.183C157.971 133.456 157.937 133.797 157.971 134.138C157.801 134.274 157.63 134.444 157.596 134.683C157.767 134.683 157.937 134.683 158.108 134.683C158.142 134.82 158.21 134.956 158.278 135.092C158.414 135.843 158.687 136.081 159.164 135.809C159.233 135.774 159.301 135.74 159.335 135.672C159.369 135.672 159.437 135.672 159.471 135.672C159.846 135.57 160.017 135.365 160.153 135.092C160.289 134.99 160.46 134.854 160.63 134.717C161.278 134.206 161.96 133.831 161.824 132.91C161.687 132.262 161.142 131.955 160.562 131.989Z" fill="#607C37"/>
<path d="M77.446 133.592C77.446 133.524 77.446 133.456 77.446 133.388C77.446 132.808 77.0028 132.296 76.4573 132.16C73.4573 131.478 71.0026 132.978 69.7072 135.434C69.0594 135.979 68.6162 136.696 68.6162 137.65C68.6162 138.98 70.1503 139.594 71.2413 139.697C71.9913 139.765 72.6731 139.628 73.3209 139.424C73.8323 139.356 74.3777 139.219 74.8891 138.98C76.7301 138.06 77.446 135.843 77.4801 133.933C77.4801 133.797 77.446 133.695 77.446 133.592Z" fill="#607C37"/>
<path d="M80.4121 142.459C79.1848 142.527 78.4007 143.38 77.9234 144.437C77.8212 144.641 77.8553 144.88 77.9234 145.085C77.9234 145.392 78.0257 145.698 78.1962 145.903C78.6394 146.449 79.3553 146.415 79.8667 146.039C80.6167 145.528 81.1963 144.914 81.6394 144.13C82.1167 143.277 81.2303 142.425 80.4121 142.459Z" fill="#607C37"/>
<path d="M77.4124 171.582C77.3783 171.105 76.9692 170.729 76.5601 170.593C76.1169 170.013 75.1282 169.945 74.5486 170.457C73.7986 170.491 73.0486 170.627 72.3327 170.968C70.9349 171.65 70.2872 173.389 69.7758 174.754C69.7417 174.822 69.7758 174.89 69.7417 174.924C69.6053 175.436 69.6394 176.015 69.9803 176.595C70.6281 177.686 72.0599 178.027 73.2531 178.027C76.5942 177.959 77.6169 174.344 77.4124 171.582Z" fill="#607C37"/>
<path d="M118.357 102.116C117.266 102.832 116.141 103.48 115.05 104.196C114.266 104.674 114.3 105.867 115.016 106.276C115.254 107.027 116.345 107.368 116.891 106.617C116.993 106.447 117.163 106.31 117.3 106.14C117.47 106.072 117.675 105.969 117.845 105.833C118.493 105.39 119.209 104.674 119.618 103.957C119.686 103.923 119.754 103.855 119.789 103.787C120.641 102.934 119.379 101.434 118.357 102.116Z" fill="#607C37"/>
<path d="M107.515 167.592C107.174 167.183 106.629 167.012 106.015 167.217C105.913 167.251 105.811 167.285 105.708 167.319C104.754 167.285 103.833 167.49 102.981 167.831C102.572 167.558 101.958 167.558 101.549 168.001C101.174 168.445 100.833 168.956 100.526 169.502C99.4014 170.695 98.6855 172.298 98.5832 174.106C98.5491 174.856 98.9241 175.538 99.7082 175.674C102.742 176.152 105.47 174.583 106.868 172.128C107.515 171.309 108.061 170.389 108.436 169.366C108.743 168.547 108.299 167.865 107.515 167.592Z" fill="#ACB636"/>
<path d="M94.9354 186.826C94.7308 186.519 94.4581 186.314 94.1854 186.212C94.0831 186.11 93.9808 186.076 93.8785 186.007C93.674 185.428 93.3672 184.882 92.8558 184.541C92.3103 184.2 91.6626 184.371 91.3898 184.984C90.9807 185.939 90.4693 186.826 90.1966 187.849C89.6852 188.395 89.6511 189.145 90.0602 189.793C90.333 190.236 91.0148 190.475 91.5262 190.202C91.5603 190.202 91.6285 190.168 91.6626 190.168C91.7648 190.168 91.9012 190.168 92.0035 190.168C92.8899 190.168 93.4694 190.066 93.8785 189.179C93.9126 189.111 93.9467 189.008 93.9808 188.906C94.2535 188.736 94.4922 188.565 94.7308 188.395C95.2422 188.054 95.2422 187.303 94.9354 186.826Z" fill="#ACB636"/>
<path d="M104.515 179.767C104.345 179.358 103.936 179.051 103.459 179.153C103.186 179.221 102.947 179.289 102.709 179.392C102.061 179.323 101.447 179.323 100.799 179.596C100.288 179.801 99.913 180.142 99.5721 180.585C99.538 180.585 99.4698 180.585 99.4357 180.619C99.0948 180.756 98.8562 181.165 98.8562 181.506C98.8562 181.642 98.8221 181.745 98.8221 181.881C98.6857 182.188 98.5494 182.495 98.413 182.802C98.2766 183.109 98.3107 183.347 98.4471 183.552C98.2425 184.2 98.7539 185.018 99.4357 185.053C99.6062 185.121 99.7767 185.155 99.9471 185.155C100.936 185.018 102.163 185.087 103.049 184.541C103.356 184.336 103.595 184.132 103.8 183.825C104.481 183.143 104.959 182.256 105.436 181.37C105.777 180.756 105.197 179.835 104.515 179.767Z" fill="#ACB636"/>
<path d="M167.586 151.428C167.654 150.78 167.176 150.132 166.392 150.132C165.847 150.132 165.336 150.064 164.824 150.098C164.688 150.03 164.551 150.03 164.381 150.098C164.313 150.132 164.245 150.132 164.176 150.166C163.904 150.234 163.631 150.302 163.358 150.473C163.017 150.609 162.71 150.78 162.472 150.984C161.926 151.53 161.62 151.735 161.381 152.383C161.21 152.894 161.245 153.474 161.313 154.02C161.381 154.497 161.756 154.838 162.199 154.94C162.54 155.111 163.017 155.179 163.46 154.94C163.495 154.906 163.563 154.872 163.597 154.872C164.211 154.804 164.858 154.702 165.37 154.429C165.949 154.122 166.358 153.542 166.733 152.928C166.87 152.826 166.972 152.724 167.108 152.621C167.483 152.314 167.688 151.905 167.586 151.428Z" fill="#ACB636"/>
<path d="M138.675 146.551C138.061 146.687 137.55 146.96 137.073 147.335C136.766 147.199 136.425 147.199 136.186 147.438C135.471 148.086 134.755 148.802 134.584 149.791C134.482 150.473 135.232 151.087 135.88 150.916C135.982 150.882 136.084 150.882 136.186 150.848C136.323 150.916 136.493 150.916 136.664 150.848C136.8 150.78 136.902 150.746 137.005 150.677C137.516 150.575 138.027 150.439 138.471 150.166C139.118 149.757 139.527 148.904 139.937 148.29C140.448 147.438 139.63 146.312 138.675 146.551Z" fill="#ACB636"/>
<path d="M204.575 165.239C204.609 164.83 204.336 164.352 203.961 164.182C201.404 162.886 197.961 161.829 195.677 164.216C194.245 165.682 193.938 167.899 194.313 169.877C194.211 170.355 194.109 170.832 194.109 171.378C194.074 171.855 194.381 172.469 194.893 172.605C195.234 172.673 195.574 172.742 195.915 172.776C196.461 173.185 197.075 173.424 197.859 173.39C198.95 173.356 199.802 172.673 200.518 171.787C202.734 170.457 204.234 168.036 204.575 165.239Z" fill="#ACB636"/>
<path d="M194.723 181.199C194.416 181.199 194.109 181.165 193.768 181.165C193.802 180.585 193.393 179.937 192.711 180.21C192.234 180.415 191.722 180.687 191.416 181.131C190.563 181.301 189.847 181.881 189.166 182.427C188.825 182.7 188.688 183.211 188.791 183.62C188.825 183.723 188.825 183.825 188.859 183.893C188.927 184.234 189.166 184.473 189.438 184.609C189.643 185.155 190.325 185.564 190.904 185.36C192.336 184.848 193.7 184.2 195.063 183.518C196.018 183.006 196.018 181.199 194.723 181.199Z" fill="#ACB636"/>
<path d="M203.791 173.969C203.348 174.106 202.939 174.003 202.461 173.867C201.95 173.73 201.575 173.765 201.064 173.901C200.416 174.071 200.28 174.992 200.791 175.401C200.825 175.436 200.859 175.436 200.893 175.47C200.757 175.538 200.62 175.606 200.484 175.708C199.7 176.322 199.7 177.209 200.075 178.027C200.314 178.607 200.961 178.982 201.575 178.744C202.223 178.505 202.905 178.232 203.416 177.789C204.098 177.209 204.575 176.356 205.087 175.674C205.734 174.822 204.712 173.696 203.791 173.969Z" fill="#ACB636"/>
<path d="M95.9923 111.084C95.6514 108.663 92.6854 107.129 90.5035 107.776C89.3444 108.118 88.3216 108.97 87.5716 110.027C86.5489 110.846 85.867 112.005 85.5602 113.506C85.4579 114.051 85.7988 114.529 86.2761 114.767C86.3443 114.802 86.3784 114.836 86.4466 114.836C86.617 115.108 86.8898 115.279 87.2648 115.313C87.708 115.347 88.1512 115.347 88.5603 115.313C91.8672 115.62 96.4696 114.426 95.9923 111.084Z" fill="#ACB636"/>
<path d="M94.083 122.304C93.5375 122.236 93.0261 122.236 92.5489 122.27C91.1511 122.134 89.7192 122.202 88.4919 123.055C86.8896 124.18 86.2078 125.885 85.9009 127.761C85.7987 128.477 86.3782 129.022 87.026 129.125C90.9465 129.909 94.2875 127.59 95.2762 123.805C95.4808 122.986 94.833 122.407 94.083 122.304Z" fill="#ACB636"/>
<path d="M100.97 113.71C99.8104 113.915 98.2763 114.222 97.5604 115.279C97.4581 115.415 97.424 115.586 97.3558 115.722C96.5717 116.166 96.0262 116.882 95.6512 117.666C95.3103 118.348 96.0603 119.167 96.7763 119.03C97.9013 118.792 98.9581 118.519 99.8786 117.837C100.663 117.223 101.14 116.234 101.754 115.484C102.265 114.836 101.992 113.54 100.97 113.71Z" fill="#ACB636"/>
<path d="M119.209 92.8399C116.516 92.4306 114.163 92.3624 111.879 94.0335C110.959 94.7155 111.538 95.875 112.425 96.1819C112.527 96.4206 112.731 96.6593 113.004 96.7616C114.266 97.2732 115.527 97.7165 116.891 97.4437C118.391 97.1709 119.243 95.6363 119.857 94.4086C120.164 93.897 119.959 92.9763 119.209 92.8399Z" fill="#ACB636"/>
<path d="M106.629 96.4547C106.629 96.4547 106.595 96.4547 106.629 96.4547C106.458 96.2501 106.22 96.1478 105.947 96.1137C105.368 95.9091 104.652 95.8067 104.14 96.1819C104.038 96.2501 103.936 96.3524 103.867 96.4547C103.697 96.5229 103.527 96.6252 103.356 96.7616C102.913 97.1367 102.606 97.6824 102.299 98.1939C102.129 98.5008 102.129 98.9442 102.299 99.2511C102.504 99.5239 102.845 99.7967 103.22 99.7626C103.765 99.6944 104.242 99.3875 104.686 99.0806C104.788 99.0464 104.89 98.9783 104.958 98.9101C105.197 98.7736 105.47 98.6031 105.708 98.4667C105.811 98.3985 105.913 98.3303 106.015 98.2962C106.186 98.2621 106.356 98.1939 106.458 98.0575C106.527 97.9893 106.629 97.9211 106.663 97.8188C106.97 97.3072 106.902 96.8639 106.629 96.4547Z" fill="#ACB636"/>
<path d="M82.7644 160.635C82.5939 160.465 82.3553 160.362 82.1166 160.328C82.0825 160.328 82.0484 160.294 82.0144 160.294C81.6393 160.26 81.2302 160.26 80.8552 160.328C80.5825 160.226 80.2416 160.226 79.9688 160.465C79.4575 160.908 78.8438 161.283 78.3665 161.761C77.787 162.306 77.5483 162.92 77.3779 163.602C77.3438 163.704 77.2756 163.773 77.2074 163.875C76.5256 165 78.0256 166.228 79.0484 165.546C79.1847 165.444 79.3211 165.341 79.4916 165.239C80.0029 165.034 80.5143 164.83 80.9575 164.523C81.7416 164.011 82.2871 163.227 82.8326 162.443C82.8667 162.409 82.9007 162.374 82.9348 162.374C83.4462 161.795 83.2758 161.045 82.7644 160.635Z" fill="#ACB636"/>
<path d="M83.6848 168.104C83.4461 168.104 83.2075 168.172 82.9689 168.24C82.4916 168.138 81.912 168.308 81.7415 168.922C81.537 169.536 81.1279 170.082 80.8892 170.661C80.5483 171.514 80.6847 172.435 80.9574 173.253C81.2302 174.037 82.3893 174.208 82.9007 173.526C83.8211 172.332 84.3325 171.036 84.878 169.604C85.2189 168.854 84.5371 168.07 83.6848 168.104Z" fill="#ACB636"/>
<path d="M76.6963 186.417C76.4236 186.11 75.9804 186.041 75.7076 186.348C75.4008 186.689 75.2985 187.099 75.2303 187.542C74.9917 187.644 74.8553 187.883 74.8894 188.156C74.8894 188.224 74.9235 188.292 74.9235 188.36C74.9235 188.429 74.9917 188.463 75.0258 188.531C74.9576 188.838 74.8894 189.145 74.8212 189.452C74.7872 189.486 74.7872 189.554 74.7872 189.724C74.7531 190.713 76.3554 191.157 76.7304 190.202C77.1395 189.145 77.5145 187.371 76.6963 186.417Z" fill="#ACB636"/>
<g opacity="0.4">
<path opacity="0.4" d="M207.677 126.772C199.223 118.383 187.256 114.836 175.699 113.404C168.881 112.551 161.926 112.994 155.21 114.324C150.471 115.245 146.176 116.677 142.05 118.621C141.88 118.178 141.437 117.871 140.823 118.076C140.687 118.11 140.55 118.178 140.414 118.246C140.039 102.627 129.811 86.8379 113.686 84.6895C110.584 84.2803 107.515 84.2803 104.515 84.6554C109.118 86.5992 114.3 86.8379 118.561 89.532C121.084 91.1348 122.686 93.7948 124.186 96.3184C125.857 99.1148 127.596 102.082 128.55 105.253C130.221 110.778 129.402 115.211 125.311 119.372C120.368 124.453 115.322 129.295 110.686 134.649C105.299 140.822 98.9583 146.722 94.3559 153.474C90.0603 159.749 87.2307 166.842 84.2306 173.765C78.435 187.167 73.8667 201.012 72.5371 215.54C72.7417 215.233 72.9803 214.926 73.1849 214.619C76.4918 204.525 79.6964 194.362 84.742 185.018C90.5717 174.208 98.9242 165.171 107.243 156.236C122.107 140.276 137.38 122.032 160.324 118.655C168.642 117.428 177.336 118.042 184.563 122.748C190.666 126.738 194.893 134.07 195.132 141.367C195.677 157.907 181.733 169.911 167.688 175.845C151.051 182.836 132.812 184.064 115.97 190.407C105.811 194.226 96.4355 199.546 86.4807 203.775C81.0942 206.06 78.2986 209.026 75.2645 213.903C75.0599 214.21 74.8554 214.551 74.6508 214.858C74.5144 215.199 74.4122 215.574 74.3099 215.915C79.4578 210.697 87.2307 208.037 94.1173 206.23C101.106 204.389 108.265 203.468 115.425 202.615C138.028 199.955 161.142 204.116 183.268 197.466C197.62 193.169 211.427 183.893 217.019 169.502C222.61 155.179 218.484 137.514 207.677 126.772Z" fill="#668439"/>
</g>
<path opacity="0.6" d="M170.244 129.636C169.017 125.135 164.04 122.918 159.71 122.509C148.119 121.452 134.516 133.694 125.754 140.14C119.379 144.846 113.583 150.711 108.061 156.372C104.788 159.714 92.7874 171.821 95.6852 177.618C98.1399 182.495 113.481 178.3 117.061 177.243C121.936 175.811 126.709 174.037 131.379 172.128C145.255 166.467 159.914 158.521 166.937 144.607C168.915 140.651 171.506 134.206 170.244 129.636Z" fill="#B1C235"/>
<path opacity="0.6" d="M119.686 101.434C117.948 93.1809 107.959 88.0655 100.322 91.5099C98.3449 92.3965 96.538 93.4878 94.8334 94.7155C82.2535 99.5239 74.2419 115.927 69.9804 128.477C66.9121 137.582 64.6962 146.926 65.003 156.577C65.1734 161.999 68.4463 171.684 75.6397 166.91C80.6171 163.602 83.8217 158.078 87.64 153.576C92.5151 147.847 97.7312 142.425 102.64 136.729C107.175 131.444 111.197 125.851 114.539 119.747C117.198 114.972 120.914 107.129 119.686 101.434Z" fill="#B1C235"/>
<path opacity="0.4" d="M98.7199 20.4748C84.4354 20.8499 69.1281 27.7044 58.4914 37.1167C50.4116 44.2782 55.1163 52.2581 65.2416 50.9963C69.844 50.4166 74.3101 49.0184 78.6397 47.1087C83.5149 46.6653 88.765 45.0966 91.2537 44.6874C100.834 43.0505 122.823 47.1087 124.255 32.7516C125.414 21.1909 105.777 20.3042 98.7199 20.4748Z" fill="#B1C235"/>
<path opacity="0.4" d="M53.6163 53.6222C45.8093 50.9622 41.6842 58.3965 38.7182 64.3303C38.2068 65.3193 38.5136 66.3423 39.1613 67.0585C39.4 68.218 40.2864 69.2069 41.6842 68.9341C43.6274 68.5931 45.3661 67.8429 46.8661 66.7857C48.9116 65.6262 50.7526 63.8188 51.8435 61.7726C52.9004 60.3404 53.855 58.8057 54.7073 57.3052C55.4573 56.0093 55.2527 54.1678 53.6163 53.6222Z" fill="#B1C235"/>
<path opacity="0.4" d="M97.0833 60.6475C94.1173 61.466 91.2195 62.3867 88.3558 63.4098C80.3442 64.5011 72.5371 66.7518 64.9687 69.6164C58.0481 72.2423 49.6274 76.471 46.9341 83.8371C46.3205 85.474 47.4455 87.3155 49.2183 87.486C65.5824 88.9865 82.0829 89.0888 98.1061 85.133C106.561 83.0527 122.789 78.1079 122.993 67.2634C123.232 54.7819 103.493 58.9083 97.0833 60.6475Z" fill="#B1C235"/>
<path opacity="0.4" d="M45.6724 84.9622C44.2405 83.3935 42.5018 83.8368 40.7291 84.6553C38.0358 85.8489 35.6835 87.9291 33.0925 89.3614C32.3765 89.7706 32.1379 90.4868 32.2402 91.2029C31.1151 92.6011 32.2061 94.7837 34.1152 94.5109C38.5813 93.9311 44.036 93.3173 45.8769 88.4748C46.3201 87.2812 46.5929 85.9512 45.6724 84.9622Z" fill="#B1C235"/>
<path opacity="0.4" d="M75.3668 175.367C74.1736 172.503 71.5485 170.354 68.412 171.207C66.0938 171.821 64.4915 173.935 63.6733 176.083C63.0596 177.652 62.8551 179.187 63.0596 180.653C63.0255 181.165 63.0255 181.676 63.0937 182.222C63.5028 185.257 65.6165 189.076 68.9575 189.588C71.7871 190.031 73.969 187.917 75.1282 185.564C76.6964 182.29 76.7305 178.709 75.3668 175.367Z" fill="#B1C235"/>
<path opacity="0.4" d="M252.133 9.01657C249.167 7.31146 245.178 5.87916 240.746 4.92429C240.508 4.71968 240.235 4.54917 239.86 4.44686C229.394 2.0597 202.939 -1.14592 200.279 14.0978C200.007 15.6324 201.063 16.9624 202.529 17.3034C211.155 19.1791 220.155 19.5883 228.985 19.5201C236.383 19.4519 246.644 19.1109 252.269 13.4499C253.429 12.2904 253.838 10.0055 252.133 9.01657Z" fill="#B1C235"/>
<path opacity="0.4" d="M265.668 13.5521C264.134 11.9152 261.952 11.0967 259.804 11.0967C257.349 10.8239 254.827 11.6083 252.986 13.4498C251.52 14.9503 252.167 17.4398 254.383 17.7126C257.827 18.0877 261.338 18.4628 264.747 17.5762C266.622 17.0988 266.827 14.8139 265.668 13.5521Z" fill="#B1C235"/>
<path opacity="0.4" d="M272.35 26.5451C264.645 25.6243 253.974 25.7266 244.803 28.4548C233.417 30.4668 223.496 34.5591 227.212 42.4368C235.019 59.0787 268.088 41.4137 274.122 30.5351C274.906 29.1028 274.156 26.7497 272.35 26.5451Z" fill="#B1C235"/>
<path opacity="0.4" d="M248.008 92.2603C247.838 90.7939 247.19 89.3957 246.201 88.1339C246.474 87.5883 246.508 86.9062 246.099 86.2924C241.94 79.9835 234.508 77.835 226.973 77.9032C220.496 76.3004 213.303 76.7779 208.462 81.5863C207.541 82.473 206.927 83.3255 206.518 84.1099C205.189 85.4058 204.336 87.0086 204.473 88.8501C204.882 94.0336 209.962 96.2162 214.257 97.6144C220.291 99.5582 226.701 100.513 232.974 101.195C237.235 101.673 243.338 102.286 246.781 99.1149C249.133 96.9664 249.167 94.5793 248.008 92.2603Z" fill="#B1C235"/>
<path opacity="0.4" d="M254.349 103.309C252.235 101.877 249.815 101.911 247.769 102.9C245.962 103.343 244.292 104.162 242.894 105.458C241.462 106.788 240.849 109.175 242.076 110.812C243.712 113.063 246.678 113.267 249.235 113.404C251.349 113.506 253.633 113.165 255.406 111.903C258.713 109.55 257.145 105.253 254.349 103.309Z" fill="#B1C235"/>
<path opacity="0.4" d="M287.691 89.4296C286.327 82.6432 280.395 76.2661 274.327 73.3674C271.94 72.242 267.645 70.7756 263.963 70.912C260.11 70.1959 256.429 70.6051 254.417 73.6061C250.462 79.5058 256.599 84.0414 260.656 87.4857C265.463 91.5439 271.77 97.5459 278.043 99.1828C284.554 100.854 288.918 95.3634 287.691 89.4296Z" fill="#B1C235"/>
<path opacity="0.4" d="M286.498 103.378C286.259 103.344 286.021 103.309 285.748 103.309C285.169 102.559 284.146 102.252 283.123 102.423C281.487 102.662 279.884 103.139 278.623 104.264C277.225 105.56 276.85 107.299 276.782 109.107C276.748 109.925 277.464 110.948 278.214 111.221C282.373 112.688 286.328 111.324 288.475 107.402C289.464 105.663 288.578 103.616 286.498 103.378Z" fill="#B1C235"/>
</svg>
