<svg width="374" height="280" viewBox="0 0 374 280" fill="none" xmlns="http://www.w3.org/2000/svg">
<path d="M373.092 168.592C365.722 169.645 359.021 164.825 353.054 161.027C347.981 157.803 342.907 155.09 337.483 152.569C330.782 149.473 321.976 144.877 314.062 145.802C316.232 144.206 318.306 142.515 320.284 140.759C326.506 135.174 331.867 128.503 336.111 121.289C338.376 117.395 340.514 113.31 341.79 108.969C342.461 106.639 342.939 104.245 343.609 101.883C344.566 98.5957 346.194 96.1381 348.14 93.3612C348.3 93.1378 348.172 92.8825 347.949 92.7867C347.885 92.5633 347.662 92.3718 347.374 92.4675C342.78 94.4145 337.515 93.7762 332.633 93.2974C326.283 92.691 320.029 91.4143 313.679 90.9036C309.595 90.5844 305.383 90.6482 301.235 91.0312C302.639 88.1267 302.926 84.3604 303.437 81.424C304.362 76.0618 304.905 70.6357 305.479 65.2097C306.053 59.8794 306.532 54.5491 307.138 49.2508C307.84 43.0906 309.372 37.09 310.138 30.9618C310.138 30.9299 310.138 30.9299 310.138 30.9299C310.361 30.5469 310.552 30.1319 310.744 29.717C310.776 29.5893 310.616 29.5255 310.552 29.6532C310.393 30.0043 310.201 30.3554 309.978 30.6745C309.882 30.6426 309.755 30.6426 309.691 30.7703C309.563 31.0575 309.436 31.3448 309.308 31.6321C306.053 35.8772 300.087 38.0157 295.332 39.7711C289.684 41.8458 284.164 43.9205 278.836 46.7612C272.901 49.953 267.381 53.8788 262.212 58.1558C261.095 59.0814 258.127 61.1242 256.053 63.2946C256.341 60.3582 257.074 57.5813 258.51 55.5705C258.574 55.5386 258.67 55.5066 258.734 55.5066C258.893 55.4428 258.925 55.2513 258.829 55.1555C259.308 54.581 259.818 54.0703 260.425 53.6554C260.52 53.5916 260.393 53.432 260.297 53.4639C259.499 53.9427 258.861 54.4853 258.255 55.0917C243.992 57.8048 229.601 59.8475 215.466 63.167C216.551 54.1661 215.53 44.4311 213.009 35.8133C209.818 24.8655 202.288 15.0348 203.341 3.12943C203.341 3.00176 203.309 2.90601 203.309 2.84218C203.564 2.07615 203.82 1.31011 203.979 0.512163C204.043 0.161067 203.692 -0.0942811 203.373 0.0333903C203.341 0.0333903 203.341 0.0333903 203.341 0.0333903C203.086 0.129144 203.022 0.352563 203.086 0.575988C202.926 0.54407 202.767 0.671757 202.671 0.990936C202.384 1.43779 202.129 1.88464 201.873 2.36341C201.076 3.70396 200.182 4.85299 199.225 6.06587C197.023 8.74697 194.375 10.9812 191.854 13.3431C186.653 18.2904 181.58 23.3015 176.857 28.7275C168.593 38.2072 159.818 49.8253 156.755 62.3052C155.989 61.6349 155.256 60.9646 154.458 60.2943C147.342 54.3257 138.887 50.0487 130.24 46.7292C119.423 42.548 107.968 39.7712 98.6186 32.4939C98.491 32.3981 98.3315 32.5577 98.4272 32.6854C99.7354 33.8983 101.012 35.0154 102.352 36.0368C104.777 42.165 105.064 47.5591 104.681 54.1342C104.49 57.7728 104.617 61.3476 105.032 64.9224C102.703 62.8158 99.1611 61.3795 96.9275 60.422C90.9926 57.9005 84.8981 56.2089 78.5165 55.4428C70.5076 54.5172 62.371 54.996 54.3302 54.3257C50.6607 54.0384 46.9594 54.1342 43.258 53.815C39.7162 53.4958 37.4188 49.6976 34.0685 48.5805C33.9728 48.5485 33.877 48.7081 33.9728 48.772C35.3448 49.8253 36.5892 51.0062 37.8656 52.1233C37.8656 52.1872 37.8975 52.283 37.9613 52.3468C47.8209 61.2838 48.8101 75.9341 52.0647 88.0309C53.5325 93.5208 55.7022 98.8192 59.1164 103.415C61.7009 106.863 66.551 111.522 71.3053 111.203C63.9664 114.363 57.0104 118.321 50.2778 122.566C41.184 128.311 33.3027 136.035 22.6454 138.717C21.8796 138.908 22.1987 140.057 22.9645 139.897C23.8898 139.706 24.7513 139.483 25.6447 139.195C25.7086 139.451 25.9 139.706 26.2191 139.674C35.0576 138.748 42.3646 142.068 48.842 147.143C39.8439 149.473 32.505 155.186 26.1234 161.953C20.2204 168.177 15.2108 175.294 11.2223 182.923C9.33969 185.54 7.61665 188.253 5.98934 191.094C4.39393 193.871 2.28799 197.35 1.42647 200.733C0.884036 201.627 0.405414 202.584 0.0225169 203.637C-0.105116 203.957 0.341598 204.148 0.564955 203.893C0.724496 203.669 0.852128 203.51 1.01167 203.286C1.01167 203.318 1.01167 203.382 1.01167 203.446C1.01167 203.957 1.71365 204.276 2.00082 203.765C2.57517 202.776 3.05379 201.69 3.46859 200.605C7.84001 196.616 13.3282 195.275 19.7736 196.296C28.0698 197.605 35.8873 200.765 43.5452 204.148C50.4374 207.212 57.17 210.659 64.2536 213.34C67.0615 214.394 69.8375 215.064 72.805 215.543C76.5701 216.117 79.6333 215.926 82.505 214.33C80.2715 219.756 78.6761 225.565 77.8145 231.374C76.953 237.183 75.9958 244.045 76.953 249.95C76.8892 250.94 76.953 251.993 77.1126 253.078C77.1445 253.238 77.3997 253.27 77.4316 253.11C78.4527 248.961 79.378 245.035 82.6646 242.067C85.2172 239.737 88.5995 238.524 91.886 237.63C98.5548 235.811 105.032 235.14 111.031 232.012C110.042 241.013 109.723 250.174 110.01 258.983C110.01 259.143 110.074 259.238 110.169 259.334C109.946 259.909 110.616 260.738 111.286 260.387C121.88 254.834 133.367 253.717 145.141 253.078C154.394 252.568 163.584 251.61 172.582 249.408C178.868 247.876 184.962 245.609 190.546 242.545C190.067 246.407 192.556 251.259 194.63 253.812C198.81 258.951 205.83 261.153 212.02 262.622C218.657 264.218 225.485 264.984 232.186 266.196C235.887 266.867 239.493 267.76 242.971 269.261C247.981 271.399 251.427 275.133 255.319 278.772C255.415 279.027 255.543 279.251 255.67 279.506C255.958 280.017 256.883 279.793 256.819 279.155C255.83 271.623 258.51 263.898 260.361 256.653C261.127 253.621 261.861 250.557 262.499 247.493C265.115 251.067 270.923 253.238 274.401 254.451C278.102 255.791 281.899 256.781 285.6 258.025C289.429 259.302 292.78 261.281 295.907 263.675C296.353 265.207 297.183 266.388 298.683 266.324C298.906 266.324 299.034 266.037 298.938 265.845C298.108 263.739 297.183 262.526 297.151 260.068C297.119 257.355 297.917 254.546 298.427 251.929C299.576 246.216 299.576 240.375 299.193 234.598C298.874 229.523 297.949 224.544 296.609 219.66C298.108 219.692 299.991 219.692 300.374 219.692C303.724 219.628 306.755 218.383 309.723 216.883C313.233 215.096 316.328 212.574 319.455 210.213C322.709 207.755 326.124 205.553 329.282 203.031C335.887 197.86 341.599 191.604 347.502 185.668C350.629 182.54 353.82 179.539 357.298 176.826C360.489 174.337 364.03 172.869 367.7 171.209C368.147 171.017 368.242 170.507 368.051 170.156C369.71 170.028 371.305 169.517 373.092 169.038C373.539 169.038 373.411 168.56 373.092 168.592Z" fill="#6C893A"/>
<path d="M320.093 94.0315C326.092 94.8613 331.995 95.8827 338.057 96.0742C340.163 96.1381 342.365 96.2019 344.279 95.6593C340.514 100.575 339.717 108.778 337.26 113.821C333.112 122.247 327.496 129.939 320.859 136.578C314.445 142.993 306.851 148.164 298.459 151.707C294.662 153.303 290.706 154.388 286.653 155.154C282.697 155.888 278.485 155.505 274.56 156.176C270.604 153.048 266.264 150.43 261.414 148.547C257.84 147.175 254.107 146.281 250.31 145.834C269.806 118.481 302.99 109.288 333.08 98.2766C333.558 98.0851 333.303 97.2552 332.792 97.3829C317.157 102.075 301.586 107.245 286.845 114.331C271.88 121.545 256.819 131.184 247.757 145.483C247.757 145.515 247.757 145.515 247.725 145.547C244.758 145.355 241.791 145.387 238.855 145.675C243.609 141.781 246.96 135.11 249.066 130.29C251.172 125.566 252.639 120.619 253.756 115.576C257.585 109.639 262.276 105.203 268.849 101.819C276.507 97.8616 284.994 95.755 293.45 94.4464C302.32 93.042 311.191 92.8186 320.093 94.0315Z" fill="#5B7835"/>
<path d="M265.594 178.933C259.276 175.837 253.15 172.645 246.449 170.347C240.163 168.177 233.239 167.283 226.666 166.677C221.082 166.198 215.498 166.421 209.946 167.283C207.362 167.698 204.33 168.528 202.161 170.251C202.863 166.23 207.585 162.368 210.265 160.038C215.275 155.697 221.114 152.633 227.368 150.558C239.557 146.536 253.373 147.111 264.924 152.792C274.847 157.676 282.218 166.389 288.089 175.518C290.993 179.986 293.514 184.678 295.939 189.402C297.151 191.796 298.427 194.126 299.64 196.52C301.108 199.488 302.958 202.01 304.075 205.042C292.78 195.85 274.784 201.659 261.861 204.084C252.958 205.776 243.705 207.244 234.739 205.521C227.751 204.148 220.412 200.733 216.647 194.477C215.498 187.072 212.244 180.082 206.564 174.528C205.607 173.603 204.618 172.805 203.597 172.103C206.564 170.092 210.552 169.581 213.935 169.198C218.21 168.688 222.422 168.241 226.762 168.273C240.865 168.368 252.544 174.656 265.434 179.316C265.658 179.444 265.849 179.029 265.594 178.933Z" fill="#9BA93A"/>
<g opacity="0.5">
<path opacity="0.5" d="M190.706 167.762C189.589 167.698 188.44 167.73 187.291 167.794C187.291 166.453 184.707 159.08 184.547 158.41C183.782 155.473 183.877 152.505 183.367 149.569C183.782 149.505 184.228 149.441 184.675 149.345C185.377 150.367 186.143 151.388 187.132 152.314C189.206 154.356 191.439 155.665 193.737 156.463C191.535 159.527 190.067 164.857 190.706 167.762Z" fill="#5B7835"/>
</g>
<g opacity="0.5">
<path opacity="0.5" d="M153.341 166.166C153.309 165.974 153.213 165.815 153.149 165.623C154.234 164.315 155.16 162.814 155.925 161.25C156.308 161.633 156.755 162.017 157.042 162.368C157.776 163.293 158.446 164.283 159.116 165.24C159.371 165.623 159.659 166.102 159.946 166.549C157.744 166.389 155.543 166.485 153.341 166.772C153.437 166.613 153.437 166.421 153.341 166.166Z" fill="#5B7835"/>
</g>
<g opacity="0.3">
<path opacity="0.3" d="M156.691 159.623C157.489 157.676 158.095 155.601 158.478 153.494C159.053 155.058 159.659 156.399 159.914 156.973C161.19 160.133 162.754 163.134 164.477 166.038C164.764 166.517 165.083 167.028 165.37 167.538C164.445 167.251 163.488 167.028 162.499 166.868C161.797 165.623 160.712 164.442 159.978 163.453C159.531 162.783 158.063 160.357 156.691 159.623Z" fill="#A4B439"/>
</g>
<g opacity="0.5">
<path opacity="0.5" d="M162.69 158.793C161.446 156.271 160.393 153.686 159.531 151.037C159.308 150.399 159.244 149.537 159.117 148.675C159.563 141.494 158.191 134.025 155.671 128.248C154.586 125.726 153.15 123.46 151.522 121.385C152.48 120.938 153.245 120.364 153.916 119.694C155.543 128.184 159.372 136.355 161.861 144.558C163.328 149.441 165.02 154.229 166.583 159.08C167.636 162.432 168.434 166.006 169.551 169.358C169.295 169.198 169.072 169.039 168.817 168.911C166.87 165.528 164.445 162.336 162.69 158.793Z" fill="#5B7835"/>
</g>
<g opacity="0.3">
<path opacity="0.3" d="M163.711 144.206C160.999 135.461 157.457 126.971 155.16 118.097C155.638 117.268 156.021 116.342 156.308 115.384C156.723 115.353 157.138 115.321 157.553 115.257C158.223 115.161 158.861 115.001 159.435 114.746C159.18 118.225 159.467 121.768 160.425 125.343C161.541 129.652 163.296 134.024 165.657 137.95C165.753 143.057 168.561 148.579 170.125 153.143C172.103 158.92 173.315 164.921 175.645 170.57C175.645 170.57 175.645 170.57 175.645 170.602C174.56 171.049 173.507 171.528 172.454 172.039C172.454 171.879 172.39 171.751 172.326 171.624C169.646 162.431 166.583 153.335 163.711 144.206Z" fill="#A4B439"/>
</g>
<g opacity="0.5">
<path opacity="0.5" d="M172.135 153.59C171.21 150.782 170.093 148.005 169.072 145.228C168.625 143.983 168.306 142.674 167.987 141.398C168.689 142.323 169.423 143.249 170.188 144.111C172.135 146.249 174.847 148.069 177.751 149.026C176.698 152.505 177.464 156.399 178.166 159.878C178.772 162.815 179.442 166.07 180.463 169.007C179.378 169.294 178.325 169.645 177.24 170.028C177.24 169.932 177.24 169.868 177.208 169.773C175.102 164.442 173.922 158.953 172.135 153.59Z" fill="#5B7835"/>
</g>
<g opacity="0.3">
<path opacity="0.3" d="M180.272 160.485C179.283 156.718 179.059 153.016 178.581 149.218C179.889 149.569 181.197 149.696 182.505 149.632C180.974 153.112 182.378 157.676 183.335 161.187C183.718 162.527 184.26 165.879 185.377 168.017C184.388 168.145 183.399 168.304 182.441 168.496C182.027 165.783 180.942 163.07 180.272 160.485Z" fill="#A4B439"/>
</g>
<g opacity="0.3">
<path opacity="0.3" d="M192.556 165.942C192.716 164.315 193.162 162.687 193.705 161.155C194.183 159.75 194.885 158.41 195.843 157.229C195.875 157.165 195.938 157.133 196.002 157.069C197.087 157.261 198.204 157.388 199.321 157.388C197.534 160.453 196.257 165.655 196.736 168.751C195.396 168.368 193.992 168.081 192.588 167.889C192.556 167.283 192.492 166.613 192.556 165.942Z" fill="#A4B439"/>
</g>
<g opacity="0.5">
<path opacity="0.5" d="M198.714 169.485C198.682 169.358 198.618 169.23 198.587 169.07C198.172 167.315 198.714 165.304 199.161 163.612C199.576 161.889 200.31 160.197 201.107 158.601C201.331 158.186 201.618 157.772 201.873 157.325C205.638 157.005 209.499 155.888 213.328 154.516C210.999 156.112 208.797 157.867 206.723 159.814C204.17 162.176 200.214 166.038 199.895 169.964C199.544 169.836 199.129 169.645 198.714 169.485Z" fill="#5B7835"/>
</g>
<path d="M256.66 66.8374C257.298 65.5926 258.542 64.5712 259.595 63.6775C261.956 61.571 264.477 59.5602 266.966 57.6132C272.997 52.8574 279.697 49.0272 286.685 45.7716C293.801 42.4522 303.469 39.9307 308.574 33.4194C305.032 42.3883 304.266 53.0808 303.277 62.4327C302.703 67.7311 302.097 73.0614 301.331 78.3598C300.725 82.6048 300.246 87.2329 298.746 91.3184C295.587 91.6695 292.46 92.1802 289.429 92.7547C278.9 94.7974 264.988 99.1383 256.851 107.756C259.723 102.362 262.945 97.0636 265.945 91.7652C269.774 84.9987 273.571 78.264 277.783 71.7528C285.345 60.1028 294.694 49.6018 305 40.3456C305.192 40.186 304.905 39.9307 304.713 40.0903C293.067 49.506 284.069 60.9964 275.358 73.0614C271.082 78.9662 267.253 85.2859 263.679 91.6376C260.489 97.2871 257.042 103.064 254.937 109.256C255.415 106.128 255.798 102.937 256.053 99.7766C256.691 91.6376 256.34 83.4666 256.053 75.3276C255.989 73.4763 255.83 71.0825 255.798 68.561C256.181 68.0822 256.213 67.7311 256.66 66.8374Z" fill="#576B30"/>
<g opacity="0.3">
<path opacity="0.3" d="M215.147 65.5289C229.187 62.0179 243.992 60.3582 257.585 55.9216C255.32 58.6666 254.49 62.369 254.107 66.0396C253.852 66.6779 253.788 67.2844 253.916 67.8589C253.916 68.0185 253.916 68.1781 253.884 68.3377C253.309 76.6363 254.235 84.9988 253.82 93.3613C253.278 104.82 251.554 116.087 247.47 126.843C245.843 131.12 243.801 135.174 241.184 138.908C238.983 142.1 236.239 144.111 233.463 146.473C230.208 147.111 226.985 147.973 223.922 149.122C215.785 150.526 206.404 155.505 198.14 154.739C198.108 154.644 198.013 154.548 197.917 154.484C197.279 154.133 196.641 154.165 196.002 154.42C193.099 153.75 190.355 152.25 187.93 149.409C178.613 138.621 186.334 123.683 192.333 113.501C199.193 101.851 208.574 91.7654 218.912 83.1157C229.729 74.051 241.854 67.3801 253.629 59.7199C253.884 59.5603 253.66 59.1134 253.405 59.2411C239.844 65.3693 226.89 74.402 215.594 84.0732C203.979 94.0315 194.279 106.065 186.909 119.47C182.346 127.737 179.059 138.525 183.335 147.207C180.591 146.76 178.006 146.536 175.454 145.036C172.869 143.536 170.923 141.11 169.232 138.685C164.988 132.493 162.244 124.928 161.893 117.427C161.254 102.937 172.071 90.1376 182.346 81.2006C191.663 73.0934 202.544 68.8164 213.999 65.8481C214.382 66.0715 214.956 66.0077 215.147 65.5289Z" fill="#A4B439"/>
</g>
<path d="M158.606 63.9649C163.488 50.336 171.656 38.5264 181.261 27.802C185.696 22.8547 190.482 18.2905 195.236 13.6943C197.566 11.4281 200.023 8.90661 201.778 6.06592C201.363 14.2688 205.032 21.8653 208.127 29.3979C210.393 34.9835 211.924 40.6649 212.754 46.6335C213.52 52.0914 214.286 58.0601 213.839 63.6138C213.073 63.8053 212.307 63.9649 211.541 64.1564C201.363 66.7098 192.205 70.923 184.069 76.8597C185.153 73.4126 185.409 69.4867 185.983 66.0714C186.876 60.3901 187.642 54.7406 188.727 49.1231C190.801 38.4306 194.566 27.7062 198.3 17.4925C198.331 17.4287 198.204 17.3968 198.172 17.4287C194.151 26.8764 190.418 36.1325 187.706 46.059C184.866 56.4004 183.558 67.5078 182.345 78.1683C178.453 81.2005 174.783 84.6796 171.433 88.5416C170.795 89.2757 170.188 90.0098 169.582 90.7759C170.699 87.0734 169.327 82.1262 168.178 78.7748C166.2 73.0615 162.722 68.2738 158.542 64.0607C158.574 64.0287 158.606 63.9968 158.606 63.9649Z" fill="#576B30"/>
<path d="M104.649 37.7922C108.893 40.7925 113.424 43.1544 118.593 45.1334C126.73 48.2294 134.739 50.7509 142.333 55.1556C149.927 59.5921 157.234 65.1139 162.18 72.5189C163.616 74.6574 164.764 76.9555 165.69 79.3493C167.221 83.2114 168.88 87.3288 167.796 91.51C166.806 95.404 164.19 98.5958 162.626 102.234C161.223 105.426 160.233 108.809 159.723 112.257C159.244 112.448 158.861 112.799 158.383 112.991C157.872 113.214 157.33 113.406 156.787 113.565C156.755 113.565 156.723 113.565 156.723 113.597C157.234 110.597 157.043 107.341 156.66 104.66C155.575 96.8084 152.001 89.3715 147.757 82.7645C138.312 68.1462 124.464 56.8472 111.797 45.1653C111.669 45.0376 111.478 45.261 111.605 45.3887C122.199 56.2089 133.08 66.4226 142.141 78.6471C146.641 84.6796 150.438 91.2866 152.767 98.4681C153.947 102.075 154.554 105.873 154.681 109.671C154.809 114.299 153.309 117.044 149.831 119.534C143.45 112.703 134.324 108.586 125.262 106.479C124.401 106.288 123.539 106.096 122.646 105.937C123.06 105.554 122.965 104.724 122.486 104.341C117.54 100.256 115.562 93.8081 113.36 87.9033C110.808 81.041 109.053 73.9233 107.84 66.7418C106.723 60.1348 107.266 53.6874 106.915 47.0484C106.787 44.0162 106.404 40.3776 104.649 37.7922Z" fill="#5B7835"/>
<path d="M63.6794 105.107C61.2863 102.841 59.4356 100.16 57.9359 97.2232C55.3833 92.3079 53.9474 86.818 52.6073 81.4558C50.2142 72.04 48.1401 61.9859 41.5352 54.7725C43.322 55.6662 45.5556 55.8258 47.502 55.9854C54.4899 56.4641 61.5415 56.7833 68.5613 56.9748C81.2608 57.3259 97.2787 59.4006 105.798 69.8377C106.085 71.5293 106.436 73.2529 106.787 74.9446C108.415 82.2538 110.872 89.3714 113.871 96.2338C114.988 98.7872 116.455 103.288 119.136 105.235C114.924 104.564 110.68 104.213 106.436 104.149C106.436 104.054 106.436 103.958 106.404 103.862C105.67 101.341 101.905 99.0425 100.055 97.319C95.2046 92.7228 89.3335 89.0842 84.1644 84.9029C75.1663 77.6257 67.5084 68.3695 56.3724 64.2521C56.2448 64.2202 56.1491 64.4116 56.2767 64.4755C66.6149 69.2312 73.6666 77.8491 82.0266 85.1902C89.4293 91.7014 97.6935 96.9998 104.522 104.149C95.1089 104.245 85.7598 105.841 76.8894 109.033C75.5173 109.544 74.1772 110.054 72.8051 110.629C72.837 110.278 72.5499 109.863 72.1031 109.895C68.7847 110.246 65.8492 107.15 63.6794 105.107Z" fill="#576B30"/>
<path d="M28.644 138.174C33.3664 136.259 37.7379 133.482 42.0136 130.641C49.4162 125.694 56.8827 120.906 64.796 116.789C79.6651 109.065 95.2044 105.49 111.924 106.767C124.719 107.756 138.504 111.491 147.629 121.034C152.033 125.63 154.585 131.471 155.734 137.663C157.17 145.419 156.883 156.144 152.352 163.357C136.27 120.172 78.6122 115.576 42.0774 134.089C41.9497 134.152 42.0774 134.344 42.1731 134.28C60.1055 125.375 82.3454 122.821 101.937 126.364C112.02 128.184 121.848 132.11 130.271 137.951C140.131 144.813 146.576 154.612 150.565 165.783C150.182 166.198 149.831 166.581 149.416 166.964C149.193 167.155 149.129 167.411 149.129 167.634C147.502 168.049 145.97 168.528 144.566 169.102C137.546 171.943 131.963 177.497 127.527 183.593C107.138 195.658 85.1852 179.476 70.667 165.24C58.7334 153.526 47.055 136.546 28.644 138.174Z" fill="#9BA93A"/>
<g opacity="0.6">
<path opacity="0.6" d="M130.272 137.982C121.848 132.141 112.02 128.216 101.937 126.396C90.2588 124.29 77.6232 124.385 65.53 126.652C57.2658 128.886 49.2249 131.822 41.4074 135.525C40.5778 135.908 40.0992 134.535 40.9607 134.12C55.1918 127.386 70.38 122.885 86.0469 121.066C101.012 119.342 115.115 120.364 128.58 127.673C134.164 130.705 138.727 134.503 143.769 138.238C146.481 140.249 150.565 142.387 153.054 138.748C154.298 136.929 154.171 134.663 153.564 132.652C152.033 127.737 148.81 122.789 145.045 118.608C136.047 110.884 123.603 107.692 111.988 106.799C95.2684 105.49 79.7291 109.065 64.8599 116.821C56.9467 120.938 49.4802 125.726 42.0775 130.673C37.8337 133.514 33.4304 136.291 28.708 138.206C30.2396 138.046 31.7074 138.078 33.1113 138.174C43.9601 138.046 54.4579 140.855 64.4451 145.547C75.8363 150.877 86.366 158.186 98.0125 162.942C106.66 166.453 118.019 170.251 127.336 167.187C132.218 165.559 136.27 161.634 137.036 156.335C138.025 149.281 133.558 143.983 130.463 138.142C130.367 138.046 130.335 138.014 130.272 137.982Z" fill="#B3C936"/>
</g>
<path d="M60.0099 208.521C52.4477 205.233 45.1088 201.563 37.4509 198.499C28.3252 194.86 13.5198 190.455 5.03223 196.839C5.12795 196.647 5.19177 196.424 5.28749 196.232C6.30855 193.998 7.45724 191.828 8.63785 189.689C8.70166 189.594 8.73357 189.498 8.79739 189.434C8.8612 189.434 8.89311 189.402 8.95693 189.37C14.2856 181.806 19.1037 173.858 25.0386 166.74C31.8031 158.633 40.3226 152.09 50.2141 148.196C51.6819 149.441 53.1497 150.749 54.5536 152.154C60.0418 157.484 65.0833 163.197 70.4758 168.592C66.5192 168.24 62.1478 169.038 58.6379 169.453C52.5115 170.155 46.6723 171.273 40.8331 173.22C29.2186 177.114 18.8804 184.072 9.65891 192.019C9.27601 192.37 9.78654 192.977 10.1694 192.658C18.8804 185.444 28.7081 179.859 39.3335 176.028C44.9174 174.018 50.7885 172.837 56.6915 172.262C59.5313 171.975 62.403 171.751 65.2748 171.528C68.2103 171.336 71.0182 171.751 73.89 171.879C74.8153 172.741 75.7087 173.571 76.666 174.369C84.0687 180.848 92.4924 186.338 101.905 189.147C93.9283 194.062 88.121 202.424 84.1006 210.883C76.5702 215.447 67.3169 211.713 60.0099 208.521Z" fill="#5B7835"/>
<path d="M101.395 232.81C97.2465 233.832 93.0665 234.598 89.0142 235.938C84.4832 237.438 80.6862 240.247 78.644 244.045C79.697 234.247 81.2605 224.703 84.9938 215.319C89.1099 205.01 95.8425 197.413 103.277 189.53C103.851 189.689 104.426 189.849 105 190.009C109.212 190.998 113.998 191.19 118.497 190.296C116.008 192.019 113.711 194.158 111.541 195.881C106.596 199.807 102.033 204.148 97.6932 208.744C89.5247 217.426 82.2816 227.767 80.048 239.609C80.0161 239.832 80.3033 239.928 80.3671 239.705C87.5783 218.447 105.224 202.648 123.284 190.296C118.593 198.531 115.498 207.563 113.488 216.788C112.594 220.905 111.924 225.118 111.382 229.395C108 230.257 104.809 231.981 101.395 232.81Z" fill="#576B30"/>
<g opacity="0.3">
<path opacity="0.3" d="M147.342 250.429C134.962 251.099 122.39 252.121 111.478 258.472C113.392 247.014 113.36 235.3 115.147 223.81C116.71 213.564 119.614 203.701 124.305 194.445C128.389 186.402 133.973 178.742 141.695 173.858C145.332 171.56 149.416 170.22 153.692 169.709C156.915 169.326 160.169 169.517 163.296 170.251C165.849 170.858 168.21 172.039 170.731 172.581C170.763 172.677 170.795 172.773 170.859 172.837C168.434 174.145 166.104 175.646 163.998 177.241C154.809 184.231 147.087 193.966 140.801 203.606C134.228 213.692 127.623 223.746 121.433 234.023C121.401 234.055 121.465 234.119 121.497 234.055C133.111 216.756 143.8 198.243 159.595 184.295C166.104 178.55 173.156 173.347 181.58 171.273C181.899 171.464 182.409 171.369 182.569 171.049C183.335 170.89 184.069 170.73 184.834 170.634C194.63 169.198 203.15 173.539 208.797 181.423C220.571 197.828 212.882 221.065 199.161 233.513C185.409 245.992 165.275 249.472 147.342 250.429Z" fill="#A4B439"/>
</g>
<path d="M261.127 242.545C260.106 248.642 258.51 254.642 257.011 260.643C255.99 264.76 254.107 270.186 254.362 274.878C246.258 264.441 230.623 263.739 218.529 261.568C212.275 260.451 205.926 259.015 200.374 255.759C197.661 254.195 195.428 251.993 193.992 249.184C192.748 246.758 193.035 243.982 192.46 241.46C201.012 236.321 208.191 229.172 212.658 219.788C214.541 215.894 215.817 211.713 216.487 207.468C217.54 208.425 218.817 209.095 220.157 210.117C223.06 212.351 225.645 215.287 228.006 218.064C232.346 223.139 235.856 228.884 238.951 234.789C241.95 240.502 244.535 246.535 246.417 252.727C248.172 258.632 249.193 264.696 250.661 270.665C250.693 270.793 250.884 270.793 250.884 270.665C251.267 258.249 246.194 244.843 240.897 233.768C237.961 227.672 234.26 221.958 229.921 216.756C227.974 214.394 225.804 212.223 223.635 210.085C221.529 208.01 219.072 206.989 216.743 205.489C216.998 203.286 217.062 201.084 216.966 198.914C224.145 208.17 239.302 209.638 250.023 208.617C250.31 208.585 250.597 208.553 250.916 208.521C256.372 212.159 259.978 216.405 261.446 223.012C262.977 229.395 262.18 236.194 261.127 242.545Z" fill="#5B7835"/>
<path d="M296.832 244.014C296.768 248.897 295.62 253.621 295.492 258.504C295.46 259.238 295.46 260.388 295.556 261.6C291.025 257.483 285.218 255.568 279.219 253.685C275.581 252.568 271.912 251.323 268.561 249.472C266.2 248.163 264.637 246.407 263.105 244.46C263.584 241.907 263.999 239.354 264.254 236.768C265.243 227.48 263.839 216.469 256.692 210.276C273.89 217.65 282.793 239.098 289.685 255.121C289.78 255.345 290.163 255.217 290.036 254.993C285.856 245.099 282.346 234.949 276.57 225.82C271.944 218.511 264.35 210.468 255.639 207.915C263.329 206.766 270.923 204.946 278.613 203.797C280.942 203.446 283.303 203.127 285.664 202.967C287.196 205.457 288.887 207.755 290.163 210.404C291.759 213.724 292.939 217.203 293.928 220.714C296.13 228.278 296.896 236.194 296.832 244.014Z" fill="#576B30"/>
<path d="M346.896 182.923C340.227 189.37 334.069 196.233 326.73 201.978C323.284 204.691 319.551 207.085 316.041 209.766C312.786 212.223 309.532 214.553 305.798 216.245C302.639 217.649 299.64 217.458 296.29 217.777C296.226 217.777 296.162 217.777 296.098 217.809C295.811 216.852 295.492 215.926 295.173 215C293.769 210.947 291.918 206.351 289.11 202.872C290.61 202.872 292.078 202.967 293.578 203.191C298.332 203.893 302.288 206.319 306.149 209.032C306.851 209.51 307.426 208.521 306.979 207.978C306.245 207.085 305.479 206.287 304.65 205.585C303.788 199.073 300.693 193.105 297.726 187.296C296.194 184.327 294.599 181.391 292.907 178.486C293.195 178.391 293.482 178.295 293.769 178.135C293.865 178.103 293.96 178.039 294.024 177.976C295.269 177.784 297.407 177.848 298.109 177.752C301.172 177.401 304.171 176.858 307.202 176.507C312.02 175.933 316.902 175.454 321.752 175.135C331.165 174.529 340.77 174.018 350.183 173.89C350.438 173.89 350.438 173.539 350.183 173.507C345.237 173.443 340.323 172.964 335.377 172.996C329.889 173.028 324.433 173.475 318.945 173.507C314.094 173.507 309.213 174.082 304.394 174.656C301.331 175.007 298.268 175.454 295.205 175.741C293.801 175.869 292.652 175.646 291.695 176.444C290.546 174.592 289.398 172.741 288.185 170.954C284.962 166.262 281.325 161.985 277.177 158.25C279.825 158.442 282.601 158.123 285.058 157.835C289.717 157.357 294.28 156.048 298.651 154.388C302.831 152.792 306.819 150.686 310.585 148.228C321.88 147.015 332.378 152.761 342.333 157.58C347.502 160.07 352.129 163.645 357.107 166.453C359.627 167.858 362.244 169.007 365.02 169.837C365.307 169.932 365.626 169.996 365.913 170.06C358.351 171.72 352.193 177.784 346.896 182.923Z" fill="#5B7835"/>
<path opacity="0.4" d="M373.092 168.592C365.722 169.645 359.021 164.825 353.054 161.027C347.981 157.803 342.907 155.09 337.483 152.569C330.782 149.473 321.976 144.877 314.062 145.802C316.232 144.206 318.306 142.515 320.284 140.759C326.506 135.174 331.867 128.503 336.111 121.289C338.376 117.395 340.514 113.31 341.79 108.969C342.461 106.639 342.939 104.245 343.609 101.883C344.566 98.5957 346.194 96.1381 348.14 93.3612C348.3 93.1378 348.172 92.8825 347.949 92.7867C347.885 92.5633 347.662 92.3718 347.374 92.4675C342.78 94.4145 337.515 93.7762 332.633 93.2974C326.283 92.691 320.029 91.4143 313.679 90.9036C309.595 90.5844 305.383 90.6482 301.235 91.0312C302.639 88.1267 302.926 84.3604 303.437 81.424C304.362 76.0618 304.905 70.6357 305.479 65.2097C306.053 59.8794 306.532 54.5491 307.138 49.2508C307.84 43.0906 309.372 37.09 310.138 30.9618C310.138 30.9299 310.138 30.9299 310.138 30.9299C310.361 30.5469 310.552 30.1319 310.744 29.717C310.776 29.5893 310.616 29.5255 310.552 29.6532C310.393 30.0043 310.201 30.3554 309.978 30.6745C309.882 30.6426 309.755 30.6426 309.691 30.7703C309.563 31.0575 309.436 31.3448 309.308 31.6321C306.053 35.8772 300.087 38.0157 295.332 39.7711C289.684 41.8458 284.164 43.9205 278.836 46.7612C272.901 49.953 267.381 53.8788 262.212 58.1558C261.095 59.0814 258.127 61.1242 256.053 63.2946C256.341 60.3582 257.074 57.5813 258.51 55.5705C258.574 55.5386 258.67 55.5066 258.734 55.5066C258.893 55.4428 258.925 55.2513 258.829 55.1555C259.308 54.581 259.818 54.0703 260.425 53.6554C260.52 53.5916 260.393 53.432 260.297 53.4639C259.499 53.9427 258.861 54.4853 258.255 55.0917C243.992 57.8048 229.601 59.8475 215.466 63.167C216.551 54.1661 215.53 44.4311 213.009 35.8133C209.818 24.8655 202.288 15.0348 203.341 3.12943C203.341 3.00176 203.309 2.90601 203.309 2.84218C203.564 2.07615 203.82 1.31011 203.979 0.512163C204.043 0.161067 203.692 -0.0942811 203.373 0.0333903C203.341 0.0333903 203.341 0.0333903 203.341 0.0333903C203.086 0.129144 203.022 0.352563 203.086 0.575988C202.926 0.54407 202.767 0.671757 202.671 0.990936C202.384 1.43779 202.129 1.88464 201.873 2.36341C201.076 3.70396 200.182 4.85299 199.225 6.06587C197.023 8.74697 194.375 10.9812 191.854 13.3431C186.653 18.2904 181.58 23.3015 176.857 28.7275C168.593 38.2072 159.818 49.8253 156.755 62.3052C155.989 61.6349 155.256 60.9646 154.458 60.2943C147.342 54.3257 138.887 50.0487 130.24 46.7292C119.423 42.548 107.968 39.7712 98.6186 32.4939C98.491 32.3981 98.3315 32.5577 98.4272 32.6854C99.7354 33.8983 101.012 35.0154 102.352 36.0368C104.777 42.165 105.064 47.5591 104.681 54.1342C104.49 57.7728 104.617 61.3476 105.032 64.9224C102.703 62.8158 99.1611 61.3795 96.9275 60.422C90.9926 57.9005 84.8981 56.2089 78.5165 55.4428C70.5076 54.5172 62.371 54.996 54.3302 54.3257C50.6607 54.0384 46.9594 54.1342 43.258 53.815C39.7162 53.4958 37.4188 49.6976 34.0685 48.5805C33.9728 48.5485 33.877 48.7081 33.9728 48.772C35.3448 49.8253 36.5892 51.0062 37.8656 52.1233C37.8656 52.1872 37.8975 52.283 37.9613 52.3468C47.8209 61.2838 48.8101 75.9341 52.0647 88.0309C53.5325 93.5208 55.7022 98.8192 59.1164 103.415C61.7009 106.863 66.551 111.522 71.3053 111.203C63.9664 114.363 57.0104 118.321 50.2778 122.566C41.184 128.311 33.3027 136.035 22.6454 138.717C21.8796 138.908 22.1987 140.057 22.9645 139.897C23.8898 139.706 24.7513 139.483 25.6447 139.195C25.7086 139.451 25.9 139.706 26.2191 139.674C35.0576 138.748 42.3646 142.068 48.842 147.143C39.8439 149.473 32.505 155.186 26.1234 161.953C20.2204 168.177 15.2108 175.294 11.2223 182.923C9.33969 185.54 7.61665 188.253 5.98934 191.094C4.39393 193.871 2.28799 197.35 1.42647 200.733C0.884036 201.627 0.405414 202.584 0.0225169 203.637C-0.105116 203.957 0.341598 204.148 0.564955 203.893C0.724496 203.669 0.852128 203.51 1.01167 203.286C1.01167 203.318 1.01167 203.382 1.01167 203.446C1.01167 203.957 1.71365 204.276 2.00082 203.765C2.57517 202.776 3.05379 201.69 3.46859 200.605C7.84001 196.616 13.3282 195.275 19.7736 196.296C28.0698 197.605 35.8873 200.765 43.5452 204.148C50.4374 207.212 57.17 210.659 64.2536 213.34C67.0615 214.394 69.8375 215.064 72.805 215.543C76.5701 216.117 79.6333 215.926 82.505 214.33C80.2715 219.756 78.6761 225.565 77.8145 231.374C76.953 237.183 75.9958 244.045 76.953 249.95C76.8892 250.94 76.953 251.993 77.1126 253.078C77.1445 253.238 77.3997 253.27 77.4316 253.11C78.4527 248.961 79.378 245.035 82.6646 242.067C85.2172 239.737 88.5995 238.524 91.886 237.63C98.5548 235.811 105.032 235.14 111.031 232.012C110.042 241.013 109.723 250.174 110.01 258.983C110.01 259.143 110.074 259.238 110.169 259.334C109.946 259.909 110.616 260.738 111.286 260.387C121.88 254.834 133.367 253.717 145.141 253.078C154.394 252.568 163.584 251.61 172.582 249.408C178.868 247.876 184.962 245.609 190.546 242.545C190.067 246.407 192.556 251.259 194.63 253.812C198.81 258.951 205.83 261.153 212.02 262.622C218.657 264.218 225.485 264.984 232.186 266.196C235.887 266.867 239.493 267.76 242.971 269.261C247.981 271.399 251.427 275.133 255.319 278.772C255.415 279.027 255.543 279.251 255.67 279.506C255.958 280.017 256.883 279.793 256.819 279.155C255.83 271.623 258.51 263.898 260.361 256.653C261.127 253.621 261.861 250.557 262.499 247.493C265.115 251.067 270.923 253.238 274.401 254.451C278.102 255.791 281.899 256.781 285.6 258.025C289.429 259.302 292.78 261.281 295.907 263.675C296.353 265.207 297.183 266.388 298.683 266.324C298.906 266.324 299.034 266.037 298.938 265.845C298.108 263.739 297.183 262.526 297.151 260.068C297.119 257.355 297.917 254.546 298.427 251.929C299.576 246.216 299.576 240.375 299.193 234.598C298.874 229.523 297.949 224.544 296.609 219.66C298.108 219.692 299.991 219.692 300.374 219.692C303.724 219.628 306.755 218.383 309.723 216.883C313.233 215.096 316.328 212.574 319.455 210.213C322.709 207.755 326.124 205.553 329.282 203.031C335.887 197.86 341.599 191.604 347.502 185.668C350.629 182.54 353.82 179.539 357.298 176.826C360.489 174.337 364.03 172.869 367.7 171.209C368.147 171.017 368.242 170.507 368.051 170.156C369.71 170.028 371.305 169.517 373.092 169.038C373.539 169.038 373.411 168.56 373.092 168.592ZM320.093 94.0315C326.092 94.8614 331.995 95.8828 338.057 96.0743C340.163 96.1381 342.365 96.2019 344.279 95.6593C340.514 100.575 339.716 108.778 337.26 113.821C333.111 122.247 327.496 129.939 320.859 136.578C314.445 142.994 306.851 148.164 298.459 151.707C294.662 153.303 290.706 154.388 286.653 155.154C282.697 155.888 278.485 155.505 274.56 156.176C270.603 153.048 266.264 150.43 261.414 148.547C257.84 147.175 254.107 146.281 250.31 145.834C269.806 118.481 302.99 109.288 333.08 98.2766C333.558 98.0851 333.303 97.2552 332.792 97.3829C317.157 102.075 301.586 107.246 286.845 114.331C271.88 121.545 256.819 131.184 247.757 145.483C247.757 145.515 247.757 145.515 247.725 145.547C244.758 145.355 241.79 145.387 238.855 145.675C243.609 141.781 246.96 135.11 249.065 130.29C251.171 125.566 252.639 120.619 253.756 115.576C257.585 109.639 262.275 105.203 268.849 101.819C276.506 97.8617 284.994 95.7551 293.45 94.4464C302.32 93.042 311.191 92.8186 320.093 94.0315ZM265.594 178.933C259.276 175.837 253.15 172.645 246.449 170.347C240.163 168.177 233.239 167.283 226.666 166.677C221.082 166.198 215.498 166.421 209.946 167.283C207.362 167.698 204.33 168.528 202.161 170.251C202.863 166.23 207.585 162.368 210.265 160.038C215.275 155.697 221.114 152.633 227.368 150.558C239.557 146.536 253.373 147.111 264.924 152.792C274.847 157.676 282.218 166.389 288.089 175.518C290.993 179.986 293.513 184.678 295.939 189.402C297.151 191.796 298.427 194.126 299.64 196.52C301.108 199.488 302.958 202.01 304.075 205.042C292.78 195.85 274.783 201.659 261.861 204.084C252.958 205.776 243.705 207.244 234.739 205.521C227.751 204.148 220.412 200.733 216.647 194.477C215.498 187.072 212.243 180.082 206.564 174.528C205.607 173.603 204.617 172.805 203.596 172.103C206.564 170.092 210.552 169.581 213.935 169.198C218.21 168.687 222.422 168.241 226.762 168.272C240.865 168.368 252.543 174.656 265.434 179.316C265.658 179.444 265.849 179.029 265.594 178.933ZM190.706 167.762C189.589 167.698 188.44 167.73 187.291 167.794C187.291 166.453 184.707 159.08 184.547 158.41C183.781 155.473 183.877 152.505 183.367 149.569C183.781 149.505 184.228 149.441 184.675 149.345C185.377 150.367 186.143 151.388 187.132 152.314C189.206 154.356 191.439 155.665 193.737 156.463C191.535 159.527 190.067 164.857 190.706 167.762ZM153.341 166.166C153.309 165.974 153.213 165.815 153.15 165.623C154.235 164.315 155.16 162.814 155.926 161.251C156.309 161.634 156.755 162.017 157.042 162.368C157.776 163.293 158.446 164.283 159.116 165.24C159.372 165.623 159.659 166.102 159.946 166.549C157.744 166.389 155.543 166.485 153.341 166.772C153.437 166.613 153.437 166.421 153.341 166.166ZM156.691 159.623C157.489 157.676 158.095 155.601 158.478 153.494C159.053 155.058 159.659 156.399 159.914 156.974C161.19 160.133 162.754 163.134 164.477 166.038C164.764 166.517 165.083 167.028 165.37 167.538C164.445 167.251 163.488 167.028 162.499 166.868C161.797 165.623 160.712 164.442 159.978 163.453C159.531 162.783 158.063 160.357 156.691 159.623ZM162.69 158.793C161.446 156.271 160.393 153.686 159.531 151.037C159.308 150.398 159.244 149.537 159.116 148.675C159.563 141.493 158.191 134.025 155.67 128.247C154.585 125.726 153.15 123.46 151.522 121.385C152.48 120.938 153.245 120.364 153.915 119.693C155.543 128.184 159.372 136.355 161.861 144.557C163.328 149.441 165.019 154.229 166.583 159.08C167.636 162.431 168.434 166.006 169.55 169.358C169.295 169.198 169.072 169.038 168.817 168.911C166.87 165.528 164.445 162.336 162.69 158.793ZM163.711 144.206C160.999 135.461 157.457 126.971 155.16 118.098C155.638 117.268 156.021 116.342 156.309 115.385C156.723 115.353 157.138 115.321 157.553 115.257C158.223 115.161 158.861 115.002 159.436 114.746C159.18 118.225 159.467 121.768 160.425 125.343C161.541 129.652 163.296 134.025 165.658 137.95C165.753 143.057 168.561 148.579 170.125 153.143C172.103 158.921 173.316 164.921 175.645 170.571C175.645 170.571 175.645 170.571 175.645 170.602C174.56 171.049 173.507 171.528 172.454 172.039C172.454 171.879 172.39 171.752 172.326 171.624C169.646 162.431 166.583 153.335 163.711 144.206ZM172.135 153.59C171.21 150.781 170.093 148.005 169.072 145.228C168.625 143.983 168.306 142.674 167.987 141.398C168.689 142.323 169.423 143.249 170.189 144.111C172.135 146.249 174.847 148.068 177.751 149.026C176.698 152.505 177.464 156.399 178.166 159.878C178.772 162.814 179.442 166.07 180.463 169.007C179.378 169.294 178.325 169.645 177.24 170.028C177.24 169.932 177.24 169.868 177.208 169.773C175.102 164.442 173.922 158.952 172.135 153.59ZM180.272 160.484C179.282 156.718 179.059 153.016 178.58 149.217C179.889 149.569 181.197 149.696 182.505 149.632C180.974 153.111 182.377 157.676 183.335 161.187C183.718 162.527 184.26 165.879 185.377 168.017C184.388 168.145 183.399 168.304 182.441 168.496C182.026 165.783 180.942 163.07 180.272 160.484ZM192.556 165.942C192.716 164.315 193.162 162.687 193.705 161.155C194.183 159.75 194.885 158.41 195.843 157.229C195.875 157.165 195.938 157.133 196.002 157.069C197.087 157.261 198.204 157.388 199.321 157.388C197.534 160.453 196.258 165.655 196.736 168.751C195.396 168.368 193.992 168.081 192.588 167.889C192.556 167.283 192.492 166.613 192.556 165.942ZM198.714 169.485C198.683 169.358 198.619 169.23 198.587 169.07C198.172 167.315 198.714 165.304 199.161 163.612C199.576 161.889 200.31 160.197 201.108 158.601C201.331 158.186 201.618 157.771 201.873 157.325C205.639 157.005 209.499 155.888 213.328 154.516C210.999 156.112 208.797 157.867 206.723 159.814C204.171 162.176 200.214 166.038 199.895 169.964C199.544 169.836 199.129 169.645 198.714 169.485ZM256.66 66.8375C257.298 65.5927 258.542 64.5713 259.595 63.6776C261.956 61.571 264.477 59.5602 266.966 57.6132C272.997 52.8575 279.697 49.0273 286.685 45.7717C293.801 42.4522 303.469 39.9307 308.574 33.4195C305.032 42.3884 304.267 53.0809 303.277 62.4328C302.703 67.7312 302.097 73.0615 301.331 78.3598C300.725 82.6049 300.246 87.233 298.746 91.3185C295.587 91.6696 292.461 92.1803 289.429 92.7548C278.9 94.7975 264.988 99.1384 256.851 107.756C259.723 102.362 262.945 97.0637 265.945 91.7653C269.774 84.9987 273.571 78.2641 277.783 71.7529C285.345 60.1028 294.694 49.6018 305 40.3456C305.192 40.1861 304.905 39.9307 304.713 40.0903C293.067 49.5061 284.069 60.9965 275.358 73.0615C271.082 78.9663 267.253 85.286 263.679 91.6377C260.489 97.2871 257.042 103.064 254.937 109.256C255.415 106.128 255.798 102.937 256.053 99.7767C256.691 91.6377 256.341 83.4667 256.053 75.3277C255.99 73.4764 255.83 71.0826 255.798 68.5611C256.181 68.0823 256.213 67.7312 256.66 66.8375ZM215.147 65.5288C229.187 62.0179 243.992 60.3582 257.585 55.9216C255.319 58.6665 254.49 62.369 254.107 66.0395C253.852 66.6779 253.788 67.2844 253.915 67.8589C253.915 68.0185 253.915 68.178 253.884 68.3376C253.309 76.6363 254.235 84.9987 253.82 93.3612C253.277 104.82 251.554 116.087 247.47 126.843C245.843 131.12 243.801 135.174 241.184 138.908C238.982 142.1 236.238 144.111 233.462 146.473C230.208 147.111 226.985 147.973 223.922 149.122C215.785 150.526 206.404 155.505 198.14 154.739C198.108 154.644 198.012 154.548 197.917 154.484C197.279 154.133 196.64 154.165 196.002 154.42C193.099 153.75 190.355 152.25 187.929 149.409C178.612 138.621 186.334 123.683 192.333 113.501C199.193 101.851 208.574 91.7654 218.912 83.1156C229.729 74.0509 241.854 67.3801 253.628 59.7198C253.884 59.5602 253.66 59.1133 253.405 59.241C239.844 65.3692 226.889 74.402 215.594 84.0731C203.979 94.0315 194.279 106.065 186.908 119.47C182.346 127.737 179.059 138.525 183.335 147.207C180.591 146.76 178.006 146.536 175.453 145.036C172.869 143.536 170.922 141.11 169.231 138.685C164.988 132.493 162.243 124.928 161.892 117.427C161.254 102.937 172.071 90.1375 182.346 81.2005C191.663 73.0934 202.543 68.8164 213.998 65.848C214.381 66.0715 214.956 66.0076 215.147 65.5288ZM158.606 63.9649C163.488 50.336 171.656 38.5264 181.261 27.8019C185.696 22.8547 190.482 18.2904 195.236 13.6942C197.566 11.4281 200.023 8.90656 201.778 6.06587C201.363 14.2688 205.032 21.8652 208.127 29.3978C210.393 34.9835 211.924 40.6648 212.754 46.6335C213.52 52.0914 214.286 58.0601 213.839 63.6138C213.073 63.8053 212.307 63.9649 211.541 64.1564C201.363 66.7098 192.205 70.923 184.069 76.8597C185.153 73.4126 185.409 69.4866 185.983 66.0714C186.877 60.3901 187.642 54.7406 188.727 49.1231C190.801 38.4306 194.566 27.7062 198.3 17.4925C198.332 17.4287 198.204 17.3967 198.172 17.4286C194.152 26.8763 190.418 36.1325 187.706 46.059C184.866 56.4004 183.558 67.5078 182.346 78.1683C178.453 81.2005 174.783 84.6796 171.433 88.5416C170.795 89.2758 170.189 90.0099 169.582 90.7759C170.699 87.0734 169.327 82.1262 168.178 78.7748C166.2 73.0615 162.722 68.2738 158.542 64.0606C158.574 64.0287 158.606 63.9968 158.606 63.9649ZM104.649 37.7922C108.893 40.7925 113.424 43.1544 118.593 45.1333C126.73 48.2294 134.739 50.7509 142.333 55.1555C149.927 59.5921 157.234 65.1139 162.18 72.5189C163.615 74.6574 164.764 76.9554 165.69 79.3493C167.221 83.2113 168.88 87.3287 167.795 91.51C166.806 95.404 164.19 98.5957 162.626 102.234C161.222 105.426 160.233 108.809 159.723 112.257C159.244 112.448 158.861 112.799 158.383 112.991C157.872 113.214 157.33 113.406 156.787 113.565C156.755 113.565 156.723 113.565 156.723 113.597C157.234 110.597 157.042 107.341 156.66 104.66C155.575 96.8084 152.001 89.3715 147.757 82.7645C138.312 68.1461 124.464 56.8472 111.797 45.1653C111.669 45.0376 111.478 45.261 111.605 45.3887C122.199 56.2088 133.079 66.4225 142.141 78.6471C146.64 84.6796 150.437 91.2866 152.767 98.4681C153.947 102.075 154.554 105.873 154.681 109.671C154.809 114.299 153.309 117.044 149.831 119.534C143.45 112.703 134.324 108.586 125.262 106.479C124.4 106.288 123.539 106.096 122.645 105.937C123.06 105.554 122.965 104.724 122.486 104.341C117.54 100.255 115.562 93.8081 113.36 87.9033C110.808 81.041 109.053 73.9233 107.84 66.7417C106.723 60.1347 107.266 53.6873 106.915 47.0484C106.787 44.0162 106.404 40.3776 104.649 37.7922ZM63.6792 105.107C61.2861 102.841 59.4355 100.16 57.9358 97.2233C55.3831 92.308 53.9473 86.8181 52.6071 81.4559C50.214 72.0401 48.14 61.986 41.535 54.7725C43.3218 55.6662 45.5554 55.8258 47.5018 55.9854C54.4897 56.4642 61.5414 56.7834 68.5612 56.9749C81.2606 57.326 97.2785 59.4006 105.798 69.8378C106.085 71.5294 106.436 73.253 106.787 74.9446C108.414 82.2538 110.871 89.3715 113.871 96.2339C114.988 98.7873 116.455 103.288 119.136 105.235C114.924 104.564 110.68 104.213 106.436 104.149C106.436 104.054 106.436 103.958 106.404 103.862C105.67 101.341 101.905 99.0426 100.055 97.3191C95.2045 92.7229 89.3334 89.0843 84.1643 84.903C75.1662 77.6257 67.5082 68.3696 56.3723 64.2521C56.2446 64.2202 56.1489 64.4117 56.2766 64.4755C66.6148 69.2313 73.6665 77.8492 82.0264 85.1903C89.4291 91.7015 97.6933 96.9999 104.522 104.149C95.1087 104.245 85.7597 105.841 76.8892 109.033C75.5172 109.544 74.177 110.054 72.805 110.629C72.8369 110.278 72.5497 109.863 72.103 109.895C68.7845 110.246 65.849 107.15 63.6792 105.107ZM28.6441 138.174C33.3665 136.259 37.7379 133.482 42.0136 130.641C49.4163 125.694 56.8828 120.906 64.796 116.789C79.6652 109.065 95.2045 105.49 111.924 106.767C124.719 107.756 138.504 111.491 147.63 121.034C152.033 125.63 154.585 131.471 155.734 137.663C157.17 145.419 156.883 156.144 152.352 163.357C136.27 120.172 78.6122 115.576 42.0774 134.088C41.9498 134.152 42.0774 134.344 42.1732 134.28C60.1055 125.375 82.3455 122.821 101.937 126.364C112.02 128.184 121.848 132.11 130.271 137.95C140.131 144.813 146.577 154.612 150.565 165.783C150.182 166.198 149.831 166.581 149.416 166.964C149.193 167.155 149.129 167.411 149.129 167.634C147.502 168.049 145.97 168.528 144.566 169.102C137.547 171.943 131.963 177.497 127.527 183.593C107.138 195.658 85.1853 179.476 70.6671 165.24C58.7335 153.526 47.0551 136.546 28.6441 138.174ZM60.0098 208.521C52.4476 205.233 45.1087 201.563 37.4508 198.499C28.325 194.86 13.5197 190.455 5.03209 196.839C5.12782 196.647 5.19163 196.424 5.28736 196.233C6.30842 193.998 7.45711 191.828 8.63771 189.689C8.70153 189.594 8.73344 189.498 8.79725 189.434C8.86107 189.434 8.89298 189.402 8.95679 189.37C14.2854 181.806 19.1036 173.858 25.0385 166.74C31.803 158.633 40.3225 152.09 50.214 148.196C51.6818 149.441 53.1496 150.75 54.5535 152.154C60.0417 157.484 65.0832 163.198 70.4757 168.592C66.5191 168.241 62.1476 169.038 58.6378 169.453C52.5114 170.156 46.6722 171.273 40.833 173.22C29.2185 177.114 18.8802 184.072 9.65877 192.019C9.27587 192.37 9.7864 192.977 10.1693 192.658C18.8802 185.444 28.7079 179.859 39.3333 176.029C44.9173 174.018 50.7883 172.837 56.6914 172.262C59.5312 171.975 62.4029 171.752 65.2746 171.528C68.2102 171.337 71.0181 171.752 73.8898 171.879C74.8152 172.741 75.7086 173.571 76.6658 174.369C84.0685 180.848 92.4923 186.338 101.905 189.147C93.9281 194.062 88.1209 202.425 84.1004 210.883C76.5701 215.447 67.3168 211.713 60.0098 208.521ZM101.395 232.81C97.2466 233.832 93.0666 234.598 89.0143 235.938C84.4833 237.438 80.6863 240.247 78.6441 244.045C79.6971 234.247 81.2606 224.703 84.9939 215.319C89.11 205.01 95.8426 197.413 103.277 189.53C103.852 189.689 104.426 189.849 105 190.009C109.212 190.998 113.998 191.19 118.497 190.296C116.009 192.019 113.711 194.158 111.541 195.881C106.596 199.807 102.033 204.148 97.6933 208.744C89.5248 217.426 82.2817 227.767 80.0481 239.609C80.0162 239.832 80.3034 239.928 80.3672 239.705C87.5784 218.447 105.224 202.648 123.284 190.296C118.593 198.531 115.498 207.563 113.488 216.788C112.594 220.905 111.924 225.118 111.382 229.395C108 230.257 104.809 231.981 101.395 232.81ZM147.342 250.429C134.962 251.099 122.39 252.121 111.478 258.472C113.392 247.014 113.36 235.3 115.147 223.81C116.711 213.564 119.614 203.701 124.305 194.445C128.389 186.402 133.973 178.742 141.695 173.858C145.332 171.56 149.416 170.219 153.692 169.709C156.915 169.326 160.169 169.517 163.296 170.251C165.849 170.858 168.21 172.039 170.731 172.581C170.763 172.677 170.795 172.773 170.859 172.837C168.434 174.145 166.104 175.645 163.998 177.241C154.809 184.231 147.087 193.966 140.801 203.606C134.228 213.692 127.623 223.746 121.433 234.023C121.401 234.055 121.465 234.119 121.497 234.055C133.111 216.756 143.801 198.243 159.595 184.295C166.104 178.55 173.156 173.347 181.58 171.273C181.899 171.464 182.409 171.368 182.569 171.049C183.335 170.89 184.069 170.73 184.834 170.634C194.63 169.198 203.15 173.539 208.797 181.423C220.572 197.828 212.882 221.065 199.161 233.513C185.409 245.992 165.275 249.472 147.342 250.429ZM261.127 242.545C260.106 248.642 258.51 254.642 257.011 260.643C255.99 264.76 254.107 270.186 254.362 274.878C246.258 264.441 230.623 263.739 218.529 261.568C212.275 260.451 205.926 259.015 200.374 255.759C197.661 254.195 195.428 251.993 193.992 249.184C192.748 246.758 193.035 243.982 192.46 241.46C201.012 236.321 208.191 229.172 212.658 219.788C214.541 215.894 215.817 211.713 216.487 207.468C217.54 208.425 218.817 209.095 220.157 210.117C223.06 212.351 225.645 215.287 228.006 218.064C232.346 223.139 235.855 228.884 238.951 234.789C241.95 240.503 244.534 246.535 246.417 252.727C248.172 258.632 249.193 264.696 250.661 270.665C250.693 270.793 250.884 270.793 250.884 270.665C251.267 258.249 246.194 244.843 240.897 233.768C237.961 227.672 234.26 221.958 229.921 216.756C227.974 214.394 225.804 212.223 223.635 210.085C221.529 208.01 219.072 206.989 216.743 205.489C216.998 203.286 217.062 201.084 216.966 198.914C224.145 208.17 239.302 209.638 250.023 208.617C250.31 208.585 250.597 208.553 250.916 208.521C256.372 212.16 259.978 216.405 261.446 223.012C262.977 229.395 262.18 236.194 261.127 242.545ZM296.832 244.014C296.768 248.897 295.619 253.621 295.492 258.504C295.46 259.238 295.46 260.387 295.556 261.6C291.025 257.483 285.217 255.568 279.219 253.685C275.581 252.568 271.912 251.323 268.561 249.472C266.2 248.163 264.637 246.407 263.105 244.46C263.584 241.907 263.998 239.354 264.254 236.768C265.243 227.48 263.839 216.468 256.691 210.276C273.89 217.649 282.792 239.098 289.685 255.121C289.78 255.344 290.163 255.217 290.035 254.993C285.856 245.099 282.346 234.949 276.57 225.82C271.944 218.511 264.349 210.468 255.639 207.914C263.328 206.765 270.923 204.946 278.612 203.797C280.942 203.446 283.303 203.127 285.664 202.967C287.196 205.457 288.887 207.755 290.163 210.404C291.759 213.723 292.939 217.203 293.928 220.714C296.13 228.278 296.896 236.194 296.832 244.014ZM346.896 182.923C340.227 189.37 334.069 196.232 326.73 201.978C323.284 204.691 319.551 207.085 316.041 209.766C312.786 212.223 309.531 214.553 305.798 216.245C302.639 217.649 299.64 217.458 296.289 217.777C296.226 217.777 296.162 217.777 296.098 217.809C295.811 216.851 295.492 215.926 295.173 215C293.769 210.947 291.918 206.35 289.11 202.871C290.61 202.871 292.078 202.967 293.577 203.191C298.332 203.893 302.288 206.319 306.149 209.032C306.851 209.51 307.425 208.521 306.979 207.978C306.245 207.085 305.479 206.287 304.649 205.584C303.788 199.073 300.693 193.105 297.725 187.296C296.194 184.327 294.598 181.391 292.907 178.486C293.194 178.39 293.482 178.295 293.769 178.135C293.864 178.103 293.96 178.039 294.024 177.976C295.268 177.784 297.406 177.848 298.108 177.752C301.171 177.401 304.171 176.858 307.202 176.507C312.02 175.933 316.902 175.454 321.752 175.135C331.165 174.528 340.769 174.018 350.182 173.89C350.438 173.89 350.438 173.539 350.182 173.507C345.237 173.443 340.323 172.964 335.377 172.996C329.889 173.028 324.432 173.475 318.944 173.507C314.094 173.507 309.212 174.081 304.394 174.656C301.331 175.007 298.268 175.454 295.205 175.741C293.801 175.869 292.652 175.645 291.695 176.443C290.546 174.592 289.397 172.741 288.185 170.954C284.962 166.262 281.325 161.985 277.176 158.25C279.825 158.442 282.601 158.123 285.058 157.835C289.716 157.357 294.279 156.048 298.651 154.388C302.831 152.792 306.819 150.686 310.584 148.228C321.88 147.015 332.378 152.76 342.333 157.58C347.502 160.07 352.129 163.644 357.106 166.453C359.627 167.858 362.244 169.007 365.02 169.836C365.307 169.932 365.626 169.996 365.913 170.06C358.351 171.72 352.193 177.784 346.896 182.923Z" fill="#32441C"/>
<g opacity="0.4">
<path opacity="0.4" d="M251.81 138.461C254.522 128.184 256.213 115.129 262.531 105.841C259.085 108.554 256.245 111.746 253.756 115.576C252.671 120.619 251.172 125.566 249.066 130.29C246.928 135.11 243.577 141.781 238.855 145.675C241.822 145.387 244.79 145.323 247.725 145.547C247.725 145.515 247.725 145.515 247.757 145.483C249.161 143.313 250.693 141.238 252.32 139.259C251.969 139.131 251.714 138.812 251.81 138.461Z" fill="#597434"/>
</g>
<g opacity="0.4">
<path opacity="0.4" d="M317.413 134.408C308.478 139.451 300.055 139.61 290.418 136.45C283.558 134.184 275.836 130.961 268.466 132.844C264.413 133.897 260.776 135.876 256.979 137.568C254.586 140.121 252.352 142.834 250.246 145.739C254.075 146.185 257.776 147.079 261.35 148.452C266.2 150.335 270.572 152.92 274.496 156.08C278.421 155.41 282.665 155.793 286.589 155.059C290.642 154.293 294.598 153.207 298.395 151.611C306.755 148.1 314.381 142.93 320.795 136.482C326.443 130.865 331.325 124.449 335.217 117.491C330.431 124.194 324.56 130.386 317.413 134.408Z" fill="#597434"/>
</g>
<g opacity="0.6">
<path opacity="0.6" d="M239.014 148.196C234.005 150.494 228.804 152.888 225.166 156.846C223.826 158.314 221.561 160.197 224.401 161.155C226.315 161.793 228.261 162.144 230.24 162.431C234.42 163.038 238.6 163.772 242.652 164.953C250.852 167.379 258.893 171.049 266.551 174.816C273.539 178.263 279.697 182.667 284.356 188.955C284.771 189.53 284.037 190.392 283.431 190.009C275.071 185.029 266.296 180.561 257.33 176.763C251.746 174.401 246.002 172.198 240.067 170.858C235.696 169.868 230.304 168.751 225.932 170.507C216.647 174.273 223.762 184.487 228.357 189.115C234.196 194.988 241.727 198.307 250.023 198.882C266.009 199.999 282.218 192.37 297.694 198.052C297.821 195.945 297.598 193.839 297.119 191.764C296.704 190.966 296.29 190.168 295.875 189.37C293.45 184.646 290.929 179.954 288.025 175.486C287.132 174.05 286.143 172.645 285.154 171.273C279.665 163.581 272.358 155.856 263.456 152.218C260.999 151.196 258.351 150.111 255.83 149.473C251.714 148.451 243.194 146.313 239.014 148.196Z" fill="#B3C936"/>
</g>
<g opacity="0.3">
<path opacity="0.3" d="M254.873 109.224C256.723 103.83 259.563 98.7553 262.403 93.7761C262.307 93.6485 262.275 93.4889 262.307 93.2654C264.668 81.9984 260.616 69.3271 265.689 58.6665C265.721 58.6346 265.753 58.5707 265.753 58.5388C263.647 60.1985 261.541 61.8902 259.563 63.6776C258.542 64.5713 257.298 65.5927 256.628 66.8375C256.181 67.6993 256.149 68.0504 255.734 68.5291C255.766 71.0506 255.894 73.4445 255.989 75.2957C256.277 83.4347 256.628 91.6057 255.989 99.7448C255.734 102.937 255.383 106.096 254.873 109.224Z" fill="#597434"/>
</g>
<g opacity="0.3">
<path opacity="0.3" d="M301.491 68.3056C296.545 74.0189 290.546 77.6575 283.558 80.3386C278.198 82.4133 271.816 84.5838 267.381 88.6054C266.87 89.4991 266.36 90.3928 265.849 91.3184C262.85 96.6168 259.659 101.915 256.755 107.309C264.924 98.6914 278.804 94.3506 289.334 92.3078C292.397 91.7333 295.524 91.2226 298.651 90.8715C300.15 86.7861 300.629 82.1261 301.235 77.9129C301.778 74.2423 302.224 70.5399 302.639 66.8374C302.288 67.3481 301.905 67.8588 301.491 68.3056Z" fill="#597434"/>
</g>
<g opacity="0.4">
<path opacity="0.4" d="M171.337 92.5313C169.263 96.5529 167.604 100.798 166.455 105.171C165.243 109.735 164.605 114.746 166.104 119.31C167.668 124.098 171.433 127.003 176.251 123.811C185.536 117.651 192.811 107.948 200.182 99.7447C200.661 99.2021 201.139 98.6595 201.65 98.1488C205.958 93.1058 210.616 88.3501 215.626 84.0092C226.921 74.3381 239.876 65.3054 253.437 59.1771C253.724 59.0495 253.915 59.4963 253.66 59.6559C243.641 66.1671 233.367 71.9762 223.858 79.1258C223.986 79.3811 223.986 79.6684 223.794 79.9238C217.668 87.3287 210.712 94.0314 204.585 101.436C198.938 108.267 192.779 116.533 191.28 125.566C190.514 130.226 191.503 136.131 196.704 137.887C200.31 139.099 204.203 138.11 207.585 136.642C214.286 133.737 220.795 129.396 226.347 124.673C241.344 111.873 249.384 94.7655 253.628 75.7744C253.66 75.6468 253.692 75.5191 253.724 75.3595C253.692 72.9976 253.756 70.6356 253.884 68.2737C253.915 68.1141 253.915 67.9545 253.915 67.795C253.788 67.2204 253.82 66.614 254.107 65.9756C254.522 62.337 255.351 58.6345 257.585 55.8577C243.96 60.2623 229.155 61.9221 215.147 65.465C214.956 65.9437 214.381 66.0076 213.998 65.7522C202.543 68.7206 191.663 72.9656 182.346 81.1047C178.548 84.4561 174.688 88.2862 171.337 92.5313Z" fill="#B3C936"/>
</g>
<g opacity="0.3">
<path opacity="0.3" d="M212.754 46.6336C212.403 44.0802 211.86 41.5587 211.254 39.0691C210.999 42.4524 210.361 45.7399 209.244 48.8359C206.978 55.1557 202.735 59.4965 196.672 62.2734C193.098 63.9012 189.397 65.146 185.887 66.6142C185.408 69.9017 185.121 73.6042 184.068 76.8598C192.173 70.9231 201.363 66.7099 211.541 64.1565C212.307 63.965 213.073 63.8054 213.839 63.6139C214.317 58.0602 213.52 52.0916 212.754 46.6336Z" fill="#597434"/>
</g>
<g opacity="0.3">
<path opacity="0.3" d="M173.156 75.966C172.805 76.4767 171.848 76.1575 171.88 75.551C172.231 69.0398 169.519 63.2946 168.083 57.1025C167.253 53.5596 166.998 50.0487 167.189 46.4739C163.775 51.9957 160.872 57.8047 158.638 63.9968C158.638 64.0606 158.574 64.0606 158.574 64.1244C162.754 68.3376 166.264 73.1253 168.21 78.8386C169.359 82.1899 170.731 87.1372 169.614 90.8397C170.221 90.0737 170.827 89.3396 171.465 88.6055C174.847 84.7115 178.485 81.2644 182.378 78.2322C182.761 74.7531 183.175 71.2421 183.654 67.6993C179.602 69.5505 175.932 71.9762 173.156 75.966Z" fill="#597434"/>
</g>
<g opacity="0.4">
<path opacity="0.4" d="M152.001 96.2977C151.969 99.1065 151.394 101.947 150.182 104.724C150.022 105.107 149.576 105.235 149.225 105.075C138.025 100.319 125.07 96.202 116.806 86.8181C113.934 83.5306 111.669 79.9558 109.85 76.2214C110.807 80.1473 111.988 84.0732 113.392 87.8714C115.594 93.7762 117.572 100.256 122.518 104.309C122.964 104.692 123.06 105.522 122.677 105.905C123.539 106.097 124.4 106.256 125.294 106.448C134.356 108.554 143.513 112.672 149.863 119.502C153.309 117.012 154.841 114.299 154.713 109.639C154.585 105.873 153.979 102.043 152.798 98.4362C152.511 97.766 152.288 97.0319 152.001 96.2977Z" fill="#597434"/>
</g>
<g opacity="0.4">
<path opacity="0.4" d="M165.658 79.3494C164.732 76.9555 163.583 74.6575 162.148 72.519C160.042 69.3591 157.489 66.5503 154.649 64.0288C155.224 64.7948 155.798 65.5609 156.34 66.3588C161.541 73.9872 165.913 87.7438 157.234 94.7976C156.883 95.0849 156.468 94.8615 156.213 94.5742C154.49 92.5953 152.83 90.5845 151.107 88.6056C153.788 93.6486 155.83 99.0746 156.628 104.692C157.01 107.373 157.17 110.661 156.691 113.629C156.723 113.629 156.723 113.597 156.755 113.597C157.298 113.438 157.808 113.246 158.351 113.023C158.829 112.831 159.212 112.48 159.691 112.289C160.169 108.842 161.19 105.458 162.594 102.266C164.19 98.6278 166.806 95.436 167.763 91.542C168.848 87.3289 167.189 83.2114 165.658 79.3494Z" fill="#597434"/>
</g>
<g opacity="0.3">
<path opacity="0.3" d="M78.2931 98.8832C71.752 99.1385 63.9026 98.6917 58.8292 93.9359C56.7871 91.9889 55.2874 89.6589 54.043 87.1055C55.0321 90.6164 56.2127 94.0635 57.9039 97.2553C59.4035 100.16 61.2542 102.873 63.6473 105.139C65.8171 107.182 68.7526 110.246 72.0072 109.959C72.4859 109.927 72.773 110.31 72.7092 110.693C74.0494 110.15 75.4214 109.608 76.7935 109.097C85.6958 105.873 95.0449 104.277 104.426 104.213C101.841 101.532 99.0653 99.0746 96.1936 96.7446C90.2587 97.4787 84.3238 98.6597 78.2931 98.8832Z" fill="#597434"/>
</g>
<g opacity="0.3">
<path opacity="0.3" d="M113.807 96.2659C110.808 89.4035 108.351 82.2859 106.723 74.9767C106.341 73.285 106.021 71.5934 105.734 69.8698C102.894 66.3908 99.225 63.8373 95.1089 61.9861C97.6934 65.4332 99.6718 69.3911 100.725 73.5404C102.512 80.7219 101.81 88.1588 105.447 94.8296C105.702 95.2764 105.479 95.9786 104.873 95.9786C102.894 96.0106 100.884 96.1382 98.906 96.3616C99.2569 96.6808 99.6398 97 99.9908 97.3511C101.841 99.0747 105.607 101.373 106.341 103.894C106.372 103.99 106.372 104.086 106.372 104.182C110.616 104.245 114.86 104.596 119.072 105.267C116.424 103.32 114.956 98.8512 113.807 96.2659Z" fill="#597434"/>
</g>
<g opacity="0.3">
<path opacity="0.3" d="M40.8012 154.867C49.0335 154.867 54.8408 161.793 59.0527 168.017C59.3398 168.432 59.627 168.847 59.9142 169.262C63.1688 168.847 66.9659 168.273 70.4439 168.56C65.0514 163.166 59.978 157.484 54.5217 152.122C53.1177 150.75 51.65 149.409 50.1822 148.164C45.6193 149.952 41.3436 152.346 37.4189 155.154C38.5357 154.995 39.6844 154.867 40.8012 154.867Z" fill="#597434"/>
</g>
<g opacity="0.3">
<path opacity="0.3" d="M76.6341 174.369C75.7087 173.539 74.7834 172.709 73.858 171.879C70.9863 171.752 68.2103 171.305 65.2429 171.528C64.0303 171.592 62.8497 171.752 61.6372 171.815C63.8389 175.071 66.1363 178.263 68.9123 181.04C72.9965 185.125 77.6232 188.477 82.4413 191.636C82.9838 191.987 83.0157 192.722 82.3775 192.977C76.0916 195.53 71.7202 202.233 64.7961 203.382C57.0744 204.691 49.895 198.786 42.5562 197.254C38.5996 196.424 34.643 196.073 30.7183 196.073C33.1433 196.839 35.4407 197.637 37.419 198.435C45.045 201.499 52.4158 205.201 59.978 208.457C67.3169 211.649 76.5383 215.383 84.0686 210.851C88.0891 202.393 93.8963 194.062 101.873 189.115C92.4605 186.338 84.0367 180.848 76.6341 174.369Z" fill="#597434"/>
</g>
<g opacity="0.3">
<path opacity="0.3" d="M113.392 193.807C113.583 193.775 113.775 193.807 113.934 193.871C115.37 192.658 116.87 191.381 118.465 190.296C113.966 191.19 109.18 190.998 104.968 190.009C104.394 189.881 103.819 189.689 103.245 189.53C102.064 190.775 100.916 192.019 99.7671 193.264C103.468 194.445 111.956 194.19 113.392 193.807Z" fill="#597434"/>
</g>
<g opacity="0.3">
<path opacity="0.3" d="M111.828 198.786C108.382 204.084 104.713 209.191 102.575 215.287C100.214 221.958 97.9483 228.055 93.2259 233.449C92.7154 234.023 92.1411 234.598 91.5986 235.172C94.8214 234.279 98.1079 233.64 101.394 232.842C104.809 231.98 107.999 230.289 111.382 229.427C111.924 225.15 112.594 220.937 113.488 216.819C115.466 207.595 118.593 198.562 123.283 190.328C119.423 192.977 115.562 195.786 111.828 198.786Z" fill="#597434"/>
</g>
<g opacity="0.4">
<path opacity="0.4" d="M143.29 190.328C146.608 186.913 172.582 173.156 155.287 170.634C153.469 170.379 151.65 170.379 149.799 170.443C146.927 171.145 144.183 172.262 141.663 173.89C133.973 178.773 128.357 186.434 124.273 194.477C119.582 203.701 116.679 213.596 115.115 223.841C114.445 228.15 114.03 232.459 113.679 236.8C120.731 222.437 132.154 201.818 143.29 190.328Z" fill="#B3C936"/>
</g>
<g opacity="0.4">
<path opacity="0.4" d="M135.855 212.383C130.91 219.533 126.283 226.906 121.465 234.087C121.433 234.119 121.401 234.087 121.401 234.055C125.07 227.959 128.899 221.926 132.792 215.958C124.815 225.246 118.465 241.907 111.924 255.472C116.934 250.269 153.437 239.768 161.031 239.226C176.379 238.045 186.302 227.193 195.747 213.34C201.203 205.329 204.426 194.222 201.363 184.678C198.172 174.784 189.429 171.273 179.984 171.783C172.263 174.113 165.658 178.965 159.595 184.359C155.894 187.647 152.448 191.189 149.225 194.892C145.524 201.18 140.705 206.797 135.855 212.383Z" fill="#B3C936"/>
</g>
<g opacity="0.3">
<path opacity="0.3" d="M228.07 260.036C223.188 258.696 213.328 256.813 213.584 250.078C213.775 244.333 219.168 238.524 222.326 234.119C224.145 231.566 230.814 223.969 229.378 219.756C228.931 219.213 228.548 218.639 228.102 218.128C225.709 215.351 223.156 212.415 220.252 210.181C218.912 209.159 217.636 208.489 216.583 207.531C215.881 211.745 214.605 215.926 212.754 219.852C208.287 229.236 201.108 236.385 192.556 241.524C193.162 244.046 192.875 246.822 194.088 249.248C195.524 252.057 197.757 254.227 200.469 255.823C206.021 259.047 212.371 260.515 218.625 261.632C225.294 262.813 233.016 263.579 239.972 265.75C236.398 262.781 232.473 261.249 228.07 260.036Z" fill="#597434"/>
</g>
<g opacity="0.3">
<path opacity="0.3" d="M223.699 210.117C223.89 210.308 224.082 210.5 224.273 210.691C224.401 210.691 224.56 210.723 224.72 210.819C230.591 214.904 237.579 214.138 244.311 215.16C248.491 215.798 252.512 216.947 256.149 219.213C258.287 220.554 260.106 222.246 261.733 224.161C261.669 223.778 261.637 223.395 261.542 223.044C260.042 216.437 256.468 212.16 251.012 208.553C250.725 208.585 250.406 208.617 250.119 208.649C239.397 209.67 224.241 208.202 217.062 198.946C217.157 201.116 217.094 203.318 216.838 205.521C219.136 207.021 221.593 208.042 223.699 210.117Z" fill="#597434"/>
</g>
<g opacity="0.2">
<path opacity="0.2" d="M281.995 252.121C277.847 249.057 273.38 245.737 272.295 240.407C270.955 233.832 271.593 227.097 270.444 220.554C266.551 216.181 262.02 212.543 256.724 210.276C263.871 216.437 265.275 227.448 264.286 236.768C263.999 239.354 263.584 241.907 263.137 244.46C264.669 246.439 266.232 248.163 268.593 249.472C271.944 251.323 275.613 252.536 279.251 253.685C282.633 254.738 285.92 255.823 288.983 257.291C286.59 255.408 284.101 253.685 281.995 252.121Z" fill="#597434"/>
</g>
<g opacity="0.2">
<path opacity="0.2" d="M269.678 217.043C269.582 216.628 269.838 216.149 270.316 216.117C276.155 215.926 281.293 214.234 287.164 215.16C288.983 215.447 290.769 215.766 292.524 216.086C291.854 214.139 291.12 212.255 290.195 210.404C288.919 207.755 287.228 205.457 285.696 202.967C283.335 203.127 280.974 203.446 278.644 203.797C270.954 204.978 263.36 206.797 255.67 207.915C260.871 209.447 265.658 212.958 269.678 217.043Z" fill="#597434"/>
</g>
<g opacity="0.2">
<path opacity="0.2" d="M295.205 175.805C297.215 175.582 299.257 175.326 301.267 175.103C300.916 174.784 300.597 174.497 300.246 174.209C299.736 173.762 300.055 173.028 300.693 172.933C312.02 170.986 323.635 165.751 332.984 159.112C334.452 158.091 335.76 156.654 337.004 155.09C328.644 151.037 319.87 147.334 310.521 148.292C306.755 150.75 302.767 152.856 298.587 154.452C294.216 156.112 289.653 157.421 284.994 157.899C282.569 158.187 279.761 158.506 277.113 158.314C281.261 162.017 284.898 166.326 288.121 171.018C289.334 172.805 290.514 174.656 291.631 176.507C292.652 175.678 293.801 175.933 295.205 175.805Z" fill="#597434"/>
</g>
<g opacity="0.2">
<path opacity="0.2" d="M336.143 190.583C330.782 194.349 321.593 198.275 315.626 193.232C312.626 190.679 311.765 187.072 309.627 183.912C307.872 181.295 305.734 179.125 303.437 177.018C301.65 177.273 299.863 177.529 298.044 177.752C297.342 177.848 295.205 177.752 293.96 177.976C293.865 178.039 293.801 178.103 293.705 178.135C293.418 178.263 293.131 178.359 292.843 178.486C294.535 181.359 296.13 184.295 297.662 187.296C300.629 193.105 303.724 199.073 304.586 205.585C305.415 206.287 306.181 207.085 306.915 207.978C307.362 208.521 306.787 209.51 306.085 209.032C302.224 206.319 298.3 203.925 293.514 203.191C292.046 202.967 290.546 202.903 289.046 202.872C291.886 206.351 293.705 210.947 295.109 215C295.428 215.926 295.715 216.883 296.034 217.809C296.098 217.809 296.162 217.809 296.226 217.777C299.576 217.458 302.575 217.649 305.734 216.245C309.468 214.553 312.722 212.223 315.977 209.766C319.487 207.085 323.188 204.691 326.666 201.978C333.558 196.552 339.461 190.168 345.651 184.04C342.333 185.955 339.334 188.349 336.143 190.583Z" fill="#597434"/>
</g>
<path d="M236.175 73.7957C227.145 79.4132 219.423 85.7648 212.786 94.1592C205.798 102.969 201.012 112.608 196.098 122.598C195.906 122.981 196.513 123.236 196.704 122.853C201.714 113.916 207.553 104.884 213.935 96.8403C217.125 92.8186 220.635 89.0843 224.369 85.5733C228.389 81.807 232.314 77.7854 236.462 74.2106C236.685 73.9871 236.43 73.6361 236.175 73.7957Z" fill="#E1E673"/>
<path d="M241.791 61.1244C223.092 66.1993 202.639 69.7422 185.951 80.1793C179.793 84.0414 174.528 89.2759 170.891 95.5956C166.966 102.49 166.232 109.735 168.338 117.3C168.402 117.523 168.753 117.555 168.817 117.3C169.646 113.597 169.04 109.831 169.87 106.097C170.667 102.554 171.976 99.2023 173.762 96.0105C177.591 89.1801 184.037 84.1052 190.706 80.1793C206.309 71.0508 224.592 66.1035 241.822 61.2201C241.918 61.252 241.854 61.0924 241.791 61.1244Z" fill="#E1E673"/>
<path d="M190.769 173.858C182.792 170.411 174.815 174.847 168.37 179.571C161.031 184.933 155.287 192.466 149.959 199.743C144.407 207.308 138.982 214.936 133.367 222.469C130.24 226.65 127.017 230.736 123.986 234.981C120.667 239.673 118.274 244.652 115.721 249.791C115.658 249.886 115.849 249.982 115.913 249.886C124.432 233.672 137.483 220.171 148.363 205.616C153.341 198.977 158.351 192.338 164.286 186.497C171.018 179.89 180.527 173.507 190.418 174.911C191.056 175.007 191.407 174.113 190.769 173.858Z" fill="#E1E673"/>
<path d="M149.608 172.996C135.058 171.911 125.485 188.636 121.178 200.222C116.009 214.138 115.019 229.044 112.786 243.567C112.754 243.726 112.977 243.758 113.041 243.631C116.009 230.065 118.242 216.245 122.933 203.127C127.272 190.998 135.696 176.539 149.608 174.273C150.278 174.145 150.374 173.06 149.608 172.996Z" fill="#E1E673"/>
<path d="M135.951 152.473C133.462 146.09 129.506 139.929 123.858 135.972C116.838 131.056 106.915 128.854 98.6188 127.418C88.6315 125.694 78.2614 125.886 68.3699 128.056C57.9359 130.354 47.9168 134.918 37.1318 135.78C36.9085 135.812 36.8766 136.131 37.1318 136.131C45.8427 136.004 53.8836 133.578 62.3073 131.503C71.9436 129.109 81.867 128.407 91.7585 129.301C100.661 130.131 109.244 132.556 117.508 135.908C122.071 137.759 125.932 140.568 128.9 144.558C131.006 147.366 132.569 150.494 134.675 153.303C135.217 154.101 136.238 153.239 135.951 152.473Z" fill="#E1E673"/>
<path d="M144.981 124.386C141.695 116.821 133.75 112.895 126.155 110.789C115.753 107.916 105.064 107.214 94.3749 108.842C83.3985 110.533 72.6455 114.172 62.5306 118.672C53.3411 122.758 47.0232 130.769 38.0571 135.174C37.6103 135.397 37.8656 136.067 38.3442 135.908C41.9818 134.695 44.7897 132.557 47.7252 130.131C51.618 126.875 55.3513 123.875 59.8822 121.513C63.8069 119.47 68.2102 118.193 72.3902 116.789C77.6231 115.034 82.8242 113.406 88.2486 112.289C98.842 110.15 109.691 109.767 120.316 111.969C129.793 113.916 137.323 117.938 143.96 124.96C144.375 125.439 145.236 124.96 144.981 124.386Z" fill="#E1E673"/>
<path d="M151.012 133.099C151.172 131.312 150.629 127.992 149.066 127.418C146.96 126.683 146.034 129.684 146.226 131.343C146.513 133.833 150.087 137.408 150.948 133.673C150.948 133.482 150.98 133.29 151.012 133.099Z" fill="#E1E673"/>
<path d="M302.129 202.169C295.204 187.359 286.781 172.549 274.113 161.889C263.615 153.048 246.417 145.387 233.175 152.888C233.047 152.984 233.143 153.175 233.271 153.143C237.195 152.92 240.993 152.026 244.917 152.122C248.427 152.186 251.809 153.016 255.096 154.133C262.913 156.75 269.965 161.634 275.964 167.219C281.101 172.007 285.441 177.624 289.365 183.433C293.545 189.626 296.449 197.094 301.65 202.552C301.905 202.84 302.256 202.456 302.129 202.169Z" fill="#E1E673"/>
<path d="M274.433 184.519C269.423 182.189 264.382 179.922 259.181 178.071C253.628 176.06 247.821 174.592 241.982 173.73C237.323 173.06 232.984 173.539 228.389 174.145C228.293 174.145 228.293 174.305 228.389 174.305C238.472 173.794 249.098 177.241 258.447 180.625C263.201 182.348 267.923 184.199 272.614 186.051C277.974 188.157 283.175 190.934 288.664 192.658C288.791 192.69 288.887 192.53 288.823 192.466C285.186 188.285 279.283 186.785 274.433 184.519Z" fill="#E1E673"/>
<path d="M165.274 198.02C163.743 196.616 161.414 197.796 159.563 199.169C156.372 200.637 153.564 203.35 152.096 206.382C150.82 208.968 151.522 213.117 155.128 212.702C158.574 212.351 161.796 209.319 163.998 206.829C165.913 204.659 167.891 200.446 165.274 198.02Z" fill="#E1E673"/>
<path d="M149.448 213.787C146.991 213.851 144.917 215.192 144.056 217.234C143.481 218 143.035 218.862 142.779 219.756C142.652 220.235 142.747 220.873 143.258 221.16C147.629 223.586 150.98 219.118 150.756 214.968C150.725 214.266 150.118 213.755 149.448 213.787Z" fill="#E1E673"/>
<path d="M141.567 181.263C139.684 180.784 138.185 181.295 137.004 182.316C135.409 183.306 134.356 184.965 133.749 186.817C133.59 187.263 133.749 187.87 134.196 188.093C134.26 188.732 134.93 189.21 135.568 189.115C137.355 188.859 138.982 187.87 140.067 186.434C141.152 185.38 141.982 184.04 142.301 182.635C142.396 182.093 142.173 181.423 141.567 181.263Z" fill="#E1E673"/>
<path d="M133.335 193.839C133.335 193.807 133.367 193.743 133.367 193.711C133.462 193.328 133.494 192.945 133.558 192.562C133.622 191.987 132.952 191.636 132.473 191.764C131.644 191.987 131.037 192.402 130.591 192.913C130.463 193.009 130.367 193.105 130.24 193.232C130.24 193.232 130.24 193.264 130.208 193.264C129.538 193.902 128.995 194.669 128.963 195.626C128.931 196.137 129.314 196.615 129.889 196.552C129.921 196.552 129.921 196.552 129.921 196.552C130.367 196.807 130.973 196.807 131.293 196.36C131.356 196.296 131.42 196.232 131.452 196.169C131.867 195.977 132.282 195.722 132.601 195.371C133.016 194.956 133.207 194.413 133.335 193.839Z" fill="#E1E673"/>
<path d="M236.781 82.6687C234.675 80.0514 232.058 81.5516 229.921 84.105C226.985 85.637 225.453 89.2438 225.485 92.6271C225.485 93.0101 225.868 93.4569 226.219 93.5846C231.58 95.4677 241.408 88.3501 236.781 82.6687Z" fill="#E1E673"/>
<path d="M221.944 94.2549C220.955 94.3187 220.125 94.6379 219.423 95.1486C219.104 95.3082 218.785 95.4678 218.466 95.7231C217.636 96.3615 217.189 97.319 216.934 98.3404C216.775 98.883 217.157 99.3937 217.668 99.5214C218.912 99.8725 220.253 99.7448 221.306 98.9788C222.614 98.0212 222.869 96.553 222.901 95.0528C222.933 94.5421 222.39 94.2549 221.944 94.2549Z" fill="#E1E673"/>
<path d="M185.249 90.7759C184.451 89.7864 182.952 89.8503 181.835 90.1376C179.984 90.6482 178.357 91.9569 177.272 93.6166C176.57 94.255 175.964 95.021 175.677 95.6275C174.975 97.0318 174.751 98.9469 175.677 100.287C176.698 101.724 178.548 101.468 179.888 100.702C182.026 99.4576 183.813 97.2234 185.026 95.0849C185.76 93.7762 186.27 92.1165 185.249 90.7759Z" fill="#E1E673"/>
<path d="M195.013 86.1799C194.63 86.2437 194.279 86.3714 193.96 86.4671C193.162 86.4671 192.365 86.6267 191.726 87.0735C190.642 87.4885 189.748 88.2864 189.365 89.5951C189.174 90.2653 189.493 90.8398 190.195 90.9675C192.939 91.5101 195.204 89.9142 196.034 87.3289C196.257 86.7225 195.683 86.0522 195.013 86.1799Z" fill="#E1E673"/>
<path d="M90.5777 132.748C87.2593 128.088 78.8036 128.758 74.3365 131.28C73.3473 131.854 73.5707 133.163 74.4003 133.737C74.496 133.801 74.5917 133.833 74.6875 133.897C74.9427 135.652 77.6549 136.865 79.378 137.121C81.1648 137.376 94.0876 137.663 90.5777 132.748Z" fill="#E1E673"/>
<path d="M71.3052 134.312C68.8802 132.333 65.5937 132.429 62.8177 133.546C61.8923 133.897 61.9562 134.95 62.4986 135.557C62.5624 135.716 62.6262 135.844 62.7539 135.972C65.3065 138.366 69.1355 138.493 71.5286 135.78C71.9753 135.333 71.72 134.663 71.3052 134.312Z" fill="#E1E673"/>
<path d="M132.218 154.548C131.835 151.356 128.102 148.675 125.836 146.856C125.166 146.313 124.241 146.76 123.922 147.462C123.794 147.749 123.699 148.005 123.635 148.292C123.475 148.388 123.348 148.484 123.284 148.643C121.21 151.931 123.475 155.569 126.602 156.942C127.655 157.676 128.932 158.155 130.335 158.218C131.101 158.25 131.516 157.452 131.548 156.846C131.548 156.782 131.516 156.718 131.516 156.623C132.027 156.08 132.314 155.41 132.218 154.548Z" fill="#E1E673"/>
<path d="M123.571 143.696C123.507 143.536 123.443 143.377 123.379 143.185C123.443 142.898 123.411 142.547 123.347 142.259C123.092 141.142 121.497 140.44 120.539 140.217C119.71 140.025 118.976 140.759 119.199 141.589C119.423 142.355 119.646 143.057 120.157 143.664C120.699 144.334 121.529 144.462 122.262 144.781C122.901 145.068 123.89 144.526 123.571 143.696Z" fill="#E1E673"/>
<path d="M250.565 155.154C247.757 154.229 244.662 153.654 241.727 154.069C241.088 154.069 240.482 154.101 239.94 154.197C237.802 154.548 235.728 156.463 237.387 158.665C240.195 162.368 248.523 159.91 250.98 156.91C251.395 156.367 251.267 155.378 250.565 155.154Z" fill="#E1E673"/>
<path d="M258.957 158.155C258.063 156.399 254.649 155.633 253.245 157.452C250.788 160.548 257.202 163.357 258.925 160.006C259.276 159.336 259.244 158.697 258.957 158.155Z" fill="#E1E673"/>
<path d="M339.142 98.7873C331.676 101.564 323.858 103.128 316.328 105.841C310.138 108.075 304.075 110.661 298.108 113.374C284.962 119.31 272.263 127.003 260.297 135.078C260.138 135.174 260.297 135.397 260.457 135.301C271.784 128.471 283.335 122.694 295.332 117.236C309.787 110.693 324.751 105.458 339.333 99.2661C339.589 99.1384 339.397 98.6915 339.142 98.7873Z" fill="#A4B439"/>
<path d="M316.998 95.9466C307.776 94.7337 297.566 95.2125 288.408 96.6169C279.506 97.9893 270.348 101.341 263.711 107.469C263.584 107.597 263.711 107.82 263.871 107.692C271.752 101.883 280.335 99.6171 289.876 98.4361C294.279 97.8935 298.746 97.6382 303.15 97.2872C307.808 96.9361 312.307 95.9466 316.998 96.2658C317.189 96.2977 317.221 95.9785 316.998 95.9466Z" fill="#A4B439"/>
<path d="M319.072 120.396C317.828 119.949 316.551 119.853 315.275 120.013C312.244 119.853 308.861 122.375 307.745 124.96C307.585 125.311 307.521 125.662 307.458 126.013C307.394 126.269 307.394 126.524 307.458 126.779V126.811C307.585 127.769 308.16 128.63 309.181 129.109C311.638 130.29 315.115 128.694 317.381 127.769C319.104 127.066 321.689 125.726 321.816 123.555C321.912 121.896 320.476 120.906 319.072 120.396Z" fill="#A4B439"/>
<path d="M303.564 128.056C301.49 126.971 299.065 126.907 297.629 128.567C297.087 128.886 296.608 129.301 296.162 129.78C295.683 130.322 295.811 131.152 296.449 131.503C299.097 132.939 302.479 132.748 303.852 130.003C303.883 129.939 303.947 129.843 303.947 129.78C304.011 129.62 304.107 129.46 304.171 129.269C304.33 128.79 303.947 128.279 303.564 128.056Z" fill="#A4B439"/>
<path d="M279.634 103.926C276.634 103.479 273.188 103.639 270.572 104.947C270.189 105.139 269.838 105.299 269.551 105.49C267.604 106.671 266.041 108.778 266.009 111.076C266.009 111.65 266.487 112.001 266.966 112.161C272.008 113.725 279.059 110.629 280.591 105.394C280.782 104.756 280.272 104.022 279.634 103.926Z" fill="#A4B439"/>
<path d="M265.466 115.193C264.222 114.14 262.276 113.629 260.84 114.65C259.627 115.544 259.308 117.012 259.372 118.449C259.404 118.991 259.946 119.406 260.457 119.342C261.542 119.183 262.499 118.991 263.297 118.481C264.318 118.002 265.147 117.076 265.658 115.831C265.722 115.64 265.626 115.321 265.466 115.193Z" fill="#A4B439"/>
<path d="M244.949 252.344C243.641 248.514 242.109 244.748 240.514 241.045C237.291 233.608 232.856 225.756 226.921 220.139C226.57 219.788 226.091 220.394 226.41 220.745C232.282 226.618 235.377 234.438 238.536 241.907C241.918 249.854 245.523 257.834 248.331 265.973C248.459 266.324 249.001 266.164 248.97 265.813C248.459 261.153 246.449 256.685 244.949 252.344Z" fill="#A4B439"/>
<path d="M257.553 221.671C257.776 223.299 257.999 224.927 258.159 226.523C258.191 226.618 258.191 226.682 258.223 226.746C258.733 229.012 258.797 231.406 258.67 233.8C258.829 239.29 258.542 244.812 257.649 250.397C256.819 255.791 254.745 261.888 254.426 267.729C254.553 267.761 254.713 267.729 254.745 267.569C256.308 261.409 257.298 255.057 258.893 248.865C259.978 244.588 260.584 240.184 260.839 235.747C261.031 231.789 260.393 225.374 257.553 221.671Z" fill="#A4B439"/>
<path d="M227.464 249.663C225.964 248.131 223.731 247.078 221.561 247.365C218.912 247.716 217.828 250.014 219.359 252.121C219.359 252.121 219.359 252.121 219.391 252.153C220.636 255.185 225.517 256.876 228.166 254.323C229.634 252.887 228.644 250.876 227.464 249.663Z" fill="#A4B439"/>
<path d="M235.345 255.568C235.377 255.344 235.377 255.089 235.313 254.866C234.962 253.621 233.08 253.206 232.059 252.95C231.516 252.823 231.101 253.11 230.91 253.589C230.75 254.036 230.623 254.515 230.623 254.929C230.431 255.504 230.399 256.015 230.75 256.621C230.974 257.036 231.42 257.291 231.867 257.419C232.09 257.483 232.346 257.515 232.569 257.515C233.399 257.77 234.292 257.77 235.09 257.642C235.568 257.547 235.887 257.164 235.856 256.653C235.824 256.27 235.6 255.919 235.345 255.568Z" fill="#A4B439"/>
<path d="M113.743 49.6019C113.615 49.4742 113.456 49.6657 113.584 49.7934C120.22 57.4856 126.379 65.5928 132.537 73.668C135.632 77.6896 138.472 81.9347 141.407 86.084C144.375 90.2653 147.598 94.7019 149.353 99.5534C149.448 99.7768 149.767 99.681 149.704 99.4576C143.801 79.3494 127.91 64.1884 113.743 49.6019Z" fill="#A4B439"/>
<path d="M125.358 83.1157C125.326 82.605 125.262 82.0944 125.166 81.6156C124.528 75.4874 117.923 65.0502 112.594 69.3272C110.967 70.6358 111.095 72.4552 112.116 74.3383C113.647 79.2537 119.486 84.0094 124.049 84.5839C124.432 84.6158 124.879 84.3924 125.007 84.0094C125.262 83.8179 125.389 83.4987 125.358 83.1157Z" fill="#A4B439"/>
<path d="M113.999 59.1773C113.297 57.4218 111.318 57.8686 110.233 59.0177C109.372 59.9752 108.734 61.3477 109.021 62.6244C109.117 63.1351 109.372 63.55 109.723 63.9011C110.17 64.8267 110.999 65.5608 112.307 65.7523C112.69 65.8162 113.105 65.5608 113.233 65.2097C113.297 65.0821 113.328 64.9225 113.392 64.7948C113.616 64.6033 113.775 64.316 113.807 63.9968C113.839 63.7734 113.807 63.5819 113.807 63.3904C114.222 61.9541 114.509 60.3901 113.999 59.1773Z" fill="#A4B439"/>
<path d="M148.97 60.5177C143.258 56.2407 136.781 52.5064 129.793 50.8466C129.633 50.8147 129.602 51.0381 129.729 51.0381C137.196 52.6659 143.864 58.092 149.48 63.0392C155.351 68.178 158.127 74.3063 160.01 81.7751C160.074 82.0304 160.52 81.9665 160.52 81.6793C159.499 72.6784 156.277 65.9757 148.97 60.5177Z" fill="#A4B439"/>
<path d="M56.181 175.358C49.576 175.582 43.1625 177.656 37.068 179.986C30.4312 182.54 24.0814 185.54 17.987 189.242C17.8274 189.338 17.987 189.594 18.1465 189.498C30.2397 183.114 43.2582 179.699 56.181 175.518C56.3086 175.518 56.2767 175.358 56.181 175.358Z" fill="#A4B439"/>
<path d="M45.1725 154.899C39.7482 155.378 34.4195 159.016 30.3034 162.368C25.4852 166.262 21.8158 171.432 18.3059 176.475C18.1783 176.667 18.4654 176.827 18.5931 176.667C21.752 172.23 25.23 168.145 29.3142 164.538C31.452 162.655 33.6856 160.995 36.1425 159.559C39.0462 157.867 42.2689 157.133 45.3321 155.729C45.715 155.569 45.6831 154.835 45.1725 154.899Z" fill="#A4B439"/>
<path d="M98.1082 197.637C91.4394 204.787 85.4088 211.585 82.7604 221.224C82.7285 221.352 82.9519 221.448 82.9838 221.32C86.6532 212.862 92.4924 204.946 98.4273 197.956C98.6188 197.733 98.2997 197.445 98.1082 197.637Z" fill="#A4B439"/>
<path d="M287.515 212.223C287.228 211.809 286.589 212.287 286.908 212.702C295.779 224.959 294.917 240.535 294.598 254.93C294.598 255.249 295.109 255.376 295.173 255.025C297.789 240.567 296.353 224.384 287.515 212.223Z" fill="#A4B439"/>
<path d="M347.598 174.784C334.005 176.89 320.444 178.295 306.628 178.103C306.277 178.103 306.213 178.646 306.596 178.678C319.774 179.22 335.345 181.072 347.725 175.39C348.013 175.262 347.981 174.72 347.598 174.784Z" fill="#A4B439"/>
<path d="M367.796 168.304C363.201 167.538 359.212 166.645 354.969 164.698C350.469 162.623 345.715 160.931 341.12 159.016C333.143 155.697 325.262 153.016 316.551 153.048C316.424 153.048 316.392 153.239 316.519 153.239C334.803 153.878 349.161 169.007 367.796 168.719C368.019 168.719 368.019 168.336 367.796 168.304Z" fill="#A4B439"/>
<path d="M295.141 54.1341C290.514 59.241 286.653 65.0819 282.41 70.508C278.517 75.4872 274.784 80.626 270.891 85.6052C270.731 85.8286 271.082 86.0839 271.242 85.8605C279.346 75.6468 289.174 65.8799 295.364 54.2937C295.46 54.1342 295.237 54.0384 295.141 54.1341Z" fill="#A4B439"/>
<path d="M281.612 50.0488C272.773 53.5917 263.647 59.2411 262.722 69.5506C262.69 69.9655 263.296 70.0613 263.36 69.6464C264.541 59.9114 274.305 54.9641 281.803 50.3361C281.994 50.2403 281.835 49.9531 281.612 50.0488Z" fill="#A4B439"/>
<path d="M195.141 16.7585C185.217 29.3341 167.444 38.686 164.732 55.6983C164.7 55.8898 165.019 55.9536 165.051 55.7621C169.391 39.3244 187.036 30.8981 195.46 16.9819C195.587 16.7585 195.268 16.567 195.141 16.7585Z" fill="#A4B439"/>
<path d="M197.566 24.4506C195.492 30.4512 193.258 36.4198 191.471 42.5161C189.78 48.2294 187.77 54.1023 188.121 60.1348C188.121 60.3582 188.472 60.3902 188.536 60.1667C189.972 54.8684 190.674 49.4423 192.077 44.112C193.801 37.5689 196.066 31.1215 198.14 24.706C198.3 24.291 197.693 24.0357 197.566 24.4506Z" fill="#A4B439"/>
<path d="M94.662 95.436C86.2383 93.8401 79.1228 87.4246 72.9964 81.8709C67.3806 76.796 62.2115 71.4656 55.8617 67.3163C55.7341 67.2206 55.5746 67.444 55.7022 67.5398C63.1687 72.87 69.0398 80.4665 75.932 86.499C81.2606 91.159 87.2593 95.6275 94.6301 95.819C94.8216 95.819 94.8535 95.4679 94.662 95.436Z" fill="#A4B439"/>
<path d="M96.1299 71.37C93.5135 67.4441 89.5888 64.9226 85.3131 63.1032C77.3999 59.7519 69.008 58.9539 60.5205 58.6348C60.1695 58.6348 60.1376 59.2412 60.4886 59.2731C68.4656 59.9115 76.6341 60.7413 84.0687 63.8373C93.0667 67.5398 97.151 76.0938 100.278 84.6478C100.374 84.8712 100.725 84.7755 100.661 84.5201C99.4165 80.0836 98.7783 75.3597 96.1299 71.37Z" fill="#A4B439"/>
</svg>
