<svg width="60" height="60" viewBox="0 0 60 60" fill="none" xmlns="http://www.w3.org/2000/svg">
<rect width="60" height="60" rx="18" fill="url(#paint0_linear_35_2018)"/>
<path d="M24.6969 28.9396C26.3964 27.2401 29.3604 27.2401 31.0599 28.9396L32.1204 30.0001L34.2414 27.8791L33.1809 26.8186C31.7664 25.4026 29.8824 24.6211 27.8784 24.6211C25.8744 24.6211 23.9904 25.4026 22.5759 26.8186L19.3929 30.0001C17.9893 31.4082 17.2012 33.3152 17.2012 35.3033C17.2012 37.2915 17.9893 39.1985 19.3929 40.6066C20.0887 41.3034 20.9153 41.8558 21.8253 42.2322C22.7353 42.6085 23.7106 42.8014 24.6954 42.7996C25.6804 42.8016 26.656 42.609 27.5663 42.2326C28.4765 41.8562 29.3034 41.3036 29.9994 40.6066L31.0599 39.5461L28.9389 37.4251L27.8784 38.4856C27.0331 39.3271 25.8889 39.7995 24.6961 39.7995C23.5034 39.7995 22.3592 39.3271 21.5139 38.4856C20.6716 37.6407 20.1987 36.4963 20.1987 35.3033C20.1987 34.1103 20.6716 32.966 21.5139 32.1211L24.6969 28.9396Z" fill="white"/>
<path opacity="0.4" d="M29.9998 19.3936L28.9393 20.4541L31.0603 22.5751L32.1208 21.5146C32.9661 20.6731 34.1103 20.2007 35.3031 20.2007C36.4958 20.2007 37.64 20.6731 38.4853 21.5146C39.3276 22.3595 39.8005 23.5039 39.8005 24.6969C39.8005 25.8899 39.3276 27.0342 38.4853 27.8791L35.3023 31.0606C33.6028 32.7601 30.6388 32.7601 28.9393 31.0606L27.8788 30.0001L25.7578 32.1211L26.8183 33.1816C28.2328 34.5976 30.1168 35.3791 32.1208 35.3791C34.1248 35.3791 36.0088 34.5976 37.4233 33.1816L40.6063 30.0001C42.0099 28.592 42.798 26.685 42.798 24.6969C42.798 22.7087 42.0099 20.8017 40.6063 19.3936C39.1986 17.9893 37.2914 17.2007 35.3031 17.2007C33.3147 17.2007 31.4075 17.9893 29.9998 19.3936V19.3936Z" fill="white"/>
<defs>
<linearGradient id="paint0_linear_35_2018" x1="30" y1="0" x2="30" y2="60" gradientUnits="userSpaceOnUse">
<stop stop-color="#FC5050"/>
<stop offset="1" stop-color="#E03939"/>
</linearGradient>
</defs>
</svg>
