<svg width="60" height="60" viewBox="0 0 60 60" fill="none" xmlns="http://www.w3.org/2000/svg">
<rect width="60" height="60" rx="18" fill="url(#paint0_linear_35_2007)"/>
<rect opacity="0.4" x="22" y="22" width="15" height="16" fill="white"/>
<path d="M29.9996 33.6001C30.9544 33.6001 31.8701 33.2208 32.5452 32.5457C33.2203 31.8705 33.5996 30.9549 33.5996 30.0001C33.5996 29.0453 33.2203 28.1296 32.5452 27.4545C31.8701 26.7794 30.9544 26.4001 29.9996 26.4001C29.0448 26.4001 28.1292 26.7794 27.454 27.4545C26.7789 28.1296 26.3996 29.0453 26.3996 30.0001C26.3996 30.9549 26.7789 31.8705 27.454 32.5457C28.1292 33.2208 29.0448 33.6001 29.9996 33.6001ZM26.3996 16.5001C26.3996 16.2614 26.3048 16.0325 26.136 15.8637C25.9672 15.6949 25.7383 15.6001 25.4996 15.6001C25.2609 15.6001 25.032 15.6949 24.8632 15.8637C24.6944 16.0325 24.5996 16.2614 24.5996 16.5001V19.2001H23.6996C22.5061 19.2001 21.3615 19.6742 20.5176 20.5181C19.6737 21.362 19.1996 22.5066 19.1996 23.7001V24.6001H16.4996C16.2609 24.6001 16.032 24.6949 15.8632 24.8637C15.6944 25.0325 15.5996 25.2614 15.5996 25.5001C15.5996 25.7388 15.6944 25.9677 15.8632 26.1365C16.032 26.3053 16.2609 26.4001 16.4996 26.4001H19.1996V29.1001H16.4996C16.2609 29.1001 16.032 29.1949 15.8632 29.3637C15.6944 29.5325 15.5996 29.7614 15.5996 30.0001C15.5996 30.2388 15.6944 30.4677 15.8632 30.6365C16.032 30.8053 16.2609 30.9001 16.4996 30.9001H19.1996V33.6001H16.4996C16.2609 33.6001 16.032 33.6949 15.8632 33.8637C15.6944 34.0325 15.5996 34.2614 15.5996 34.5001C15.5996 34.7388 15.6944 34.9677 15.8632 35.1365C16.032 35.3053 16.2609 35.4001 16.4996 35.4001H19.1996V36.3001C19.1996 37.4936 19.6737 38.6382 20.5176 39.4821C21.3615 40.326 22.5061 40.8001 23.6996 40.8001H24.5996V43.5001C24.5996 43.7388 24.6944 43.9677 24.8632 44.1365C25.032 44.3053 25.2609 44.4001 25.4996 44.4001C25.7383 44.4001 25.9672 44.3053 26.136 44.1365C26.3048 43.9677 26.3996 43.7388 26.3996 43.5001V40.8001H29.0996V43.5001C29.0996 43.7388 29.1944 43.9677 29.3632 44.1365C29.532 44.3053 29.7609 44.4001 29.9996 44.4001C30.2383 44.4001 30.4672 44.3053 30.636 44.1365C30.8048 43.9677 30.8996 43.7388 30.8996 43.5001V40.8001H33.5996V43.5001C33.5996 43.7388 33.6944 43.9677 33.8632 44.1365C34.032 44.3053 34.2609 44.4001 34.4996 44.4001C34.7383 44.4001 34.9672 44.3053 35.136 44.1365C35.3048 43.9677 35.3996 43.7388 35.3996 43.5001V40.8001H36.2996C37.4931 40.8001 38.6377 40.326 39.4816 39.4821C40.3255 38.6382 40.7996 37.4936 40.7996 36.3001V35.4001H43.4996C43.7383 35.4001 43.9672 35.3053 44.136 35.1365C44.3048 34.9677 44.3996 34.7388 44.3996 34.5001C44.3996 34.2614 44.3048 34.0325 44.136 33.8637C43.9672 33.6949 43.7383 33.6001 43.4996 33.6001H40.7996V30.9001H43.4996C43.7383 30.9001 43.9672 30.8053 44.136 30.6365C44.3048 30.4677 44.3996 30.2388 44.3996 30.0001C44.3996 29.7614 44.3048 29.5325 44.136 29.3637C43.9672 29.1949 43.7383 29.1001 43.4996 29.1001H40.7996V26.4001H43.4996C43.7383 26.4001 43.9672 26.3053 44.136 26.1365C44.3048 25.9677 44.3996 25.7388 44.3996 25.5001C44.3996 25.2614 44.3048 25.0325 44.136 24.8637C43.9672 24.6949 43.7383 24.6001 43.4996 24.6001H40.7996V23.7001C40.7996 22.5066 40.3255 21.362 39.4816 20.5181C38.6377 19.6742 37.4931 19.2001 36.2996 19.2001H35.3996V16.5001C35.3996 16.2614 35.3048 16.0325 35.136 15.8637C34.9672 15.6949 34.7383 15.6001 34.4996 15.6001C34.2609 15.6001 34.032 15.6949 33.8632 15.8637C33.6944 16.0325 33.5996 16.2614 33.5996 16.5001V19.2001H30.8996V16.5001C30.8996 16.2614 30.8048 16.0325 30.636 15.8637C30.4672 15.6949 30.2383 15.6001 29.9996 15.6001C29.7609 15.6001 29.532 15.6949 29.3632 15.8637C29.1944 16.0325 29.0996 16.2614 29.0996 16.5001V19.2001H26.3996V16.5001ZM35.3996 30.0001C35.3996 31.4323 34.8307 32.8058 33.818 33.8185C32.8053 34.8312 31.4318 35.4001 29.9996 35.4001C28.5674 35.4001 27.1939 34.8312 26.1812 33.8185C25.1685 32.8058 24.5996 31.4323 24.5996 30.0001C24.5996 28.5679 25.1685 27.1944 26.1812 26.1817C27.1939 25.169 28.5674 24.6001 29.9996 24.6001C31.4318 24.6001 32.8053 25.169 33.818 26.1817C34.8307 27.1944 35.3996 28.5679 35.3996 30.0001Z" fill="white"/>
<rect x="26" y="26" width="8" height="8" rx="4" fill="#978EFD"/>
<defs>
<linearGradient id="paint0_linear_35_2007" x1="30" y1="0" x2="30" y2="60" gradientUnits="userSpaceOnUse">
<stop stop-color="#FC5050"/>
<stop offset="1" stop-color="#E03939"/>
</linearGradient>
</defs>
</svg>
