<svg width="20" height="20" viewBox="0 0 20 20" fill="none" xmlns="http://www.w3.org/2000/svg">
<path d="M10.7483 18.3066C10.3067 18.3083 9.88167 18.1316 9.57 17.8183L3.03917 11.2891C2.8689 11.1194 2.7375 10.9148 2.65405 10.6893C2.5706 10.4639 2.53709 10.223 2.55584 9.9833L2.97251 4.51164C3.00129 4.11328 3.17294 3.73872 3.45589 3.45685C3.73884 3.17497 4.11405 3.00474 4.5125 2.97747L9.98417 2.5608C10.0275 2.55164 10.07 2.55164 10.1133 2.55164C10.555 2.55164 10.9775 2.72664 11.2883 3.03997L17.82 9.5683C17.9748 9.72308 18.0977 9.90684 18.1815 10.1091C18.2653 10.3113 18.3084 10.5281 18.3084 10.7471C18.3084 10.966 18.2653 11.1828 18.1815 11.385C18.0977 11.5873 17.9748 11.771 17.82 11.9258L11.9267 17.8183C11.7723 17.9736 11.5887 18.0967 11.3864 18.1805C11.1842 18.2643 10.9673 18.3072 10.7483 18.3066ZM7.2125 5.54497C6.93843 5.54505 6.6686 5.61272 6.42692 5.74198C6.18525 5.87124 5.97918 6.05811 5.82697 6.28604C5.67476 6.51396 5.5811 6.7759 5.5543 7.04867C5.5275 7.32143 5.56838 7.59659 5.67332 7.84978C5.77826 8.10297 5.94402 8.32637 6.15592 8.5002C6.36782 8.67403 6.61932 8.79292 6.88813 8.84634C7.15695 8.89976 7.4348 8.88606 7.69706 8.80646C7.95932 8.72685 8.1979 8.5838 8.39167 8.38997L8.3975 8.38497L8.40334 8.37914L8.39667 8.38497C8.62833 8.15127 8.78562 7.85423 8.84873 7.53129C8.91184 7.20834 8.87794 6.87394 8.75131 6.57023C8.62467 6.26651 8.41096 6.00708 8.13712 5.82463C7.86328 5.64218 7.54156 5.54487 7.2125 5.54497Z" fill="#6A37FB"/>
</svg>
