<svg width="20" height="20" viewBox="0 0 20 20" fill="none" xmlns="http://www.w3.org/2000/svg">
<path d="M9.99102 1.66675C5.39102 1.66675 1.66602 5.40008 1.66602 10.0001C1.66602 14.6001 5.39102 18.3334 9.99102 18.3334C14.5994 18.3334 18.3327 14.6001 18.3327 10.0001C18.3327 5.40008 14.5994 1.66675 9.99102 1.66675ZM13.3327 13.3334C13.2556 13.4107 13.164 13.472 13.0632 13.5138C12.9624 13.5556 12.8543 13.5771 12.7452 13.5771C12.636 13.5771 12.528 13.5556 12.4272 13.5138C12.3264 13.472 12.2348 13.4107 12.1577 13.3334L9.41602 10.5917C9.33728 10.5146 9.27464 10.4225 9.23172 10.321C9.18881 10.2194 9.16647 10.1103 9.16602 10.0001V6.66675C9.16602 6.20842 9.54102 5.83342 9.99935 5.83342C10.4577 5.83342 10.8327 6.20842 10.8327 6.66675V9.65842L13.3327 12.1584C13.6577 12.4834 13.6577 13.0084 13.3327 13.3334Z" fill="#8A8AA0"/>
</svg>
