<svg width="68" height="68" viewBox="0 0 68 68" fill="none" xmlns="http://www.w3.org/2000/svg">
<rect width="68" height="68" rx="20" fill="#47A432" fill-opacity="0.3"/>
<rect x="6" y="6" width="56" height="56" rx="16" fill="#47A432"/>
<path d="M29.104 22H25.048C23.368 22 22 23.38 22 25.0732V29.164C22 30.868 23.368 32.2359 25.048 32.2359H29.104C30.796 32.2359 32.1519 30.868 32.1519 29.164V25.0732C32.1519 23.38 30.796 22 29.104 22Z" fill="white"/>
<path d="M29.104 35.7637H25.048C23.368 35.7637 22 37.1329 22 38.8369V42.9276C22 44.6196 23.368 45.9996 25.048 45.9996H29.104C30.796 45.9996 32.1519 44.6196 32.1519 42.9276V38.8369C32.1519 37.1329 30.796 35.7637 29.104 35.7637Z" fill="white"/>
<path d="M42.9516 22H38.8956C37.2036 22 35.8477 23.38 35.8477 25.0732V29.164C35.8477 30.868 37.2036 32.2359 38.8956 32.2359H42.9516C44.6316 32.2359 45.9996 30.868 45.9996 29.164V25.0732C45.9996 23.38 44.6316 22 42.9516 22Z" fill="white" fill-opacity="0.4"/>
<path d="M42.9516 35.7637H38.8956C37.2036 35.7637 35.8477 37.1329 35.8477 38.8369V42.9276C35.8477 44.6196 37.2036 45.9996 38.8956 45.9996H42.9516C44.6316 45.9996 45.9996 44.6196 45.9996 42.9276V38.8369C45.9996 37.1329 44.6316 35.7637 42.9516 35.7637Z" fill="white"/>
</svg>
