<svg width="68" height="68" viewBox="0 0 68 68" fill="none" xmlns="http://www.w3.org/2000/svg">
<rect width="68" height="68" rx="20" fill="#685FFF" fill-opacity="0.3"/>
<rect x="6" y="6" width="56" height="56" rx="16" fill="#685FFF"/>
<path fill-rule="evenodd" clip-rule="evenodd" d="M25.396 29.8885C25.396 27.1625 27.061 25.3955 29.638 25.3955H38.354C40.94 25.3955 42.605 27.1625 42.605 29.8885V35.1905C42.159 34.8125 40.812 33.8715 40.624 33.7595C39.224 32.9195 37.544 33.2995 36.454 34.7195C36.359 34.8445 34.782 37.1445 34.224 37.4885C34.095 37.5685 33.959 37.6115 33.814 37.6315C33.464 37.6615 33.127 37.4815 32.554 37.0985C32.224 36.8885 31.864 36.6495 31.454 36.4795C29.749 35.7665 28.45 36.9445 27.758 37.7345C27.749 37.7425 25.812 40.1045 25.781 40.1415C25.538 39.5505 25.396 38.8675 25.396 38.1025V29.8885ZM44 29.8885C44 26.3625 41.731 24.0005 38.354 24.0005H29.638C26.271 24.0005 24 26.3625 24 29.8885V38.1025C24 39.6745 24.447 41.0135 25.238 42.0095C25.247 42.0185 25.247 42.0285 25.256 42.0285C26.043 43.0135 27.166 43.6665 28.519 43.8995C28.531 43.9015 28.543 43.9035 28.556 43.9055C28.903 43.9625 29.262 44.0005 29.638 44.0005H38.354C38.535 44.0005 38.7 43.9665 38.874 43.9535C39.078 43.9365 39.289 43.9325 39.483 43.8985C39.74 43.8545 39.976 43.7775 40.215 43.7035C40.319 43.6705 40.43 43.6505 40.53 43.6125C40.773 43.5205 40.996 43.4015 41.217 43.2795C41.297 43.2355 41.383 43.1995 41.461 43.1505C41.678 43.0145 41.875 42.8555 42.068 42.6895C42.132 42.6345 42.201 42.5845 42.262 42.5265C42.45 42.3475 42.616 42.1505 42.775 41.9445C42.824 41.8795 42.876 41.8195 42.923 41.7525C43.076 41.5345 43.208 41.2995 43.33 41.0545C43.364 40.9835 43.4 40.9145 43.433 40.8425C43.546 40.5855 43.64 40.3165 43.72 40.0345C43.741 39.9585 43.762 39.8835 43.78 39.8055C43.851 39.5145 43.902 39.2145 43.935 38.9005C43.939 38.8625 43.95 38.8275 43.954 38.7895C43.961 38.7045 43.96 38.6195 43.965 38.5345C43.973 38.3885 44 38.2535 44 38.1025V29.8885Z" fill="white"/>
<path d="M30.5058 33.0001C31.8673 33.0001 33.001 31.87 33.001 30.5151C33.001 29.8357 32.7161 29.2132 32.2616 28.7616C31.8091 28.2935 31.1773 28.0001 30.4797 28.0001C29.1095 28.0001 28.001 29.1042 28.001 30.4688C28.001 30.6492 28.0223 30.8239 28.0601 30.9938C28.2888 32.1258 29.3091 33.0001 30.5058 33.0001Z" fill="white" fill-opacity="0.4"/>
</svg>
