<svg width="68" height="68" viewBox="0 0 68 68" fill="none" xmlns="http://www.w3.org/2000/svg">
<rect width="68" height="68" rx="20" fill="#DF4949" fill-opacity="0.3"/>
<rect x="6" y="6" width="56" height="56" rx="16" fill="#DF4949"/>
<rect x="27" y="28" width="13" height="4" fill="white" fill-opacity="0.4"/>
<path fill-rule="evenodd" clip-rule="evenodd" d="M30.125 22H37.8375C41.225 22 43.9625 23.284 44 26.5478V44.7631C44 44.9671 43.95 45.1711 43.85 45.3511C43.6875 45.6391 43.4125 45.8551 43.075 45.9511C42.75 46.0471 42.3875 45.9991 42.0875 45.8311L33.9875 41.9432L25.875 45.8311C25.6888 45.9259 25.475 45.9871 25.2625 45.9871C24.5625 45.9871 24 45.4351 24 44.7631V26.5478C24 23.284 26.75 22 30.125 22ZM29.2753 31.1437H38.6878C39.2253 31.1437 39.6628 30.7225 39.6628 30.1958C39.6628 29.6678 39.2253 29.2478 38.6878 29.2478H29.2753C28.7378 29.2478 28.3003 29.6678 28.3003 30.1958C28.3003 30.7225 28.7378 31.1437 29.2753 31.1437Z" fill="white"/>
</svg>
