<svg width="68" height="68" viewBox="0 0 68 68" fill="none" xmlns="http://www.w3.org/2000/svg">
<rect width="68" height="68" rx="20" fill="#685FFF" fill-opacity="0.3"/>
<rect x="6" y="6" width="56" height="56" rx="16" fill="#685FFF"/>
<path fill-rule="evenodd" clip-rule="evenodd" d="M40.9231 32.0178H45.1045C45.5993 32.0178 46.0005 32.3981 46.0005 32.8671V35.8195C45.9947 36.2862 45.5969 36.6633 45.1045 36.6688H41.0191C39.8262 36.684 38.7831 35.9098 38.5125 34.8084C38.377 34.1247 38.5672 33.4192 39.0322 32.8809C39.4971 32.3427 40.1893 32.0268 40.9231 32.0178ZM41.1044 35.1219H41.4991C42.0057 35.1219 42.4164 34.7326 42.4164 34.2524C42.4164 33.7722 42.0057 33.3829 41.4991 33.3829H41.1044C40.8621 33.3802 40.6287 33.4695 40.4564 33.631C40.284 33.7924 40.187 34.0126 40.1871 34.2423C40.187 34.7242 40.596 35.1164 41.1044 35.1219Z" fill="#F9F9FA" fill-opacity="0.4"/>
<path d="M40.9227 30.2788H46C46 26.3154 43.5573 24 39.4187 24H28.5813C24.4427 24 22 26.3154 22 30.2282V38.7718C22 42.6846 24.4427 45 28.5813 45H39.4187C43.5573 45 46 42.6846 46 38.7718V38.4078H40.9227C38.5662 38.4078 36.656 36.5971 36.656 34.3635C36.656 32.1299 38.5662 30.3192 40.9227 30.3192V30.2788Z" fill="white"/>
<path d="M34.4582 30.2788H27.6849C27.1766 30.2733 26.7675 29.8811 26.7676 29.3992C26.7734 28.9229 27.1824 28.5398 27.6849 28.5398H34.4582C34.9649 28.5398 35.3756 28.9291 35.3756 29.4093C35.3756 29.8895 34.9649 30.2788 34.4582 30.2788Z" fill="#948BFB"/>
</svg>
