<svg width="60" height="60" viewBox="0 0 60 60" fill="none" xmlns="http://www.w3.org/2000/svg">
<rect width="60" height="60" rx="18" fill="url(#paint0_linear_35_2061)"/>
<path d="M45.6588 18.9334L40.9057 41.349C40.5468 42.9308 39.612 43.3245 38.2833 42.5798L31.0406 37.2428L27.5463 40.6043C27.1593 40.9913 26.8365 41.3141 26.0906 41.3141L26.6115 33.9386L40.0338 21.81C40.6177 21.2903 39.9067 21.0011 39.1271 21.522L22.5333 31.971L15.3896 29.7345C13.836 29.2496 13.8078 28.1809 15.7136 27.435L43.6552 16.6699C44.949 16.185 46.0807 16.9579 45.6588 18.9345V18.9334Z" fill="white"/>
<g opacity="0.4">
<path d="M44.6588 21.9334L39.9057 44.349C39.5468 45.9308 38.612 46.3245 37.2833 45.5798L30.0406 40.2428L26.5463 43.6043C26.1593 43.9913 25.8365 44.3141 25.0906 44.3141L25.6115 36.9386L39.0338 24.81C39.6177 24.2903 38.9067 24.0011 38.1271 24.522L21.5333 34.971L14.3896 32.7345C12.836 32.2496 12.8078 31.1809 14.7136 30.435L42.6552 19.6699C43.949 19.185 45.0807 19.9579 44.6588 21.9345V21.9334Z" fill="white"/>
</g>
<defs>
<linearGradient id="paint0_linear_35_2061" x1="30" y1="0" x2="30" y2="60" gradientUnits="userSpaceOnUse">
<stop stop-color="#FC5050"/>
<stop offset="1" stop-color="#E03939"/>
</linearGradient>
</defs>
</svg>
