<svg width="60" height="60" viewBox="0 0 60 60" fill="none" xmlns="http://www.w3.org/2000/svg">
<rect width="60" height="60" rx="18" fill="url(#paint0_linear_35_2039)"/>
<rect opacity="0.4" x="28.1113" y="25.2778" width="12.2778" height="13.2222" fill="white"/>
<path d="M41.334 21.4998H30.0007L28.0032 19.5023C27.4648 18.964 26.7423 18.6665 25.9915 18.6665H18.6673C17.0948 18.6665 15.8482 19.9273 15.8482 21.4998L15.834 38.4998C15.834 40.0723 17.0948 41.3332 18.6673 41.3332H41.334C42.8923 41.3332 44.1673 40.0582 44.1673 38.4998V24.3332C44.1673 22.7748 42.8923 21.4998 41.334 21.4998ZM38.5007 32.8332H35.6673V35.6665C35.6673 36.4457 35.0298 37.0832 34.2507 37.0832C33.4715 37.0832 32.834 36.4457 32.834 35.6665V32.8332H30.0007C29.2215 32.8332 28.584 32.1957 28.584 31.4165C28.584 30.6373 29.2215 29.9998 30.0007 29.9998H32.834V27.1665C32.834 26.3873 33.4715 25.7498 34.2507 25.7498C35.0298 25.7498 35.6673 26.3873 35.6673 27.1665V29.9998H38.5007C39.2798 29.9998 39.9173 30.6373 39.9173 31.4165C39.9173 32.1957 39.2798 32.8332 38.5007 32.8332Z" fill="white"/>
<defs>
<linearGradient id="paint0_linear_35_2039" x1="30" y1="0" x2="30" y2="60" gradientUnits="userSpaceOnUse">
<stop stop-color="#FC5050"/>
<stop offset="1" stop-color="#E03939"/>
</linearGradient>
</defs>
</svg>
