<svg width="60" height="60" viewBox="0 0 60 60" fill="none" xmlns="http://www.w3.org/2000/svg">
<rect width="60" height="60" rx="18" fill="url(#paint0_linear_35_2049)"/>
<path d="M17.3944 18.2931C17.3944 18.0544 17.4892 17.8255 17.658 17.6567C17.8268 17.4879 18.0557 17.3931 18.2944 17.3931H19.0828C20.3914 17.3931 21.1438 18.2445 21.5794 19.0941C21.8764 19.6755 22.0906 20.3847 22.2688 21.0003H40.7998C41.0779 21.0004 41.3522 21.0649 41.6012 21.1888C41.8502 21.3127 42.0671 21.4927 42.2349 21.7145C42.4027 21.9363 42.5167 22.194 42.5682 22.4674C42.6196 22.7407 42.607 23.0222 42.5314 23.2899L39.8386 32.7849C39.6244 33.5382 39.1704 34.2011 38.5454 34.6731C37.9204 35.1451 37.1586 35.4004 36.3754 35.4003H27.2332C26.4435 35.4005 25.6756 35.1411 25.0478 34.662C24.4201 34.1829 23.9673 33.5107 23.7592 32.7489L22.6036 28.5099C22.597 28.4909 22.5909 28.4717 22.5856 28.4523L20.7298 22.1577L20.5498 21.5511C20.3698 20.9283 20.2114 20.3775 19.9738 19.9149C19.6876 19.3569 19.4248 19.1949 19.081 19.1949H18.2926C18.0539 19.1949 17.825 19.1 17.6562 18.9313C17.4874 18.7625 17.3926 18.5336 17.3926 18.2949L17.3944 18.2931Z" fill="white"/>
<path opacity="0.4" d="M27.2996 42.6002C28.0157 42.6002 28.7025 42.3157 29.2088 41.8094C29.7151 41.303 29.9996 40.6163 29.9996 39.9002C29.9996 39.1841 29.7151 38.4974 29.2088 37.991C28.7025 37.4847 28.0157 37.2002 27.2996 37.2002C26.5835 37.2002 25.8968 37.4847 25.3904 37.991C24.8841 38.4974 24.5996 39.1841 24.5996 39.9002C24.5996 40.6163 24.8841 41.303 25.3904 41.8094C25.8968 42.3157 26.5835 42.6002 27.2996 42.6002V42.6002Z" fill="white"/>
<path opacity="0.4" d="M36.2996 42.6002C37.0157 42.6002 37.7024 42.3157 38.2088 41.8094C38.7151 41.303 38.9996 40.6163 38.9996 39.9002C38.9996 39.1841 38.7151 38.4974 38.2088 37.991C37.7024 37.4847 37.0157 37.2002 36.2996 37.2002C35.5835 37.2002 34.8968 37.4847 34.3904 37.991C33.8841 38.4974 33.5996 39.1841 33.5996 39.9002C33.5996 40.6163 33.8841 41.303 34.3904 41.8094C34.8968 42.3157 35.5835 42.6002 36.2996 42.6002V42.6002Z" fill="white"/>
<defs>
<linearGradient id="paint0_linear_35_2049" x1="30" y1="0" x2="30" y2="60" gradientUnits="userSpaceOnUse">
<stop stop-color="#FC5050"/>
<stop offset="1" stop-color="#E03939"/>
</linearGradient>
</defs>
</svg>
