<svg width="60" height="60" viewBox="0 0 60 60" fill="none" xmlns="http://www.w3.org/2000/svg">
<path d="M6.91071 32.2295L6.9107 32.2295C5.76538 33.2818 5.76538 34.988 6.9107 36.0403L27.6486 55.0945C28.7939 56.1468 30.6509 56.1468 31.7962 55.0945C32.9415 54.0422 32.9415 52.336 31.7962 51.2837L11.0583 32.2295C9.91297 31.1771 8.05604 31.1771 6.91071 32.2295Z" fill="#E41B9F"/>
<path fill-rule="evenodd" clip-rule="evenodd" d="M2.57295 17.4115L13.1742 7.67091C20.1919 1.22303 28.205 1.72606 34.4761 7.48811C35.2726 8.21977 36.2679 9.50014 36.8652 10.3233C37.1141 10.6435 37.2633 10.8721 37.4624 11.0549C37.8606 11.4209 38.2587 11.5123 39.1048 11.2836C44.3309 9.95753 48.9098 11.4209 53.2896 15.4451C59.4114 21.0698 60.0584 28.6153 52.2942 35.7493L37.4126 49.4226C36.6163 50.1543 35.9693 50.1085 35.173 49.3769L2.62271 19.4693C1.82638 18.7376 1.77662 18.1432 2.57295 17.4115ZM24.3241 22.5789L26.8624 20.2465C28.1565 19.0576 28.3555 17.4114 26.8126 15.9938C25.3195 14.6218 23.478 14.759 22.1839 15.948L19.6456 18.2802C18.8493 19.0119 18.8991 19.6064 19.6954 20.338L22.0843 22.5332C22.8806 23.2648 23.5278 23.3106 24.3241 22.5789ZM36.4683 33.7383L43.1376 27.6104C45.0787 25.8269 45.477 24.1806 43.8344 22.6716C42.2418 21.2082 40.4002 21.5283 38.4591 23.3118L31.7899 29.4396C30.9935 30.1713 31.0432 30.7657 31.8396 31.4974L34.2287 33.6925C35.025 34.4242 35.672 34.4699 36.4683 33.7383Z" fill="#2926CF"/>
</svg>
