<svg width="28" height="28" viewBox="0 0 28 28" fill="none" xmlns="http://www.w3.org/2000/svg">
<path fill-rule="evenodd" clip-rule="evenodd" d="M16.8287 12.9775H20.5192C21.0787 12.9775 21.5184 12.5148 21.5184 11.9569C21.5184 11.3855 21.0787 10.9364 20.5192 10.9364H16.8287C16.2692 10.9364 15.8295 11.3855 15.8295 11.9569C15.8295 12.5148 16.2692 12.9775 16.8287 12.9775ZM24.9024 5.90328C25.7151 5.90328 26.248 6.18903 26.781 6.81494C27.3139 7.44085 27.4071 8.3389 27.2872 9.15395L26.0216 18.08C25.7817 19.7958 24.3429 21.0599 22.6508 21.0599H8.11551C6.34356 21.0599 4.87803 19.6734 4.73148 17.8773L3.50577 3.0445L1.494 2.69072C0.961086 2.59547 0.588043 2.06481 0.681304 1.52054C0.774565 0.96402 1.29416 0.595276 1.8404 0.678277L5.01792 1.16676C5.4709 1.24976 5.80398 1.62939 5.84395 2.09202L6.09708 5.13994C6.13705 5.57672 6.48345 5.90328 6.90978 5.90328H24.9024ZM7.90206 23.2104C6.78293 23.2104 5.87697 24.1357 5.87697 25.2787C5.87697 26.408 6.78293 27.3333 7.90206 27.3333C9.00786 27.3333 9.91382 26.408 9.91382 25.2787C9.91382 24.1357 9.00786 23.2104 7.90206 23.2104ZM22.8904 23.2104C21.7713 23.2104 20.8653 24.1357 20.8653 25.2787C20.8653 26.408 21.7713 27.3333 22.8904 27.3333C23.9962 27.3333 24.9022 26.408 24.9022 25.2787C24.9022 24.1357 23.9962 23.2104 22.8904 23.2104Z" fill="white"/>
</svg>
