<svg width="32" height="32" viewBox="0 0 32 32" fill="none" xmlns="http://www.w3.org/2000/svg">
<path d="M22.6663 6H9.33301C6.02634 6 3.33301 8.69333 3.33301 12H28.6663C28.6663 8.69333 25.973 6 22.6663 6ZM3.33301 14.6667V20C3.33301 23.3067 6.02634 26 9.33301 26H22.6663C25.973 26 28.6663 23.3067 28.6663 20V14.6667H3.33301ZM13.333 21.3333H9.33301C8.59967 21.3333 7.99967 20.7333 7.99967 20C7.99967 19.2667 8.59967 18.6667 9.33301 18.6667H13.333C14.0663 18.6667 14.6663 19.2667 14.6663 20C14.6663 20.7333 14.0663 21.3333 13.333 21.3333Z" fill="white"/>
</svg>
