<svg width="20" height="20" viewBox="0 0 20 20" fill="none" xmlns="http://www.w3.org/2000/svg">
<path d="M17.1835 8.22413L16.7001 7.74073C16.4668 7.5074 16.3335 7.19068 16.3335 6.85735V6.17396C16.3335 4.79062 15.2085 3.66562 13.8252 3.66562H13.1418C12.8085 3.66562 12.4918 3.54067 12.2585 3.299L11.7752 2.8156C10.8002 1.8406 9.20849 1.8406 8.22516 2.8156L7.74181 3.299C7.50848 3.54067 7.19181 3.66562 6.85848 3.66562H6.17514C4.79181 3.66562 3.66685 4.79062 3.66685 6.17396V6.85735C3.66685 7.19068 3.54185 7.5074 3.30018 7.74073L2.81683 8.22413C2.34183 8.69913 2.0835 9.33236 2.0835 9.99903C2.0835 10.6657 2.34183 11.2989 2.81683 11.7739L3.30018 12.2573C3.54185 12.4907 3.66685 12.8074 3.66685 13.1407V13.8241C3.66685 15.2074 4.79181 16.3324 6.17514 16.3324H6.85848C7.19181 16.3324 7.50848 16.4574 7.74181 16.6991L8.22516 17.1825C8.71683 17.6741 9.3585 17.9157 10.0002 17.9157C10.6418 17.9157 11.2835 17.6741 11.7752 17.1825L12.2585 16.6991C12.4918 16.4574 12.8085 16.3324 13.1418 16.3324H13.8252C15.2085 16.3324 16.3335 15.2074 16.3335 13.8241V13.1407C16.3335 12.8074 16.4668 12.4907 16.7001 12.2573L17.1835 11.7739C17.6585 11.2989 17.9168 10.6657 17.9168 9.99903C17.9168 9.33236 17.6585 8.69913 17.1835 8.22413ZM7.91683 6.87403C8.49183 6.87403 8.9585 7.3407 8.9585 7.9157C8.9585 8.4907 8.49183 8.95736 7.91683 8.95736C7.34183 8.95736 6.87516 8.4907 6.87516 7.9157C6.87516 7.3407 7.34183 6.87403 7.91683 6.87403ZM12.0835 13.124C11.5085 13.124 11.0418 12.6574 11.0418 12.0824C11.0418 11.5074 11.5085 11.0407 12.0835 11.0407C12.6585 11.0407 13.1252 11.5074 13.1252 12.0824C13.1252 12.6574 12.6585 13.124 12.0835 13.124ZM13.0918 8.09066L8.09185 13.0907C7.92518 13.249 7.71683 13.3324 7.50016 13.3324C7.29183 13.3324 7.07514 13.249 6.90848 13.0907C6.58348 12.7657 6.58348 12.2324 6.90848 11.9074L11.9085 6.9074C12.2418 6.5824 12.7668 6.5824 13.0918 6.9074C13.4168 7.2324 13.4168 7.76567 13.0918 8.09066Z" fill="white"/>
</svg>
