<svg width="32" height="32" viewBox="0 0 32 32" fill="none" xmlns="http://www.w3.org/2000/svg">
<path d="M28.4926 14.0827C27.2192 20.6107 20.5272 25.1959 17.7099 26.8653C17.1819 27.1759 16.5912 27.3334 16.0006 27.3334C15.4099 27.3334 14.8192 27.1773 14.2912 26.8653C11.4725 25.1959 4.78057 20.6121 3.50724 14.0827C2.97524 11.3534 3.69924 8.45989 5.44458 6.33988C7.04191 4.40122 9.2619 3.33337 11.6966 3.33337C13.2286 3.33337 14.7072 3.72137 16.0006 4.4587C17.2939 3.72137 18.7726 3.33337 20.3046 3.33337C22.7392 3.33337 24.9592 4.40122 26.5566 6.33988C28.3006 8.45989 29.0246 11.3534 28.4926 14.0827Z" fill="white"/>
</svg>
