<svg width="20" height="20" viewBox="0 0 20 20" fill="none" xmlns="http://www.w3.org/2000/svg">
<g id="Logout - Bold 24px">
<g id="Logout">
<path id="Logout_2" fill-rule="evenodd" clip-rule="evenodd" d="M7.99893 9.39046C7.64804 9.39046 7.37059 9.65962 7.37059 10C7.37059 10.3325 7.64804 10.6096 7.99893 10.6096H12.8951V14.3938C12.8951 16.3334 11.2712 17.9167 9.26379 17.9167H5.2897C3.29041 17.9167 1.6665 16.3413 1.6665 14.4017V5.60629C1.6665 3.65879 3.29857 2.08337 5.29786 2.08337H9.28011C11.2712 2.08337 12.8951 3.65879 12.8951 5.59837V9.39046H7.99893ZM15.8067 7.26104L18.1487 9.56479C18.269 9.68354 18.3332 9.83396 18.3332 10.0002C18.3332 10.1585 18.269 10.3169 18.1487 10.4277L15.8067 12.7315C15.6864 12.8502 15.526 12.9135 15.3736 12.9135C15.2132 12.9135 15.0528 12.8502 14.9325 12.7315C14.6919 12.494 14.6919 12.106 14.9325 11.8685L16.2158 10.6098H12.8953V9.39062H16.2158L14.9325 8.13187C14.6919 7.89437 14.6919 7.50646 14.9325 7.26896C15.1731 7.02354 15.5661 7.02354 15.8067 7.26104Z" fill="white"/>
</g>
</g>
</svg>
