<svg width="60" height="60" viewBox="0 0 60 60" fill="none" xmlns="http://www.w3.org/2000/svg">
<path fill-rule="evenodd" clip-rule="evenodd" d="M18.4692 49.8321L25.49 51.6949V49.259L26.0631 48.6859H30.0749V51.5515V53.5574H25.7766L20.4751 51.2649L18.4692 49.8321Z" fill="#CDBDB2"/>
<path fill-rule="evenodd" clip-rule="evenodd" d="M41.3975 49.8321L34.5201 51.6949V49.259L33.947 48.6859H29.9352V51.5515V53.5574H34.2335L39.5347 51.2649L41.3975 49.8321Z" fill="#CDBDB2"/>
<path fill-rule="evenodd" clip-rule="evenodd" d="M26.0726 44.5294L25.4995 49.2574L26.2158 48.6843H33.6662L34.5259 49.2574L33.9528 44.5294L32.8066 43.8129L27.0754 43.9563L26.0726 44.5294Z" fill="#393939"/>
<path fill-rule="evenodd" clip-rule="evenodd" d="M22.1982 12.5763L25.6369 20.5999L27.2131 43.9544H32.8008L34.5202 20.5999L37.6723 12.5763H22.1982Z" fill="#F89C35"/>
<path fill-rule="evenodd" clip-rule="evenodd" d="M7.15828 30.2035L3.14648 41.8089L13.176 41.2358H19.6234V36.2212L19.3368 25.9052L17.904 27.0514L7.15828 30.2035Z" fill="#F89D35"/>
<path fill-rule="evenodd" clip-rule="evenodd" d="M14.752 31.493L26.5008 31.7796L25.2114 37.7973L19.6234 36.3645L14.752 31.493Z" fill="#D87C30"/>
<path fill-rule="evenodd" clip-rule="evenodd" d="M14.752 31.6338L19.6234 36.2187V40.8036L14.752 31.6338Z" fill="#EA8D3A"/>
<path fill-rule="evenodd" clip-rule="evenodd" d="M19.6182 36.36L25.3493 37.7928L27.212 43.9539L25.9224 44.6701L19.6182 40.9449V36.36Z" fill="#F89D35"/>
<path fill-rule="evenodd" clip-rule="evenodd" d="M19.6155 40.9459L18.4692 49.8292L26.0631 44.528L19.6155 40.9459Z" fill="#EB8F35"/>
<path fill-rule="evenodd" clip-rule="evenodd" d="M26.4923 31.7745L27.2089 43.9533L25.0596 37.7207L26.4923 31.7745Z" fill="#EA8E3A"/>
<path fill-rule="evenodd" clip-rule="evenodd" d="M13.0273 41.0893L19.6181 40.9459L18.4719 49.8292L13.0273 41.0893Z" fill="#D87C30"/>
<path fill-rule="evenodd" clip-rule="evenodd" d="M6.29861 53.7011L18.4771 49.8325L13.0326 41.0927L3.14648 41.8089L6.29861 53.7011Z" fill="#EB8F35"/>
<path fill-rule="evenodd" clip-rule="evenodd" d="M25.6411 20.6039L19.4803 25.7619L14.752 31.493L26.5008 31.923L25.6411 20.6039Z" fill="#E8821E"/>
<path fill-rule="evenodd" clip-rule="evenodd" d="M18.4692 49.8295L26.0631 44.5283L25.49 49.1132V51.6922L20.332 50.6892L18.4692 49.8295Z" fill="#DFCEC3"/>
<path fill-rule="evenodd" clip-rule="evenodd" d="M41.3975 49.8295L33.947 44.5283L34.5201 49.1132V51.6922L39.6781 50.6892L41.3975 49.8295Z" fill="#DFCEC3"/>
<path fill-rule="evenodd" clip-rule="evenodd" d="M23.3496 34.3546L24.9258 37.6502L19.3378 36.2174L23.3496 34.3546Z" fill="#393939"/>
<path fill-rule="evenodd" clip-rule="evenodd" d="M6.15527 5.84412L25.6411 20.6016L22.3459 12.5781L6.15527 5.84412Z" fill="#E88F35"/>
<path fill-rule="evenodd" clip-rule="evenodd" d="M6.15323 5.84412L3.57422 13.7244L5.007 22.3211L4.00405 22.8942L5.43684 24.1837L4.29061 25.1867L5.86667 26.6195L4.86372 27.4791L7.15617 30.3447L17.902 27.0493C23.1556 22.8465 25.7346 20.6973 25.6391 20.6018C25.5435 20.5063 19.0483 15.587 6.15323 5.84412Z" fill="#8E5A30"/>
<path fill-rule="evenodd" clip-rule="evenodd" d="M52.7197 30.2024L56.7314 41.8078L46.702 41.2347H40.2546V36.2201L40.5411 25.9041L41.9739 27.0503L52.7197 30.2024Z" fill="#F89D35"/>
<path fill-rule="evenodd" clip-rule="evenodd" d="M45.127 31.4924L33.3781 31.779L34.6675 37.7967L40.2555 36.3639L45.127 31.4924Z" fill="#D87C30"/>
<path fill-rule="evenodd" clip-rule="evenodd" d="M45.127 31.6332L40.2555 36.2181V40.803L45.127 31.6332Z" fill="#EA8D3A"/>
<path fill-rule="evenodd" clip-rule="evenodd" d="M40.2603 36.3594L34.5291 37.7922L32.6664 43.9533L33.956 44.6695L40.2603 40.9443V36.3594Z" fill="#F89D35"/>
<path fill-rule="evenodd" clip-rule="evenodd" d="M40.2503 40.9447L41.3965 49.828L33.946 44.6699L40.2503 40.9447Z" fill="#EB8F35"/>
<path fill-rule="evenodd" clip-rule="evenodd" d="M33.3729 31.7775L32.6564 43.9562L34.8057 37.7236L33.3729 31.7775Z" fill="#EA8E3A"/>
<path fill-rule="evenodd" clip-rule="evenodd" d="M46.8462 41.0881L40.2554 40.9447L41.4016 49.828L46.8462 41.0881Z" fill="#D87C30"/>
<path fill-rule="evenodd" clip-rule="evenodd" d="M53.5793 53.7L41.4008 49.8314L46.8454 41.0916L56.7314 41.8078L53.5793 53.7Z" fill="#EB8F35"/>
<path fill-rule="evenodd" clip-rule="evenodd" d="M34.2378 20.6031L40.3986 25.7612L45.127 31.4923L33.3781 31.9223L34.2378 20.6031Z" fill="#E8821E"/>
<path fill-rule="evenodd" clip-rule="evenodd" d="M36.5293 34.354L34.9531 37.6495L40.5411 36.2167L36.5293 34.354Z" fill="#393939"/>
<path fill-rule="evenodd" clip-rule="evenodd" d="M53.7236 5.84351L34.2378 20.601L37.533 12.5775L53.7236 5.84351Z" fill="#E88F35"/>
<path fill-rule="evenodd" clip-rule="evenodd" d="M53.7232 5.84351L56.3022 13.7238L54.8695 22.3205L55.8724 22.8936L54.4396 24.1831L55.5859 25.1861L54.0098 26.6189L55.0127 27.4785L52.7203 30.3441L41.9744 27.0487C36.7209 22.8459 34.1419 20.6967 34.2374 20.6012C34.3329 20.5057 40.8282 15.5864 53.7232 5.84351Z" fill="#8E5A30"/>
</svg>
