<svg width="20" height="20" viewBox="0 0 20 20" fill="none" xmlns="http://www.w3.org/2000/svg">
<path d="M18.089 16.9109L14.3065 13.1283C15.259 11.9217 15.8332 10.4026 15.8332 8.75008C15.8332 4.84425 12.6557 1.66675 8.74984 1.66675C4.844 1.66675 1.6665 4.84425 1.6665 8.75008C1.6665 12.6559 4.844 15.8334 8.74984 15.8334C10.4032 15.8334 11.9215 15.2601 13.1282 14.3067L16.9107 18.0893C17.0732 18.2518 17.2865 18.3334 17.4998 18.3334C17.7132 18.3334 17.9265 18.2518 18.089 18.0893C18.4148 17.7634 18.4148 17.2367 18.089 16.9109ZM3.33317 8.75008C3.33317 5.76342 5.76317 3.33342 8.74984 3.33342C11.7365 3.33342 14.1665 5.76342 14.1665 8.75008C14.1665 11.7367 11.7365 14.1667 8.74984 14.1667C5.76317 14.1667 3.33317 11.7367 3.33317 8.75008Z" fill="white"/>
</svg>
