<svg width="20" height="20" viewBox="0 0 20 20" fill="none" xmlns="http://www.w3.org/2000/svg">
<path d="M3.2631 1.82405C3.5333 1.6293 3.89351 1.61414 4.17911 1.78551L16.6791 9.2855C16.9301 9.43611 17.0837 9.70736 17.0837 10.0001C17.0837 10.2928 16.9301 10.5641 16.6791 10.7147L4.17911 18.2147C3.89351 18.386 3.5333 18.3709 3.2631 18.1761C2.99291 17.9814 2.86462 17.6444 2.93687 17.3193L4.37818 10.8334L8.75033 10.8334C9.21056 10.8334 9.58366 10.4603 9.58366 10.0001C9.58366 9.53984 9.21056 9.16675 8.75033 9.16675L4.37818 9.16675L2.93687 2.68086C2.86462 2.35572 2.99291 2.01879 3.2631 1.82405Z" fill="white"/>
</svg>
