<svg width="32" height="32" viewBox="0 0 32 32" fill="none" xmlns="http://www.w3.org/2000/svg">
<path d="M15.9997 3.33337C9.01301 3.33337 3.33301 9.01337 3.33301 16C3.33301 22.9867 9.01301 28.6667 15.9997 28.6667C22.9863 28.6667 28.6663 22.9867 28.6663 16C28.6663 9.01337 22.9863 3.33337 15.9997 3.33337ZM17.333 22.6667H14.6663C13.933 22.6667 13.333 22.0667 13.333 21.3334C13.333 20.6 13.933 20 14.6663 20H17.333C18.0663 20 18.6663 20.6 18.6663 21.3334C18.6663 22.0667 18.0663 22.6667 17.333 22.6667ZM19.333 17.3334H12.6663C11.933 17.3334 11.333 16.7334 11.333 16C11.333 15.2667 11.933 14.6667 12.6663 14.6667H19.333C20.0663 14.6667 20.6663 15.2667 20.6663 16C20.6663 16.7334 20.0663 17.3334 19.333 17.3334ZM21.333 12H10.6663C9.93301 12 9.33301 11.4 9.33301 10.6667C9.33301 9.93337 9.93301 9.33337 10.6663 9.33337H21.333C22.0663 9.33337 22.6663 9.93337 22.6663 10.6667C22.6663 11.4 22.0663 12 21.333 12Z" fill="white"/>
</svg>
