<svg width="60" height="60" viewBox="0 0 60 60" fill="none" xmlns="http://www.w3.org/2000/svg">
<path fill-rule="evenodd" clip-rule="evenodd" d="M11.752 5C9.12756 5 7 7.09574 7 9.68095V15.1338C7 17.719 9.12756 19.8148 11.752 19.8148H20.1597V50.319C20.1597 52.9043 22.2873 55 24.9117 55H30.4475C33.072 55 35.1995 52.9043 35.1995 50.319V15.1735C35.1996 15.1603 35.1997 15.1471 35.1997 15.1338V9.68095C35.1997 7.09574 33.0722 5 30.4476 5H24.9117H11.752Z" fill="#0097FF"/>
<path d="M46.4798 19.8148C50.633 19.8148 53.9998 16.4984 53.9998 12.4074C53.9998 8.3164 50.633 5 46.4798 5C42.3267 5 38.96 8.3164 38.96 12.4074C38.96 16.4984 42.3267 19.8148 46.4798 19.8148Z" fill="#0097FF"/>
</svg>
