<svg width="32" height="32" viewBox="0 0 32 32" fill="none" xmlns="http://www.w3.org/2000/svg">
<path d="M28.6663 23.5199V24.2C28.6663 25.1866 28.333 26.1333 27.7196 26.8933C27.493 27.1866 27.1197 27.3334 26.733 27.3334H23.1597C23.7063 26.3868 23.9997 25.3066 23.9997 24.2V23.5199C23.9997 21.5999 23.293 19.8269 22.093 18.4802C22.1864 18.4536 22.2664 18.4001 22.3464 18.3601C22.9597 18.0134 23.7197 17.9068 24.4397 18.0802C26.9197 18.7068 28.6663 20.9333 28.6663 23.5199ZM19.333 4.66675C18.9063 4.66675 18.493 4.70688 18.093 4.80021C19.6797 6.25355 20.6663 8.34675 20.6663 10.6667C20.6663 12.9867 19.6797 15.08 18.093 16.5333C18.493 16.6266 18.9063 16.6668 19.333 16.6668C22.6397 16.6668 25.333 13.9734 25.333 10.6667C25.333 7.36008 22.6397 4.66675 19.333 4.66675ZM12.6663 4.66675C9.35967 4.66675 6.66634 7.36008 6.66634 10.6667C6.66634 13.9734 9.35967 16.6668 12.6663 16.6668C15.973 16.6668 18.6663 13.9734 18.6663 10.6667C18.6663 7.36008 15.973 4.66675 12.6663 4.66675ZM17.773 18.0802C17.533 18.0268 17.3063 18.0001 17.0663 18.0001C16.573 18.0001 16.093 18.1201 15.6797 18.3601C14.7464 18.8668 13.7063 19.1202 12.6663 19.1202C11.6263 19.1202 10.5997 18.8668 9.67969 18.3735C9.23969 18.1335 8.74634 18.0001 8.25301 18.0001C8.03968 18.0001 7.83965 18.0268 7.63965 18.0668C5.10632 18.6535 3.33301 20.9066 3.33301 23.5199V24.2C3.33301 25.1866 3.66637 26.1333 4.2797 26.8933C4.50637 27.1866 4.87969 27.3334 5.26636 27.3334H20.0663C20.453 27.3334 20.8263 27.1866 21.053 26.8933C21.6663 26.1333 21.9997 25.1866 21.9997 24.2V23.5199C21.9997 20.9333 20.253 18.7068 17.773 18.0802Z" fill="white"/>
</svg>
