<svg width="26" height="26" viewBox="0 0 26 26" fill="none" xmlns="http://www.w3.org/2000/svg">
<path d="M13 2.4375C10.9109 2.4375 8.86879 3.05698 7.13179 4.2176C5.3948 5.37822 4.04098 7.02786 3.24153 8.95791C2.44208 10.8879 2.2329 13.0117 2.64046 15.0606C3.04802 17.1096 4.054 18.9916 5.53119 20.4688C7.00838 21.946 8.89044 22.952 10.9394 23.3595C12.9883 23.7671 15.1121 23.5579 17.0421 22.7585C18.9721 21.959 20.6218 20.6052 21.7824 18.8682C22.943 17.1312 23.5625 15.0891 23.5625 13C23.5595 10.1996 22.4458 7.51466 20.4656 5.53445C18.4853 3.55424 15.8004 2.44046 13 2.4375ZM10.3218 17.0625H15.6782C15.1328 18.9252 14.2188 20.604 13 21.9263C11.7813 20.604 10.8672 18.9252 10.3218 17.0625ZM9.95313 15.4375C9.68365 13.8237 9.68365 12.1763 9.95313 10.5625H16.0469C16.3164 12.1763 16.3164 13.8237 16.0469 15.4375H9.95313ZM4.0625 13C4.0618 12.1758 4.17562 11.3554 4.40071 10.5625H8.3068C8.06441 12.1785 8.06441 13.8215 8.3068 15.4375H4.40071C4.17562 14.6446 4.0618 13.8242 4.0625 13ZM15.6782 8.9375H10.3218C10.8672 7.07484 11.7813 5.39602 13 4.07367C14.2188 5.39602 15.1328 7.07484 15.6782 8.9375ZM17.6932 10.5625H21.5993C22.0502 12.1562 22.0502 13.8438 21.5993 15.4375H17.6932C17.9356 13.8215 17.9356 12.1785 17.6932 10.5625ZM20.9595 8.9375H17.3611C16.9465 7.30591 16.2501 5.75925 15.3034 4.36719C16.5129 4.69221 17.6409 5.26675 18.615 6.05387C19.5891 6.84098 20.3877 7.82325 20.9595 8.9375ZM10.6966 4.36719C9.7499 5.75925 9.05355 7.30591 8.63891 8.9375H5.04055C5.61227 7.82325 6.41086 6.84098 7.38496 6.05387C8.35906 5.26675 9.48711 4.69221 10.6966 4.36719ZM5.04055 17.0625H8.63891C9.05355 18.6941 9.7499 20.2408 10.6966 21.6328C9.48711 21.3078 8.35906 20.7332 7.38496 19.9461C6.41086 19.159 5.61227 18.1768 5.04055 17.0625ZM15.3034 21.6328C16.2501 20.2408 16.9465 18.6941 17.3611 17.0625H20.9595C20.3877 18.1768 19.5891 19.159 18.615 19.9461C17.6409 20.7332 16.5129 21.3078 15.3034 21.6328Z" fill="black"/>
</svg>
