<svg width="22" height="22" viewBox="0 0 22 22" fill="none" xmlns="http://www.w3.org/2000/svg">
<path d="M13.9457 5.96853L3.77795 16.1363L3.11308 18.4043L5.33495 17.7619L15.5365 7.56041L13.9457 5.96853ZM15.6805 4.23378L17.2712 5.82453L18.754 4.34178C18.8594 4.2363 18.9186 4.09325 18.9186 3.94409C18.9186 3.79494 18.8594 3.65189 18.754 3.54641L17.9575 2.75103C17.852 2.64558 17.7089 2.58634 17.5598 2.58634C17.4106 2.58634 17.2676 2.64558 17.1621 2.75103L15.6816 4.23378H15.6805ZM19.5493 1.16028L20.3447 1.95566C20.872 2.48308 21.1682 3.19832 21.1682 3.94409C21.1682 4.68987 20.872 5.40511 20.3447 5.93253L6.5162 19.7622L1.7687 21.1347C1.57519 21.1904 1.37025 21.1933 1.17527 21.1428C0.980293 21.0924 0.802431 20.9905 0.660253 20.8479C0.518075 20.7053 0.416794 20.5271 0.366983 20.3319C0.317172 20.1368 0.320658 19.9319 0.377078 19.7385L1.78108 14.9517L15.5736 1.15916C16.101 0.631893 16.8162 0.335693 17.562 0.335693C18.3078 0.335693 19.023 0.631893 19.5505 1.15916L19.5493 1.16028Z" fill="#555D68"/>
</svg>
