<svg width="27" height="26" viewBox="0 0 27 26" fill="none" xmlns="http://www.w3.org/2000/svg">
<path d="M11.3792 14.3838L13.7261 15.695L16.1415 14.345V11.7625L13.699 10.4L11.3792 11.8025V14.3838ZM8.79582 12.94V4.2225C6.39631 5.49365 4.61374 7.63167 3.83711 10.17L8.79582 12.94ZM3.41861 12.8225L3.41732 13C3.4135 15.5577 4.42634 18.0189 6.24607 19.8737L11.1415 17.1375L3.41861 12.8225ZM11.3792 8.855L18.8812 4.3175C17.3196 3.45149 15.5505 2.9972 13.7507 3C12.9343 3 12.1412 3.09125 11.3792 3.265V8.855ZM21.0705 5.9425L16.1803 8.89875L24.0788 13.3125C24.1248 11.9501 23.8816 10.593 23.3642 9.32513C22.8467 8.05728 22.0661 6.90684 21.0705 5.9425ZM18.7249 13.2075V21.7675C21.0765 20.5153 22.8343 18.4288 23.628 15.9475L18.7249 13.2075ZM8.40057 21.5575C10.0135 22.504 11.8643 23.003 13.7507 23C14.5734 23 15.3743 22.9075 16.1402 22.7313V17.2313L8.40057 21.5562V21.5575ZM13.7507 25.5C6.61678 25.5 0.833984 19.9037 0.833984 13C0.833984 6.09625 6.61678 0.5 13.7507 0.5C20.8845 0.5 26.6673 6.09625 26.6673 13C26.6673 19.9037 20.8845 25.5 13.7507 25.5Z" fill="#555D68"/>
</svg>
