<svg width="19" height="19" viewBox="0 0 19 19" fill="none" xmlns="http://www.w3.org/2000/svg">
<mask id="mask0_102_798" style="mask-type:alpha" maskUnits="userSpaceOnUse" x="0" y="0" width="19" height="19">
<rect x="0.126953" y="0.0707703" width="18" height="18" fill="#D9D9D9"/>
</mask>
<g mask="url(#mask0_102_798)">
<path d="M5.37695 10.5708C5.58945 10.5708 5.76758 10.4989 5.91133 10.3551C6.05508 10.2114 6.12695 10.0333 6.12695 9.82077C6.12695 9.60827 6.05508 9.43015 5.91133 9.2864C5.76758 9.14265 5.58945 9.07077 5.37695 9.07077C5.16445 9.07077 4.98633 9.14265 4.84258 9.2864C4.69883 9.43015 4.62695 9.60827 4.62695 9.82077C4.62695 10.0333 4.69883 10.2114 4.84258 10.3551C4.98633 10.4989 5.16445 10.5708 5.37695 10.5708ZM5.37695 7.57077C5.58945 7.57077 5.76758 7.4989 5.91133 7.35515C6.05508 7.2114 6.12695 7.03327 6.12695 6.82077C6.12695 6.60827 6.05508 6.43015 5.91133 6.2864C5.76758 6.14265 5.58945 6.07077 5.37695 6.07077C5.16445 6.07077 4.98633 6.14265 4.84258 6.2864C4.69883 6.43015 4.62695 6.60827 4.62695 6.82077C4.62695 7.03327 4.69883 7.2114 4.84258 7.35515C4.98633 7.4989 5.16445 7.57077 5.37695 7.57077ZM6.87695 10.5708H13.627V9.07077H6.87695V10.5708ZM6.87695 7.57077H13.627V6.07077H6.87695V7.57077ZM6.12695 15.8208V14.3208H3.12695C2.71445 14.3208 2.36133 14.1739 2.06758 13.8801C1.77383 13.5864 1.62695 13.2333 1.62695 12.8208V3.82077C1.62695 3.40827 1.77383 3.05515 2.06758 2.7614C2.36133 2.46765 2.71445 2.32077 3.12695 2.32077H15.127C15.5395 2.32077 15.8926 2.46765 16.1863 2.7614C16.4801 3.05515 16.627 3.40827 16.627 3.82077V12.8208C16.627 13.2333 16.4801 13.5864 16.1863 13.8801C15.8926 14.1739 15.5395 14.3208 15.127 14.3208H12.127V15.8208H6.12695ZM3.12695 12.8208H15.127V3.82077H3.12695V12.8208Z" fill="#555D68"/>
</g>
</svg>
