<svg width="26" height="26" viewBox="0 0 26 26" fill="none" xmlns="http://www.w3.org/2000/svg">
<path d="M12.75 25.5C5.84625 25.5 0.25 19.9037 0.25 13C0.25 6.09625 5.84625 0.5 12.75 0.5C19.6537 0.5 25.25 6.09625 25.25 13C25.25 19.9037 19.6537 25.5 12.75 25.5ZM12.75 23C15.4022 23 17.9457 21.9464 19.8211 20.0711C21.6964 18.1957 22.75 15.6522 22.75 13C22.75 10.3478 21.6964 7.8043 19.8211 5.92893C17.9457 4.05357 15.4022 3 12.75 3C10.0978 3 7.5543 4.05357 5.67893 5.92893C3.80357 7.8043 2.75 10.3478 2.75 13C2.75 15.6522 3.80357 18.1957 5.67893 20.0711C7.5543 21.9464 10.0978 23 12.75 23ZM12.75 5.5C14.0761 5.5 15.3479 6.02678 16.2855 6.96447C17.2232 7.90215 17.75 9.17392 17.75 10.5V13C17.75 14.3261 17.2232 15.5979 16.2855 16.5355C15.3479 17.4732 14.0761 18 12.75 18C11.4239 18 10.1521 17.4732 9.21447 16.5355C8.27678 15.5979 7.75 14.3261 7.75 13V10.5C7.75 9.17392 8.27678 7.90215 9.21447 6.96447C10.1521 6.02678 11.4239 5.5 12.75 5.5ZM12.75 8C12.087 8 11.4511 8.26339 10.9822 8.73223C10.5134 9.20107 10.25 9.83696 10.25 10.5V13C10.25 13.663 10.5134 14.2989 10.9822 14.7678C11.4511 15.2366 12.087 15.5 12.75 15.5C13.413 15.5 14.0489 15.2366 14.5178 14.7678C14.9866 14.2989 15.25 13.663 15.25 13V10.5C15.25 9.83696 14.9866 9.20107 14.5178 8.73223C14.0489 8.26339 13.413 8 12.75 8ZM7.6375 21.595C6.91748 21.1661 6.25399 20.6487 5.6625 20.055C6.40497 19.1825 7.35128 18.5067 8.4175 18.0875C8.57118 18.0219 8.73645 17.9878 8.90354 17.9872C9.07062 17.9866 9.23613 18.0195 9.39028 18.084C9.54444 18.1484 9.6841 18.2432 9.80102 18.3625C9.91794 18.4819 10.0097 18.6235 10.071 18.7789C10.1323 18.9344 10.1617 19.1005 10.1577 19.2676C10.1536 19.4346 10.1161 19.5991 10.0474 19.7514C9.97867 19.9037 9.8801 20.0407 9.75752 20.1542C9.63494 20.2678 9.49085 20.3556 9.33375 20.4125C8.66875 20.675 8.0925 21.085 7.63625 21.595H7.6375ZM17.8175 21.6225C17.3335 21.0872 16.7295 20.6742 16.055 20.4175C15.8969 20.3626 15.7515 20.2766 15.6273 20.1645C15.5031 20.0524 15.4026 19.9165 15.3319 19.7648C15.2612 19.6132 15.2217 19.4489 15.2156 19.2817C15.2096 19.1145 15.2372 18.9477 15.2968 18.7914C15.3564 18.635 15.4467 18.4922 15.5625 18.3715C15.6784 18.2507 15.8172 18.1544 15.9709 18.0883C16.1246 18.0222 16.2901 17.9876 16.4574 17.9866C16.6247 17.9856 16.7905 18.0182 16.945 18.0825C18.0498 18.5026 19.0314 19.1933 19.8 20.0913C19.2057 20.6824 18.5397 21.1968 17.8175 21.6225Z" fill="#555D68"/>
</svg>
