<svg width="18" height="26" viewBox="0 0 18 26" fill="none" xmlns="http://www.w3.org/2000/svg">
<path d="M3.75 3C3.41848 3 3.10054 3.1317 2.86612 3.36612C2.6317 3.60054 2.5 3.91848 2.5 4.25V23L6.2225 19.6038C6.91336 18.9734 7.81481 18.624 8.75 18.624C9.68519 18.624 10.5866 18.9734 11.2775 19.6038L15 23V4.25C15 3.91848 14.8683 3.60054 14.6339 3.36612C14.3995 3.1317 14.0815 3 13.75 3H3.75ZM3.75 0.5H13.75C14.7446 0.5 15.6984 0.895088 16.4017 1.59835C17.1049 2.30161 17.5 3.25544 17.5 4.25V23C17.4999 23.4847 17.3589 23.9588 17.0942 24.3648C16.8295 24.7708 16.4525 25.0911 16.0091 25.2867C15.5656 25.4824 15.0749 25.5449 14.5966 25.4667C14.1183 25.3885 13.673 25.1729 13.315 24.8462L9.5925 21.45C9.36221 21.2399 9.06173 21.1234 8.75 21.1234C8.43827 21.1234 8.13779 21.2399 7.9075 21.45L4.185 24.8462C3.82697 25.1729 3.3817 25.3885 2.90339 25.4667C2.42509 25.5449 1.93436 25.4824 1.49093 25.2867C1.04751 25.0911 0.670502 24.7708 0.4058 24.3648C0.141098 23.9588 0.000112112 23.4847 0 23L0 4.25C0 3.25544 0.395088 2.30161 1.09835 1.59835C1.80161 0.895088 2.75544 0.5 3.75 0.5Z" fill="#555D68"/>
</svg>
