<svg width="30" height="28" viewBox="0 0 30 28" fill="none" xmlns="http://www.w3.org/2000/svg">
<path d="M26.8327 11.8568C26.4388 12.0706 26.1109 12.3818 25.8828 12.7585C25.6548 13.1352 25.5347 13.5637 25.5349 14C25.5349 14.9205 26.0581 15.722 26.8327 16.1431L25.9663 18.9501C25.498 18.8724 25.0165 18.9228 24.5764 19.0957C24.1363 19.2686 23.7551 19.5571 23.4761 19.9285C23.1971 20.2999 23.0315 20.7393 22.9979 21.197C22.9643 21.6546 23.0642 22.1122 23.2862 22.5178L20.7946 24.3868C20.4648 24.1257 20.0722 23.949 19.653 23.8728C19.2338 23.7967 18.8015 23.8236 18.3959 23.951C17.9903 24.0785 17.6245 24.3025 17.3321 24.6023C17.0396 24.9021 16.83 25.2681 16.7226 25.6666L12.7471 25.6573C12.6385 25.2607 12.4286 24.8967 12.1367 24.5986C11.8447 24.3004 11.4801 24.0777 11.076 23.9508C10.6719 23.8238 10.2413 23.7967 9.82362 23.8718C9.40588 23.947 9.01432 24.122 8.68472 24.381L6.19556 22.4968C6.41133 22.0929 6.50676 21.639 6.47123 21.1858C6.43569 20.7325 6.27058 20.2977 5.99428 19.9297C5.71797 19.5617 5.34132 19.275 4.90624 19.1014C4.47116 18.9279 3.99472 18.8743 3.52997 18.9466L2.66602 16.1291C3.05262 15.9131 3.37351 15.6026 3.59644 15.2288C3.81936 14.8551 3.93646 14.4313 3.93597 14C3.93597 13.09 3.42727 12.2966 2.66602 11.8708L3.52997 9.05331C3.99482 9.12594 4.47142 9.07254 4.90669 8.89908C5.34196 8.72562 5.71881 8.4389 5.99528 8.07086C6.27174 7.70282 6.43696 7.2679 6.47254 6.81455C6.50811 6.36119 6.41264 5.90721 6.19677 5.50315L8.68352 3.61898C9.01311 3.87792 9.40467 4.05297 9.82241 4.12813C10.2401 4.20328 10.6707 4.17614 11.0748 4.04919C11.4789 3.92224 11.8435 3.69953 12.1355 3.40141C12.4274 3.10329 12.6373 2.73928 12.7459 2.34265L16.7238 2.33331C16.8312 2.73186 17.0408 3.09789 17.3333 3.3977C17.6257 3.69751 17.9915 3.92146 18.3971 4.04894C18.8027 4.17641 19.235 4.20331 19.6542 4.12715C20.0734 4.051 20.466 3.87424 20.7958 3.61315L23.285 5.48331C23.063 5.88895 22.9631 6.34652 22.9967 6.80416C23.0303 7.2618 23.1959 7.70121 23.4749 8.0726C23.7539 8.44398 24.1351 8.73248 24.5752 8.90541C25.0153 9.07833 25.4968 9.12876 25.9651 9.05098L26.8327 11.8556V11.8568ZM20.5771 6.62665C20.5771 6.55315 20.5796 6.48081 20.5832 6.40731L20.4865 6.33498C19.5453 6.58254 18.5494 6.55652 17.6235 6.26017C16.6975 5.96383 15.8827 5.41033 15.281 4.66898L14.1887 4.67131C13.5892 5.40951 12.7782 5.96125 11.8566 6.25788C10.9349 6.55452 9.94322 6.58295 9.00493 6.33965L8.89014 6.42831C8.93564 7.48144 8.62031 8.51967 7.99295 9.38228C7.36559 10.2449 6.4612 10.8838 5.41981 11.2C6.02737 12.0152 6.35374 12.9944 6.35264 13.9988C6.35264 15.0278 6.01431 15.9996 5.41981 16.7988C6.4612 17.115 7.36559 17.7539 7.99295 18.6165C8.62031 19.4791 8.93564 20.5174 8.89014 21.5705L9.00614 21.658C9.94428 21.4155 10.9355 21.4444 11.8568 21.741C12.7781 22.0376 13.5889 22.5888 14.1887 23.3263L15.281 23.3286C15.8823 22.5872 16.6969 22.0335 17.6227 21.7372C18.5485 21.4408 19.5443 21.4149 20.4853 21.6626L20.582 21.5903C20.5322 20.5339 20.8457 19.4913 21.4736 18.6249C22.1015 17.7584 23.0086 17.1168 24.0535 16.8C23.4454 15.9845 23.1186 15.0048 23.1195 14C23.1195 12.971 23.459 11.998 24.0535 11.2C23.0457 10.8941 22.1653 10.2858 21.5403 9.46345C20.9153 8.64116 20.5783 7.64778 20.5783 6.62781L20.5771 6.62665ZM14.7493 18.6666C13.4675 18.6666 12.2381 18.175 11.3317 17.2998C10.4252 16.4246 9.91602 15.2377 9.91602 14C9.91602 12.7623 10.4252 11.5753 11.3317 10.7001C12.2381 9.82498 13.4675 9.33331 14.7493 9.33331C16.0312 9.33331 17.2606 9.82498 18.167 10.7001C19.0735 11.5753 19.5827 12.7623 19.5827 14C19.5827 15.2377 19.0735 16.4246 18.167 17.2998C17.2606 18.175 16.0312 18.6666 14.7493 18.6666ZM14.7493 16.3333C15.3903 16.3333 16.005 16.0875 16.4582 15.6499C16.9114 15.2123 17.166 14.6188 17.166 14C17.166 13.3811 16.9114 12.7877 16.4582 12.3501C16.005 11.9125 15.3903 11.6666 14.7493 11.6666C14.1084 11.6666 13.4937 11.9125 13.0405 12.3501C12.5873 12.7877 12.3327 13.3811 12.3327 14C12.3327 14.6188 12.5873 15.2123 13.0405 15.6499C13.4937 16.0875 14.1084 16.3333 14.7493 16.3333Z" fill="#555D68"/>
</svg>
