<svg width="31" height="30" viewBox="0 0 31 30" fill="none" xmlns="http://www.w3.org/2000/svg">
<path d="M25.75 11.25V8.75H5.75V11.25H25.75ZM25.75 15H5.75V21.25H25.75V15ZM5.75 6.25H25.75C26.413 6.25 27.0489 6.51339 27.5178 6.98223C27.9866 7.45107 28.25 8.08696 28.25 8.75V21.25C28.25 21.913 27.9866 22.5489 27.5178 23.0178C27.0489 23.4866 26.413 23.75 25.75 23.75H5.75C5.08696 23.75 4.45107 23.4866 3.98223 23.0178C3.51339 22.5489 3.25 21.913 3.25 21.25V8.75C3.25 8.08696 3.51339 7.45107 3.98223 6.98223C4.45107 6.51339 5.08696 6.25 5.75 6.25ZM8.25 17.5H9.5C9.83152 17.5 10.1495 17.6317 10.3839 17.8661C10.6183 18.1005 10.75 18.4185 10.75 18.75C10.75 19.0815 10.6183 19.3995 10.3839 19.6339C10.1495 19.8683 9.83152 20 9.5 20H8.25C7.91848 20 7.60054 19.8683 7.36612 19.6339C7.1317 19.3995 7 19.0815 7 18.75C7 18.4185 7.1317 18.1005 7.36612 17.8661C7.60054 17.6317 7.91848 17.5 8.25 17.5ZM14.5 17.5H20.75C21.0815 17.5 21.3995 17.6317 21.6339 17.8661C21.8683 18.1005 22 18.4185 22 18.75C22 19.0815 21.8683 19.3995 21.6339 19.6339C21.3995 19.8683 21.0815 20 20.75 20H14.5C14.1685 20 13.8505 19.8683 13.6161 19.6339C13.3817 19.3995 13.25 19.0815 13.25 18.75C13.25 18.4185 13.3817 18.1005 13.6161 17.8661C13.8505 17.6317 14.1685 17.5 14.5 17.5Z" fill="#555D68"/>
</svg>
